<?xml version="1.0" encoding="UTF-8" standalone="no"?>
<svg
   xmlns:dc="http://purl.org/dc/elements/1.1/"
   xmlns:cc="http://creativecommons.org/ns#"
   xmlns:rdf="http://www.w3.org/1999/02/22-rdf-syntax-ns#"
   xmlns:svg="http://www.w3.org/2000/svg"
   xmlns="http://www.w3.org/2000/svg"
   width="2464.5063"
   height="1421.7395"
   viewBox="0 0 2464.5064 1421.7395"
   fill="none"
   version="1.1"
   id="svg1239">
  <metadata
     id="metadata1245">
    <rdf:RDF>
      <cc:Work
         rdf:about="">
        <dc:format>image/svg+xml</dc:format>
        <dc:type
           rdf:resource="http://purl.org/dc/dcmitype/StillImage" />
        <dc:title></dc:title>
      </cc:Work>
    </rdf:RDF>
  </metadata>
  <defs
     id="defs1243" />
  <rect
     x="769.50629"
     y="3.00003"
     width="240"
     height="240"
     rx="90"
     fill="#686767"
     id="rect1131"
     style="fill:#b3b3b3;fill-opacity:1" />
  <path
     d="m 76.546313,34.5 c 23.089997,-40 80.829997,-40 103.919997,0 l 68.42,118.50003 c 23.09,40 -5.78,90 -51.96,90 H 60.086309 c -46.18,0 -75.052,-50 -51.9599997,-90 z"
     fill="#686767"
     id="path1133"
     style="fill:#b3b3b3;fill-opacity:1" />
  <rect
     x="1277.5062"
     y="3.00003"
     width="240"
     height="240"
     rx="90"
     fill="#686767"
     id="rect1135"
     style="fill:#b3b3b3;fill-opacity:1" />
  <path
     fill-rule="evenodd"
     clip-rule="evenodd"
     d="m 515.50631,33 c 0,-16.57 13.43,-30 30,-30 h 20 10 120 10 20 c 16.57,0 30,13.43 30,30 v 30.00003 80 30 c 0,13.06 -8.35,24.17 -20,28.29 v 11.71 c 0,16.57 -13.43,30 -30,30 h -140 c -16.57,0 -30,-13.43 -30,-30 v -11.71 c -11.65,-4.12 -20,-15.23 -20,-28.29 v -30 -80 z"
     fill="#686767"
     id="path1137"
     style="fill:#b3b3b3;fill-opacity:1" />
  <rect
     x="3.00003"
     y="-1949.5062"
     width="240"
     height="160"
     rx="80"
     transform="rotate(90)"
     fill="#686767"
     id="rect1139"
     style="fill:#b3b3b3;fill-opacity:1" />
  <path
     fill-rule="evenodd"
     clip-rule="evenodd"
     d="m 1023.5063,198.00003 v -10 -22 V 51 51 48 c 0,-24.85 20.15,-45 45,-45 0.49,0 0.99,0.01 1.48,0.02 0.5,-0.01 1.01,-0.02 1.52,-0.02 h 69 c 13.22,0 25.2,5.35 33.88,14 h 11.5 c 8.2,-8.62 19.78,-14 32.62,-14 24.85,0 45,20.15 45,45 v 9 18.95003 0.05 46 66 9 c 0,25.41 -20.59,46 -46,46 h -66 c -13.46,0 -25.57,-5.78 -33.99,-15 h -15.47 c -8.24,9.21 -20.21,15 -33.54,15 -24.85,0 -45,-20.15 -45,-45 z"
     fill="#686767"
     id="path1143"
     style="fill:#b3b3b3;fill-opacity:1" />
  <path
     fill-rule="evenodd"
     clip-rule="evenodd"
     d="m 1689.5063,0 c 46.39,0 84,37.61 84,84.00003 v 1 38 13 7 60 c 0,22.09 -17.91,40 -40,40 -13.43,0 -25.31,-6.62 -32.57,-16.77 -3.74,0.51 -7.55,0.77 -11.43,0.77 h -4 c -7.29,9.72 -18.91,16 -32,16 -13.09,0 -24.71,-6.28 -32,-16 h -4 c -3.88,0 -7.69,-0.26 -11.43,-0.77 -7.26,10.15 -19.14,16.77 -32.57,16.77 -22.09,0 -40,-17.91 -40,-40 v -60 -20 -14 -24 -1 C 1533.5063,37.61 1571.1163,0 1617.5063,0 Z"
     fill="#686767"
     id="path1145"
     style="fill:#b3b3b3;fill-opacity:1" />
  <path
     fill-rule="evenodd"
     clip-rule="evenodd"
     d="m 261.50631,43 c 0,-22.09 17.91,-40 40,-40 h 160 c 22.09,0 40,17.91 40,40 v 92.00003 c 0,1.04 -0.04,2.07 -0.12,3.1 0.08,1.62 0.12,3.26 0.12,4.9 0,55.23 -44.77,100 -100,100 h -40 c -55.23,0 -100,-44.77 -100,-100 0,-1.64 0.04,-3.28 0.12,-4.9 -0.08,-1.03 -0.12,-2.06 -0.12,-3.1 z"
     fill="#686767"
     id="path1149"
     style="fill:#b3b3b3;fill-opacity:1" />
  <path
     fill-rule="evenodd"
     clip-rule="evenodd"
     d="m 2243.5063,153.77003 v -15.6 c -11.87,-14.29 -19,-32.65 -19,-52.67 C 2224.5063,39.94 2261.4463,3 2307.0063,3 h 10.5 1 24.5 71.5 c 27.61,0 50,22.39 50,50 0,16.36003 -7.86,30.88003 -20,40.00003 v 17.08 c 12.45,14.11 20,32.63 20,52.92 0,44.18 -35.82,80 -80,80 h -14 -41 -13 -17 -25 -1 -4 c -24.85,0 -45,-20.15 -45,-45 0,-0.82 0.02,-1.63 0.06,-2.43 -0.04,-0.85 -0.06,-1.71 -0.06,-2.57 0,-15.9 7.43,-30.08 19,-39.23 z"
     fill="#686767"
     id="path1151"
     style="fill:#b3b3b3;fill-opacity:1" />
  <path
     fill-rule="evenodd"
     clip-rule="evenodd"
     d="M 1966.5063,83.00003 C 1966.5063,38.82 2002.3263,3 2046.5063,3 h 34.5 26.5 48.5 c 27.89,0 50.5,22.61 50.5,50.5 0,15.98003 -7.42,30.22003 -19,39.47003 v 60.06 c 11.58,9.25 19,23.49 19,39.47 0,27.89 -22.61,50.5 -50.5,50.5 h -48.5 -52.5 -8.5 c -44.18,0 -80,-35.82 -80,-80 z"
     fill="#686767"
     id="path1153"
     style="fill:#b3b3b3;fill-opacity:1" />
  <path
     fill-rule="evenodd"
     clip-rule="evenodd"
     d="m 695.50631,300.7395 h 20 c 22.09,0 40,17.91 40,40 v 20 80 20 c 0,14.81 -8.04,27.73 -20,34.65 v 5.35 c 0,22.09 -17.91,40 -40,40 h -20 -80 -20 c -22.09,0 -40,-17.91 -40,-40 v -5.35 c -11.96,-6.92 -20,-19.84 -20,-34.65 v -20 -80 -20 c 0,-22.09 17.91,-40 40,-40 h 20 20 80 z"
     fill="#686767"
     id="path1155"
     style="fill:#666666" />
  <path
     fill-rule="evenodd"
     clip-rule="evenodd"
     d="m 1689.5063,297.7395 c 46.39,0 84,37.61 84,84 v 1 38 13 7 60 c 0,22.09 -17.91,40 -40,40 -13.43,0 -25.31,-6.62 -32.57,-16.77 -3.74,0.51 -7.55,0.77 -11.43,0.77 h -4 c -7.29,9.72 -18.91,16 -32,16 -13.09,0 -24.71,-6.28 -32,-16 h -4 c -3.88,0 -7.69,-0.26 -11.43,-0.77 -7.26,10.15 -19.14,16.77 -32.57,16.77 -22.09,0 -40,-17.91 -40,-40 v -60 -20 -14 -24 -1 c 0,-46.39 37.61,-84 84,-84 z"
     fill="#686767"
     id="path1157"
     style="fill:#666666" />
  <path
     fill-rule="evenodd"
     clip-rule="evenodd"
     d="m 2243.5063,451.5095 v -15.6 c -11.87,-14.29 -19,-32.65 -19,-52.67 0,-45.56 36.94,-82.5 82.5,-82.5 h 10.5 1 24.5 71.5 c 27.61,0 50,22.39 50,50 0,16.36 -7.86,30.88 -20,40 v 17.08 c 12.45,14.11 20,32.63 20,52.92 0,44.18 -35.82,80 -80,80 h -14 -41 -13 -17 -25 -1 -4 c -24.85,0 -45,-20.15 -45,-45 0,-0.82 0.02,-1.63 0.06,-2.43 -0.04,-0.85 -0.06,-1.71 -0.06,-2.57 0,-15.9 7.43,-30.07 19,-39.23 z"
     fill="#686767"
     id="path1159"
     style="fill:#666666" />
  <path
     fill-rule="evenodd"
     clip-rule="evenodd"
     d="m 1155.5563,315.7995 c -0.01,0 -0.02,0 -0.03,0 -5.17,-9 -14.89,-15.06 -26.02,-15.06 h -76 c -16.57,0 -30,13.43 -30,30 v 165 15 c 0,16.57 13.43,30 30,30 11.1,0 20.8,-6.03 25.99,-15 h 0.02 c 5.19,-8.97 14.89,-15 25.99,-15 11.08,0 20.75,6.01 25.95,14.94 h 0.03 c 5.17,9 14.89,15.06 26.02,15.06 h 76 c 16.57,0 30,-13.43 30,-30 v -165 -15 c 0,-16.57 -13.43,-30 -30,-30 -11.1,0 -20.8,6.03 -25.99,15 h -0.02 c -5.19,8.97 -14.89,15 -25.99,15 -11.08,0 -20.75,-6.01 -25.95,-14.94 z"
     fill="#686767"
     id="path1169"
     style="fill:#666666" />
  <path
     fill-rule="evenodd"
     clip-rule="evenodd"
     d="m 180.46931,332.2395 c -23.1,-40 -80.83,-40 -103.93,0 l -68.4100047,118.5 c -23.0959993,40 5.7700007,90 51.9600007,90 H 196.91931 c 46.19,0 75.06,-50 51.96,-90 z m -49.96,135 c 16.56,0 30,-13.43 30,-30 0,-16.57 -13.44,-30 -30,-30 -16.57,0 -30,13.43 -30,30 0,16.57 13.43,30 30,30 z"
     fill="#686767"
     id="path1185"
     style="fill:#666666" />
  <path
     id="path1181"
     style="fill:#b3b3b3"
     d="m 80,888.73947 c -44.180004,0 -79.99999983115711,35.82 -79.99999983115711,80 v 61.00003 c 0,1.31 0.0298440011571,2.6102 0.0898440011571,3.9102 -0.06,1.02 -0.0898440011571,2.0498 -0.0898440011571,3.0898 v 42 c 0,27.61 22.38999983115711,50 49.99999983115711,50 15.900004,0 30.078512,-7.43 39.228516,-19 h 61.541014 c 9.15,11.57 23.33047,19 39.23047,19 27.61,0 50,-22.39 50,-50 v -32 c 0,-2.55 -0.19055,-5.05 -0.56055,-7.5 0.37,-3.11 0.56055,-6.28 0.56055,-9.5 v -61.00003 c 0,-44.18 -35.82,-80 -80,-80 z m 39.85352,90 a 30,30 0 0 1 0.14648,0 30,30 0 0 1 30,30.00003 30,30 0 0 1 -30,30 30,30 0 0 1 -30,-30 30,30 0 0 1 29.85352,-30.00003 z" />
  <path
     fill-rule="evenodd"
     clip-rule="evenodd"
     d="m 859.50628,300.7395 c -49.71,0 -90,40.29 -90,90 v 60 c 0,49.71 40.29,90 90,90 h 60 c 49.71004,0 90.00002,-40.29 90.00002,-90 v -60 c 0,-49.71 -40.28998,-90 -90.00002,-90 z m 30,151 c 16.57,0 30,-13.43 30,-30 0,-16.57 -13.43,-30 -30,-30 -16.57,0 -30,13.43 -30,30 0,16.57 13.43,30 30,30 z"
     fill="#686767"
     id="path1187"
     style="fill:#666666" />
  <path
     fill-rule="evenodd"
     clip-rule="evenodd"
     d="m 1367.5062,300.7395 c -49.71,0 -90,40.29 -90,90 v 60 c 0,49.71 40.29,90 90,90 h 60 c 49.71,0 90,-40.29 90,-90 v -60 c 0,-49.71 -40.29,-90 -90,-90 z m 30,151 c 16.57,0 30,-13.43 30,-30 0,-16.57 -13.43,-30 -30,-30 -16.57,0 -30,13.43 -30,30 0,16.57 13.43,30 30,30 z"
     fill="#686767"
     id="path1189"
     style="fill:#666666" />
  <path
     fill-rule="evenodd"
     clip-rule="evenodd"
     d="m 1111.5063,588.7395 c 11.95,0 22.88,4.37 31.28,11.59 5.5,6.37 13.64,10.41 22.72,10.41 8.75,0 16.63,-3.75 22.11,-9.73 8.06,-7.61 18.93,-12.27 30.89,-12.27 24.85,0 45,20.15 45,45 v 9 19 46 66 9 c 0,25.41 -20.59,46 -46,46 h -41 c -11.6,0 -22.19,-4.29 -30.28,-11.37 -5.49,-7.08 -14.07,-11.63 -23.72,-11.63 -7.88,0 -15.04,3.04 -20.4,8 h -0.06 c -0.12,0.14 -0.25,0.28 -0.37,0.41 -0.53,0.51 -1.04,1.04 -1.53,1.59 -8.13,8.04 -19.3,13 -31.64,13 -24.85,0 -45,-20.15 -45,-45 v -10 -22 -115 0 -3 c 0,-24.85 20.15,-45 45,-45 0.49,0 0.99,0.01 1.48,0.02 0.5,-0.01 1.01,-0.02 1.52,-0.02 z"
     fill="#686767"
     id="path1191"
     style="fill:#b3b3b3" />
  <path
     fill-rule="evenodd"
     clip-rule="evenodd"
     d="m 351.38631,608.5695 c -9.13,-12.05 -23.6,-19.83 -39.88,-19.83 -27.61,0 -50,22.39 -50,50 v 78 c 0,0.2 0,0.4 0,0.6 0,0.3 0,0.6 0,0.9 0,61.03 49.47,110.5 110.5,110.5 h 19 c 61.03,0 110.5,-49.47 110.5,-110.5 0,-1.7 -0.04,-3.4 -0.11,-5.08 0.07,-1.13 0.11,-2.27 0.11,-3.42 v -71 c 0,-27.61 -22.39,-50 -50,-50 -16.28,0 -30.75,7.78 -39.88,19.83 -6.09,10.28 -17.3,17.17 -30.12,17.17 -12.82,0 -24.03,-6.89 -30.12,-17.17 z"
     fill="#686767"
     id="path1195"
     style="fill:#b3b3b3" />
  <path
     fill-rule="evenodd"
     clip-rule="evenodd"
     d="m 350.73631,907.7395 h 61.54 c 9.16,-11.57 23.33,-19 39.23,-19 27.61,0 50,22.39 50,50 v 49 22 39 c 0,44.18 -35.82,80 -80,80 h -80 c -44.18,0 -80,-35.82 -80,-80 v -61 c 0,-0.01 0,-0.02 0,-0.03 v -48.97 c 0,-27.61 22.39,-50 50,-50 15.9,0 30.07,7.43 39.23,19 z"
     fill="#686767"
     id="path1197"
     style="fill:#b3b3b3" />
  <path
     fill-rule="evenodd"
     clip-rule="evenodd"
     d="m 350.90631,1200.7395 h -0.17 c -9.15,-11.57 -23.33,-19 -39.23,-19 -27.61,0 -50,22.39 -50,50 v 49 29 32 c 0,44.18 35.82,80 80,80 h 80 c 44.18,0 80,-35.82 80,-80 v -39 -22 -49 c 0,-27.61 -22.39,-50 -50,-50 -15.9,0 -30.08,7.43 -39.23,19 h -0.17 c -5.98,10.74 -17.44,18 -30.6,18 -13.16,0 -24.62,-7.26 -30.6,-18 z"
     fill="#686767"
     id="path1199"
     style="fill:#b3b3b3" />
  <path
     id="path1201"
     style="fill:#b3b3b3"
     d="m 80,1181.7395 c -44.180004,0 -79.99999983115709,35.82 -79.99999983115709,80 v 39 22 49 c 0,27.61 22.3899998311571,50 49.9999998311571,50 15.900004,0 30.068512,-7.43 39.228516,-19 h 0.169922 c 5.980002,-10.74 17.441562,-18 30.601562,-18 13.16,0 24.61961,7.26 30.59961,18 h 0.16992 c 9.16,11.57 23.33047,19 39.23047,19 27.61,0 50,-22.39 50,-50 v -48.9707 -0.029 -61 c 0,-44.18 -35.82,-80 -80,-80 z m 39.85352,79 a 30,30 0 0 1 0.14648,0 30,30 0 0 1 30,30 30,30 0 0 1 -30,30 30,30 0 0 1 -30,-30 30,30 0 0 1 29.85352,-30 z" />
  <path
     fill-rule="evenodd"
     clip-rule="evenodd"
     d="m 2186.6763,678.6195 c 12.05,-9.13 19.83,-23.6 19.83,-39.88 0,-27.61 -22.39,-50 -50,-50 h -78 c -0.2,0 -0.4,0 -0.6,0 -0.3,0 -0.6,0 -0.9,0 -61.03,0 -110.5,49.47 -110.5,110.5 v 19 c 0,61.03 49.47,110.5 110.5,110.5 1.7,0 3.4,-0.04 5.08,-0.11 1.13,0.07 2.27,0.11 3.42,0.11 h 71 c 27.61,0 50,-22.39 50,-50 0,-16.28 -7.78,-30.75 -19.83,-39.88 -10.28,-6.09 -17.17,-17.3 -17.17,-30.12 0,-12.82 6.89,-24.03 17.17,-30.12 z"
     fill="#686767"
     id="path1203"
     style="fill:#b3b3b3" />
  <path
     fill-rule="evenodd"
     clip-rule="evenodd"
     d="m 2187.5063,978.1395 v -0.17 c 11.57,-9.15 19,-23.33 19,-39.23 0,-27.61 -22.39,-50 -50,-50 h -48.97 -0.03 -29 -32 c -44.18,0 -80,35.82 -80,80 v 80 c 0,44.18 35.82,80 80,80 h 39 22 49 c 27.61,0 50,-22.39 50,-50 0,-15.9 -7.43,-30.07 -19,-39.23 v -0.17 c -10.74,-5.98 -18,-17.44 -18,-30.6 0,-13.16 7.26,-24.62 18,-30.6 z"
     fill="#686767"
     id="path1207"
     style="fill:#b3b3b3" />
  <path
     fill-rule="evenodd"
     clip-rule="evenodd"
     d="m 1949.5062,380.7395 c 0,-44.18 -35.82,-80 -80,-80 -44.18,0 -80,35.82 -80,80 v 80 c 0,44.18 35.82,80 80,80 44.18,0 80,-35.82 80,-80 z m -80,-17 c 16.57,0 30,-13.43 30,-30 0,-16.57 -13.43,-30 -30,-30 -16.57,0 -30,13.43 -30,30 0,16.57 13.43,30 30,30 z"
     fill="#686767"
     id="path1209"
     style="fill:#666666" />
  <rect
     x="769.50629"
     y="588.73944"
     width="240"
     height="240"
     rx="120"
     fill="#686767"
     id="rect1211"
     style="fill:#b3b3b3" />
  <path
     fill-rule="evenodd"
     clip-rule="evenodd"
     d="m 555.50631,588.7395 c -22.09,0 -40,17.91 -40,40 v 80 c 0,22.09 17.91,40 40,40 v 40 c 0,22.09 17.91,40 40,40 h 80 c 22.09,0 40,-17.91 40,-40 v -40 c 22.09,0 40,-17.91 40,-40 v -80 c 0,-22.09 -17.91,-40 -40,-40 h -40 -80 z"
     fill="#686767"
     id="path1215"
     style="fill:#b3b3b3" />
  <path
     d="m 76.546313,620.2395 c 23.089997,-40 80.829997,-40 103.919997,0 l 68.42,118.5 c 23.09,40 -5.78,90 -51.96,90 H 60.086309 c -46.18,0 -75.052,-50 -51.9599997,-90 z"
     fill="#686767"
     id="path1217"
     style="fill:#b3b3b3" />
  <rect
     x="1277.5062"
     y="588.73944"
     width="236"
     height="240"
     rx="118"
     fill="#686767"
     id="rect1219"
     style="fill:#b3b3b3" />
  <rect
     x="588.73944"
     y="-1948.5062"
     width="240"
     height="159"
     rx="79.5"
     transform="rotate(90)"
     fill="#686767"
     id="rect1221"
     style="fill:#b3b3b3" />
  <path
     fill-rule="evenodd"
     clip-rule="evenodd"
     d="m 2244.5063,738.7395 v -13.65 c -12.46,-14.45 -20,-33.27 -20,-53.85 0,-45.56 36.94,-82.5 82.5,-82.5 h 10.5 1 22.5 70.5 1 c 27.61,0 50,22.39 50,50 0,16.8 -8.29,31.67 -21,40.74 v 15.23 c 13.04,14.24 21,33.2 21,54.03 0,44.18 -35.82,80 -80,80 h -14 -39 -13 -18 -24 -5 c -24.85,0 -45,-20.15 -45,-45 0,-0.82 0.02,-1.63 0.06,-2.43 -0.02,-0.48 -0.04,-0.96 -0.05,-1.44 -0.01,-0.37 -0.01,-0.75 -0.01,-1.13 0,-16.36 7.86,-30.88 20,-40 z"
     fill="#686767"
     id="path1223"
     style="fill:#b3b3b3" />
  <path
     fill-rule="evenodd"
     clip-rule="evenodd"
     d="m 2086.5063,300.7395 c 1.27,0 2.54,0.02 3.81,0.06 0.5,-0.03 1.01,-0.05 1.52,-0.05 0.22,-0.01 0.45,-0.01 0.67,-0.01 h 74 c 22.09,0 40,17.91 40,40 v 50 c -16.57,0 -30,13.43 -30,30 0,16.57 13.43,30 30,30 v 50 c 0,22.09 -17.91,40 -40,40 h -74 c -0.74,0 -1.47,-0.02 -2.19,-0.06 -1.27,0.04 -2.54,0.06 -3.81,0.06 -66.27,0 -120,-53.73 -120,-120 0,-66.27 53.73,-120 120,-120 z"
     fill="#686767"
     id="path1225"
     style="fill:#666666" />
  <path
     fill-rule="evenodd"
     clip-rule="evenodd"
     d="m 2206.5063,1381.7395 v -40 -10 c -16.57,0 -30,-13.43 -30,-30 0,-16.57 13.43,-30 30,-30 v -10 -40 c 0,-22.09 -17.91,-40 -40,-40 h -40 -34 -46 c -44.18,0 -80,35.82 -80,80 v 80 c 0,44.18 35.82,80 80,80 h 46 34 40 c 22.09,0 40,-17.91 40,-40 z"
     fill="#686767"
     id="path1227"
     style="fill:#b3b3b3" />
  <path
     fill-rule="evenodd"
     clip-rule="evenodd"
     d="m 1687.5063,585.7395 c 46.39,0 84,37.61 84,84 v 1 38 13 7 60 c 0,22.09 -17.91,40 -40,40 -13.34,0 -25.15,-6.53 -32.42,-16.57 -1.07,-3.16 -4.06,-5.43 -7.58,-5.43 -3.9,0 -7.14,2.79 -7.86,6.48 -7.11,9.43 -18.42,15.52 -31.14,15.52 -12.72,0 -24.03,-6.09 -31.14,-15.52 -0.72,-3.69 -3.96,-6.48 -7.86,-6.48 -3.52,0 -6.51,2.27 -7.58,5.43 -7.27,10.04 -19.08,16.57 -32.42,16.57 -22.09,0 -40,-17.91 -40,-40 v -60 -20 -14 -24 -1 c 0,-46.39 37.61,-84 84,-84 z"
     fill="#686767"
     id="path1231"
     style="fill:#b3b3b3" />
  <path
     fill-rule="evenodd"
     clip-rule="evenodd"
     d="m 381.50631,331.7395 c 16.57,0 30,-13.43 30,-30 0,-0.33 -0.01,-0.67 -0.02,-1 h 50.02 c 22.09,0 40,17.91 40,40 v 92 c 0,1.04 -0.04,2.07 -0.12,3.1 0.08,1.62 0.12,3.26 0.12,4.9 0,55.23 -44.77,100 -100,100 h -40 c -55.23,0 -100,-44.77 -100,-100 0,-1.64 0.04,-3.28 0.12,-4.9 -0.08,-1.03 -0.12,-2.06 -0.12,-3.1 v -92 c 0,-22.09 17.91,-40 40,-40 h 50.02 c -0.01,0.33 -0.02,0.67 -0.02,1 0,16.57 13.43,30 30,30 z"
     fill="#686767"
     id="path1233"
     style="fill:#666666" />
</svg>
