<?xml version="1.0" encoding="UTF-8" standalone="no"?>
<svg
   xmlns:dc="http://purl.org/dc/elements/1.1/"
   xmlns:cc="http://creativecommons.org/ns#"
   xmlns:rdf="http://www.w3.org/1999/02/22-rdf-syntax-ns#"
   xmlns:svg="http://www.w3.org/2000/svg"
   xmlns="http://www.w3.org/2000/svg"
   width="300"
   height="300"
   viewBox="0 0 300 300"
   version="1.1"
   id="svg1032">
  <defs
     id="defs1026" />
  <metadata
     id="metadata1029">
    <rdf:RDF>
      <cc:Work
         rdf:about="">
        <dc:format>image/svg+xml</dc:format>
        <dc:type
           rdf:resource="http://purl.org/dc/dcmitype/StillImage" />
        <dc:title></dc:title>
      </cc:Work>
    </rdf:RDF>
  </metadata>
  <g
     id="layer1">
    <path
       fill-rule="evenodd"
       clip-rule="evenodd"
       d="M 119.88,49.83 C 110.75,37.78 96.28,30 80,30 52.39,30 30,52.39 30,80 v 78 c 0,0.2 0,0.4 0,0.6 0,0.3 0,0.6 0,0.9 0,61.03 49.47,110.5 110.5,110.5 h 19 c 61.03,0 110.5,-49.47 110.5,-110.5 0,-1.7 -0.04,-3.4 -0.11,-5.08 0.07,-1.13 0.11,-2.27 0.11,-3.42 V 80 C 270,52.39 247.61,30 220,30 203.72,30 189.25,37.78 180.12,49.83 174.03,60.11 162.82,67 150,67 137.18,67 125.97,60.11 119.88,49.83 Z"
       
       id="path148"
       style="" />
  </g>
</svg>
