<?xml version="1.0" encoding="UTF-8" standalone="no"?>
<svg
   xmlns:dc="http://purl.org/dc/elements/1.1/"
   xmlns:cc="http://creativecommons.org/ns#"
   xmlns:rdf="http://www.w3.org/1999/02/22-rdf-syntax-ns#"
   xmlns:svg="http://www.w3.org/2000/svg"
   xmlns="http://www.w3.org/2000/svg"
   width="300"
   height="300"
   viewBox="0 0 300 300"
   version="1.1"
   id="svg1032">
  <defs
     id="defs1026" />
  <metadata
     id="metadata1029">
    <rdf:RDF>
      <cc:Work
         rdf:about="">
        <dc:format>image/svg+xml</dc:format>
        <dc:type
           rdf:resource="http://purl.org/dc/dcmitype/StillImage" />
        <dc:title></dc:title>
      </cc:Work>
    </rdf:RDF>
  </metadata>
  <g
     id="layer1">
    <path
       fill-rule="evenodd"
       clip-rule="evenodd"
       d="M 60,30 C 43.43,30 30,43.43 30,60 v 140 11.71 c 11.65,4.12 20,15.23 20,28.29 0,0.43 -0.01,0.86 -0.03,1.28 l 0.06,0.02 C 50.71,257.27 63.87,270 80,270 h 140 c 16.13,0 29.29,-12.73 29.97,-28.7 0.02,0 0.04,-0.01 0.06,-0.02 -0.02,-0.42 -0.03,-0.85 -0.03,-1.28 0,-13.06 8.35,-24.17 20,-28.29 V 200 60 C 270,43.43 256.57,30 240,30 H 220 80 Z"
       
       id="path128"
       style=";fill-opacity:1" />
  </g>
</svg>
