<?xml version="1.0" encoding="UTF-8" standalone="no"?>
<svg
   xmlns:dc="http://purl.org/dc/elements/1.1/"
   xmlns:cc="http://creativecommons.org/ns#"
   xmlns:rdf="http://www.w3.org/1999/02/22-rdf-syntax-ns#"
   xmlns:svg="http://www.w3.org/2000/svg"
   xmlns="http://www.w3.org/2000/svg"
   width="300"
   height="300"
   viewBox="0 0 300 300"
   version="1.1"
   id="svg1032">
  <defs
     id="defs1026" />
  <metadata
     id="metadata1029">
    <rdf:RDF>
      <cc:Work
         rdf:about="">
        <dc:format>image/svg+xml</dc:format>
        <dc:type
           rdf:resource="http://purl.org/dc/dcmitype/StillImage" />
        <dc:title></dc:title>
      </cc:Work>
    </rdf:RDF>
  </metadata>
  <g
     id="layer1">
    <path
       fill-rule="evenodd"
       clip-rule="evenodd"
       d="m 49,180.77 v -15.6 C 37.13,150.88 30,132.52 30,112.5 30,66.94 66.94,30 112.5,30 h 10.5 1 24.5 71.5 c 27.61,0 50,22.39 50,50 0,16.36 -7.86,30.88 -20,40 v 17.08 c 12.45,14.11 20,32.63 20,52.92 0,44.18 -35.82,80 -80,80 H 176 135 122 105 80 79 75 c -24.85,0 -45,-20.15 -45,-45 0,-0.82 0.02,-1.63 0.06,-2.43 C 30.02,221.72 30,220.86 30,220 c 0,-15.9 7.43,-30.08 19,-39.23 z"
       
       id="path104"
       style="" />
  </g>
</svg>
