<svg xmlns="http://www.w3.org/2000/svg" id="SvgjsSvg17146" width="4096" height="1314.8157636559438" version="1.1" xmlns:xlink="http://www.w3.org/1999/xlink" xmlns:svgjs="http://svgjs.com/svgjs"><defs id="SvgjsDefs17147"></defs><rect id="SvgjsRect17148" width="4096" height="1314.8157636559438" fill="#4a4a4a"></rect><g id="SvgjsG17149" transform="translate(328, 328) scale(34.4)" opacity="1"><defs id="SvgjsDefs5884"></defs><g id="SvgjsG5885" transform="scale(0.21645021645021648)" opacity="1"><g id="SvgjsG5886" class="Fuf0LCnfw" transform="translate(-5.618046282253521, -11.938310584512505) scale(1.123592130480945)" light-content="false" non-strokable="false" fill="#ffffff"><path d="M52.598 12.127a2.998 2.998 0 0 0-5.196 0l-42 72.746A3 3 0 0 0 8 89.373h84.02a3 3 0 0 0 2.422-4.772L52.598 12.127zM13.196 83.373L50 19.627l36.804 63.746H13.196z"></path><path d="M47.402 44.127L33.115 68.873a3 3 0 0 0 2.598 4.5h28.594a3 3 0 0 0 2.422-4.772L52.598 44.127a2.998 2.998 0 0 0-5.196 0zm11.689 23.246H40.909L50 51.627l9.091 15.746z"></path></g><g id="SvgjsG5887" class="text" transform="translate(284.5343482937672, 66.32370476329963) scale(1)" light-content="false" fill="#ffffff"><path d="M-152.99 -15.94L-152.99 -13.67C-152.99 -11.45 -153.26 -9.48 -153.79 -7.77C-154.32 -6.06 -155.08 -4.62 -156.06 -3.47C-157.04 -2.31 -158.18 -1.42 -159.49 -0.8C-160.8 -0.18 -162.24 0.13 -163.79 0.13C-166.02 0.13 -167.79 -0.4 -169.13 -1.47C-169.88 -2 -170.44 -2.75 -170.8 -3.7C-171.15 -4.66 -171.33 -5.69 -171.33 -6.8C-171.33 -8.63 -170.86 -10.19 -169.93 -11.5C-168.99 -12.82 -167.59 -13.81 -165.73 -14.47C-164.44 -14.96 -162.83 -15.35 -160.89 -15.64C-158.96 -15.93 -156.75 -16.03 -154.26 -15.94ZM-172 -27.61C-170.4 -28.59 -168.71 -29.29 -166.93 -29.71C-165.15 -30.13 -163.26 -30.34 -161.26 -30.34C-158.28 -30.34 -156.16 -29.61 -154.89 -28.14C-153.62 -26.68 -152.99 -24.54 -152.99 -21.74L-152.99 -19.74L-153.86 -19.74C-160.48 -19.74 -165.39 -19.16 -168.59 -18.01C-171.22 -17.03 -173.16 -15.56 -174.43 -13.6C-175.7 -11.65 -176.33 -9.31 -176.33 -6.6C-176.33 -5.45 -176.15 -4.28 -175.8 -3.1C-175.44 -1.92 -174.91 -0.89 -174.2 0C-172.11 2.62 -168.82 3.93 -164.33 3.93C-161.75 3.93 -159.36 3.31 -157.16 2.07C-154.96 0.82 -153.39 -0.93 -152.46 -3.2L-152.46 1.93C-152.46 2.56 -152.14 2.87 -151.52 2.87L-149.12 2.87C-148.5 2.87 -148.19 2.56 -148.19 1.93C-148.28 0.96 -148.34 -0.06 -148.39 -1.1C-148.43 -2.15 -148.45 -3.33 -148.45 -4.67L-148.45 -21.41C-148.45 -25.68 -149.48 -28.87 -151.52 -30.98C-153.57 -33.09 -156.81 -34.15 -161.26 -34.15C-163.35 -34.15 -165.27 -33.98 -167.03 -33.65C-168.78 -33.31 -170.44 -32.72 -172 -31.88C-172.62 -31.57 -172.93 -31.1 -172.93 -30.48L-172.93 -27.94C-172.93 -27.72 -172.83 -27.58 -172.63 -27.51C-172.43 -27.44 -172.22 -27.48 -172 -27.61Z M-108.51 1.93C-108.55 0.78 -108.58 -0.38 -108.61 -1.53C-108.63 -2.69 -108.64 -4 -108.64 -5.47L-108.64 -32.28C-108.64 -32.9 -108.95 -33.21 -109.57 -33.21L-112.24 -33.21C-112.86 -33.21 -113.17 -32.9 -113.17 -32.28L-113.17 -13.74C-113.13 -11.87 -113.35 -10.09 -113.84 -8.4C-114.33 -6.71 -115.04 -5.24 -115.98 -3.97C-116.91 -2.7 -118.05 -1.7 -119.41 -0.97C-120.77 -0.23 -122.29 0.13 -123.98 0.13C-129.76 0.13 -132.65 -3.65 -132.65 -11.2L-132.65 -32.28C-132.65 -32.9 -132.96 -33.21 -133.58 -33.21L-136.25 -33.21C-136.87 -33.21 -137.18 -32.9 -137.18 -32.28L-137.18 -10C-137.18 -0.71 -133.03 3.93 -124.71 3.93C-121.78 3.93 -119.34 3.35 -117.41 2.17C-115.48 0.99 -113.93 -0.93 -112.77 -3.6L-112.77 1.93C-112.77 2.56 -112.46 2.87 -111.84 2.87L-109.44 2.87C-108.82 2.87 -108.51 2.56 -108.51 1.93Z M-79.96 2.93C-79.34 2.67 -79.07 2.22 -79.16 1.6L-79.3 -0.13C-79.3 -0.4 -79.4 -0.58 -79.6 -0.67C-79.8 -0.76 -80.01 -0.76 -80.23 -0.67C-81.79 -0.13 -83.19 0.13 -84.43 0.13C-87.63 0.13 -89.23 -1.85 -89.23 -5.8L-89.23 -29.34L-81.83 -29.34C-81.21 -29.34 -80.9 -29.66 -80.9 -30.28L-80.9 -32.28C-80.9 -32.9 -81.21 -33.21 -81.83 -33.21L-89.23 -33.21L-89.23 -42.22C-89.23 -42.88 -89.52 -43.22 -90.1 -43.22L-92.9 -43.22C-93.48 -43.22 -93.77 -42.88 -93.77 -42.22L-93.77 -33.21L-100.04 -33.21C-100.66 -33.21 -100.97 -32.9 -100.97 -32.28L-100.97 -30.28C-100.97 -29.66 -100.66 -29.34 -100.04 -29.34L-93.77 -29.34L-93.77 -8.07C-93.77 -4.02 -93.39 -1.2 -92.63 0.4C-91.48 2.76 -89.1 3.93 -85.5 3.93C-83.67 3.93 -81.83 3.6 -79.96 2.93Z M-46.15 -15.14C-46.15 -13 -46.43 -11.03 -46.98 -9.2C-47.54 -7.38 -48.31 -5.78 -49.28 -4.4C-50.44 -3.02 -51.76 -1.96 -53.25 -1.2C-54.74 -0.44 -56.42 -0.07 -58.29 -0.07C-61.93 -0.07 -64.93 -1.51 -67.29 -4.4C-68.31 -5.78 -69.1 -7.38 -69.66 -9.2C-70.21 -11.03 -70.49 -13 -70.49 -15.14C-70.49 -17.23 -70.21 -19.18 -69.66 -21.01C-69.1 -22.83 -68.31 -24.45 -67.29 -25.88C-66.14 -27.25 -64.81 -28.31 -63.32 -29.04C-61.83 -29.78 -60.16 -30.14 -58.29 -30.14C-54.6 -30.14 -51.6 -28.72 -49.28 -25.88C-48.31 -24.45 -47.54 -22.83 -46.98 -21.01C-46.43 -19.18 -46.15 -17.23 -46.15 -15.14ZM-41.22 -15.14C-41.22 -20.43 -42.59 -24.83 -45.35 -28.34C-46.91 -30.3 -48.75 -31.76 -50.89 -32.71C-53.02 -33.67 -55.49 -34.15 -58.29 -34.15C-63.85 -34.15 -68.18 -32.21 -71.29 -28.34C-74 -24.92 -75.36 -20.52 -75.36 -15.14C-75.36 -12.52 -74.99 -10.08 -74.26 -7.84C-73.53 -5.59 -72.54 -3.62 -71.29 -1.93C-69.74 -0.07 -67.87 1.38 -65.69 2.4C-63.51 3.42 -61.04 3.93 -58.29 3.93C-55.53 3.93 -53.07 3.42 -50.92 2.4C-48.76 1.38 -46.91 -0.07 -45.35 -1.93C-44.1 -3.62 -43.1 -5.59 -42.35 -7.84C-41.59 -10.08 -41.22 -12.52 -41.22 -15.14Z M-3.6 1.93L-3.6 -20.14C-3.6 -24.59 -4.67 -28.03 -6.8 -30.48C-8.94 -32.92 -12.12 -34.15 -16.34 -34.15C-19.41 -34.15 -21.82 -33.7 -23.58 -32.81C-25.33 -31.92 -26.83 -30.52 -28.08 -28.61L-28.08 -32.28C-28.08 -32.9 -28.39 -33.21 -29.01 -33.21L-31.41 -33.21C-31.68 -33.21 -31.91 -33.13 -32.11 -32.98C-32.31 -32.82 -32.39 -32.59 -32.35 -32.28C-32.26 -31.3 -32.2 -30.28 -32.18 -29.21C-32.16 -28.14 -32.15 -26.65 -32.15 -24.74L-32.15 1.93C-32.15 2.56 -31.83 2.87 -31.21 2.87L-28.54 2.87C-27.92 2.87 -27.61 2.56 -27.61 1.93L-27.61 -18.94C-27.61 -22.54 -26.67 -25.34 -24.78 -27.34C-22.89 -29.34 -20.14 -30.34 -16.54 -30.34C-13.87 -30.34 -11.8 -29.49 -10.34 -27.78C-8.87 -26.07 -8.14 -23.16 -8.14 -19.07L-8.14 1.93C-8.14 2.56 -7.83 2.87 -7.2 2.87L-4.53 2.87C-3.91 2.87 -3.6 2.56 -3.6 1.93Z M34.68 -15.14C34.68 -13 34.4 -11.03 33.85 -9.2C33.29 -7.38 32.52 -5.78 31.54 -4.4C30.39 -3.02 29.07 -1.96 27.58 -1.2C26.09 -0.44 24.41 -0.07 22.54 -0.07C18.9 -0.07 15.89 -1.51 13.54 -4.4C12.52 -5.78 11.73 -7.38 11.17 -9.2C10.61 -11.03 10.34 -13 10.34 -15.14C10.34 -17.23 10.61 -19.18 11.17 -21.01C11.73 -22.83 12.52 -24.45 13.54 -25.88C14.69 -27.25 16.02 -28.31 17.51 -29.04C19 -29.78 20.67 -30.14 22.54 -30.14C26.23 -30.14 29.23 -28.72 31.54 -25.88C32.52 -24.45 33.29 -22.83 33.85 -21.01C34.4 -19.18 34.68 -17.23 34.68 -15.14ZM39.61 -15.14C39.61 -20.43 38.24 -24.83 35.48 -28.34C33.92 -30.3 32.08 -31.76 29.94 -32.71C27.81 -33.67 25.34 -34.15 22.54 -34.15C16.98 -34.15 12.65 -32.21 9.54 -28.34C6.82 -24.92 5.47 -20.52 5.47 -15.14C5.47 -12.52 5.84 -10.08 6.57 -7.84C7.3 -5.59 8.29 -3.62 9.54 -1.93C11.09 -0.07 12.96 1.38 15.14 2.4C17.32 3.42 19.78 3.93 22.54 3.93C25.3 3.93 27.75 3.42 29.91 2.4C32.07 1.38 33.92 -0.07 35.48 -1.93C36.72 -3.62 37.72 -5.59 38.48 -7.84C39.24 -10.08 39.61 -12.52 39.61 -15.14Z M48.75 -24.74L48.75 1.93C48.75 2.56 49.06 2.87 49.68 2.87L52.29 2.87C52.91 2.87 53.22 2.56 53.22 1.93L53.22 -19.54C53.22 -22.74 54.09 -25.32 55.82 -27.28C57.55 -29.23 59.93 -30.21 62.96 -30.21C68.11 -30.21 70.69 -27.17 70.69 -21.07L70.69 1.93C70.69 2.56 71 2.87 71.63 2.87L74.29 2.87C74.92 2.87 75.23 2.56 75.23 1.93L75.23 -17.07C75.18 -18.85 75.37 -20.54 75.79 -22.14C76.22 -23.74 76.86 -25.14 77.73 -26.34C78.6 -27.54 79.64 -28.49 80.86 -29.18C82.09 -29.87 83.47 -30.21 85.03 -30.21C90.14 -30.21 92.7 -27.17 92.7 -21.07L92.7 2C92.7 2.58 93.01 2.87 93.63 2.87L96.17 2.87C96.79 2.87 97.1 2.56 97.1 1.93L97.1 -22.01C97.1 -23.65 96.84 -25.21 96.3 -26.68C95.77 -28.14 95 -29.42 94 -30.51C93 -31.6 91.8 -32.46 90.4 -33.08C89 -33.7 87.43 -34.01 85.7 -34.01C82.99 -34.01 80.6 -33.36 78.53 -32.05C76.46 -30.73 74.96 -28.81 74.03 -26.28C73.58 -28.81 72.36 -30.73 70.36 -32.05C68.36 -33.36 66.02 -34.01 63.36 -34.01C60.82 -34.01 58.69 -33.53 56.95 -32.58C55.22 -31.62 53.84 -30.32 52.82 -28.68L52.82 -32.28C52.82 -32.9 52.51 -33.21 51.89 -33.21L49.42 -33.21C48.8 -33.21 48.48 -32.9 48.48 -32.28C48.57 -31.3 48.64 -30.27 48.68 -29.18C48.73 -28.09 48.75 -26.61 48.75 -24.74Z M113.04 2.87C113.66 2.87 113.97 2.56 113.97 1.93L113.97 -32.28C113.97 -32.9 113.66 -33.21 113.04 -33.21L110.11 -33.21C109.48 -33.21 109.17 -32.9 109.17 -32.28L109.17 1.93C109.17 2.56 109.48 2.87 110.11 2.87ZM108.31 -45.82C108.31 -44.93 108.62 -44.17 109.24 -43.55C109.86 -42.93 110.62 -42.62 111.51 -42.62C112.4 -42.62 113.16 -42.93 113.81 -43.55C114.45 -44.17 114.78 -44.93 114.78 -45.82C114.78 -46.71 114.45 -47.47 113.81 -48.12C113.16 -48.76 112.4 -49.08 111.51 -49.08C110.62 -49.08 109.86 -48.76 109.24 -48.12C108.62 -47.47 108.31 -46.71 108.31 -45.82Z M148.52 3.13C149.19 3 149.5 2.6 149.45 1.93L149.25 -0.53C149.21 -1.02 148.85 -1.18 148.19 -1C146.9 -0.64 145.74 -0.4 144.72 -0.27C143.7 -0.13 142.41 -0.07 140.85 -0.07C138.76 -0.07 136.91 -0.48 135.28 -1.3C133.66 -2.12 132.28 -3.23 131.15 -4.64C130.01 -6.04 129.15 -7.65 128.55 -9.47C127.95 -11.29 127.65 -13.2 127.65 -15.21C127.65 -17.38 127.94 -19.4 128.51 -21.24C129.09 -23.09 129.96 -24.68 131.11 -26.01C132.27 -27.34 133.7 -28.38 135.42 -29.11C137.13 -29.84 139.12 -30.21 141.38 -30.21C142.67 -30.21 143.85 -30.13 144.92 -29.98C145.99 -29.82 147.1 -29.57 148.25 -29.21C148.83 -29.08 149.17 -29.28 149.25 -29.81L149.45 -31.94C149.5 -32.61 149.21 -33.03 148.59 -33.21C147.21 -33.52 145.92 -33.73 144.72 -33.85C143.52 -33.96 142.19 -34.01 140.72 -34.01C137.96 -34.01 135.48 -33.53 133.28 -32.58C131.08 -31.62 129.19 -30.31 127.61 -28.64C126.03 -26.98 124.82 -25 123.98 -22.71C123.13 -20.42 122.71 -17.92 122.71 -15.21C122.71 -12.54 123.11 -10.05 123.91 -7.74C124.71 -5.42 125.86 -3.42 127.35 -1.73C128.84 -0.04 130.66 1.29 132.82 2.27C134.97 3.25 137.43 3.73 140.18 3.73C141.92 3.73 143.41 3.69 144.65 3.6C145.9 3.51 147.19 3.36 148.52 3.13Z M155.86 -1.53C155.23 -1.8 154.88 -1.58 154.79 -0.87L154.52 1.6C154.48 2.18 154.77 2.58 155.39 2.8C156.19 3.02 156.95 3.2 157.66 3.33C158.37 3.47 159.07 3.58 159.76 3.67C160.45 3.76 161.18 3.82 161.96 3.87C162.74 3.91 163.62 3.93 164.59 3.93C166.24 3.93 167.84 3.72 169.4 3.3C170.95 2.88 172.33 2.25 173.53 1.4C174.73 0.56 175.69 -0.51 176.4 -1.8C177.11 -3.09 177.46 -4.62 177.46 -6.4C177.46 -8.23 177.01 -9.91 176.1 -11.47C175.19 -13.03 174.04 -14.18 172.66 -14.94C171.06 -15.83 169.57 -16.59 168.19 -17.24C166.82 -17.88 165.42 -18.56 163.99 -19.27C162.35 -20.07 161.18 -20.87 160.49 -21.67C159.8 -22.47 159.46 -23.32 159.46 -24.21C159.46 -28.3 162.04 -30.34 167.19 -30.34C168.75 -30.34 170.08 -30.27 171.2 -30.11C172.31 -29.96 173.42 -29.68 174.53 -29.28C174.75 -29.19 174.97 -29.19 175.2 -29.28C175.42 -29.37 175.55 -29.59 175.6 -29.94L175.8 -31.94C175.84 -32.26 175.76 -32.5 175.56 -32.68C175.36 -32.86 175.13 -32.99 174.86 -33.08C173.62 -33.43 172.37 -33.7 171.13 -33.88C169.88 -34.06 168.42 -34.15 166.73 -34.15C165.13 -34.15 163.62 -33.95 162.19 -33.55C160.77 -33.15 159.52 -32.52 158.46 -31.68C157.39 -30.83 156.55 -29.79 155.92 -28.54C155.3 -27.3 154.99 -25.85 154.99 -24.21C154.99 -22.79 155.37 -21.42 156.12 -20.11C156.88 -18.8 158.06 -17.7 159.66 -16.81C160.99 -16.05 162.38 -15.33 163.83 -14.64C165.27 -13.95 166.68 -13.23 168.06 -12.47C169.31 -11.76 170.36 -10.86 171.23 -9.77C172.1 -8.68 172.53 -7.56 172.53 -6.4C172.53 -4.4 171.75 -2.81 170.2 -1.63C168.64 -0.46 166.66 0.13 164.26 0.13C161.37 0.13 158.57 -0.42 155.86 -1.53Z"></path></g></g></g></svg>