<svg xmlns="http://www.w3.org/2000/svg" id="SvgjsSvg27184" width="4096" height="1314.8157636559438" version="1.1" xmlns:xlink="http://www.w3.org/1999/xlink" xmlns:svgjs="http://svgjs.com/svgjs"><defs id="SvgjsDefs27185"></defs><g id="SvgjsG27186" transform="translate(328, 328) scale(34.4)" opacity="1"><defs id="SvgjsDefs9214"></defs><g id="SvgjsG9215" transform="scale(0.17821329840462527)" opacity="1"><g id="SvgjsG9216" class="9uImNTBtY" transform="translate(-6.823437671077581, -14.499759182957689) scale(1.3646667337483527)" light-content="false" non-strokable="false" fill="#363636"><path d="M52.598 12.127a2.998 2.998 0 0 0-5.196 0l-42 72.746A3 3 0 0 0 8 89.373h84.02a3 3 0 0 0 2.422-4.772L52.598 12.127zM13.196 83.373L50 19.627l36.804 63.746H13.196z"></path><path d="M47.402 44.127L33.115 68.873a3 3 0 0 0 2.598 4.5h28.594a3 3 0 0 0 2.422-4.772L52.598 44.127a2.998 2.998 0 0 0-5.196 0zm11.689 23.246H40.909L50 51.627l9.091 15.746z"></path></g><g id="SvgjsG9217" class="text" transform="translate(345.58035313136133, 80.56346304025854) scale(1)" light-content="false" fill="#363636"><path d="M-185.81 -19.36L-185.81 -16.6C-185.81 -13.91 -186.14 -11.52 -186.79 -9.44C-187.43 -7.36 -188.35 -5.62 -189.54 -4.21C-190.73 -2.81 -192.12 -1.73 -193.71 -0.97C-195.3 -0.22 -197.05 0.16 -198.94 0.16C-201.64 0.16 -203.8 -0.49 -205.42 -1.78C-206.33 -2.43 -207.01 -3.33 -207.44 -4.5C-207.87 -5.66 -208.09 -6.91 -208.09 -8.26C-208.09 -10.48 -207.52 -12.38 -206.39 -13.97C-205.25 -15.57 -203.55 -16.77 -201.28 -17.58C-199.72 -18.17 -197.76 -18.64 -195.41 -18.99C-193.06 -19.35 -190.38 -19.47 -187.35 -19.36ZM-208.9 -33.53C-206.95 -34.72 -204.9 -35.57 -202.74 -36.09C-200.58 -36.6 -198.29 -36.86 -195.86 -36.86C-192.24 -36.86 -189.66 -35.96 -188.12 -34.18C-186.58 -32.4 -185.81 -29.81 -185.81 -26.41L-185.81 -23.98L-186.87 -23.98C-194.91 -23.98 -200.88 -23.27 -204.77 -21.87C-207.95 -20.68 -210.32 -18.9 -211.86 -16.52C-213.39 -14.15 -214.16 -11.31 -214.16 -8.02C-214.16 -6.61 -213.95 -5.2 -213.52 -3.77C-213.08 -2.34 -212.44 -1.08 -211.57 0C-209.03 3.19 -205.04 4.78 -199.58 4.78C-196.45 4.78 -193.55 4.02 -190.88 2.51C-188.2 1 -186.3 -1.13 -185.17 -3.89L-185.17 2.35C-185.17 3.1 -184.79 3.48 -184.03 3.48L-181.12 3.48C-180.36 3.48 -179.98 3.1 -179.98 2.35C-180.09 1.16 -180.17 -0.07 -180.22 -1.34C-180.28 -2.61 -180.31 -4.05 -180.31 -5.67L-180.31 -26C-180.31 -31.18 -181.55 -35.06 -184.03 -37.62C-186.52 -40.19 -190.46 -41.47 -195.86 -41.47C-198.4 -41.47 -200.73 -41.27 -202.86 -40.86C-205 -40.46 -207.01 -39.74 -208.9 -38.72C-209.66 -38.34 -210.03 -37.77 -210.03 -37.02L-210.03 -33.94C-210.03 -33.67 -209.91 -33.49 -209.67 -33.41C-209.43 -33.33 -209.17 -33.37 -208.9 -33.53Z M-131.79 2.35C-131.84 0.95 -131.88 -0.46 -131.91 -1.86C-131.94 -3.27 -131.95 -4.86 -131.95 -6.64L-131.95 -39.2C-131.95 -39.96 -132.33 -40.34 -133.08 -40.34L-136.32 -40.34C-137.08 -40.34 -137.46 -39.96 -137.46 -39.2L-137.46 -16.69C-137.4 -14.42 -137.67 -12.26 -138.27 -10.21C-138.86 -8.15 -139.72 -6.36 -140.86 -4.82C-141.99 -3.28 -143.38 -2.07 -145.03 -1.17C-146.68 -0.28 -148.53 0.16 -150.58 0.16C-157.6 0.16 -161.11 -4.43 -161.11 -13.61L-161.11 -39.2C-161.11 -39.96 -161.49 -40.34 -162.24 -40.34L-165.48 -40.34C-166.24 -40.34 -166.62 -39.96 -166.62 -39.2L-166.62 -12.15C-166.62 -0.86 -161.57 4.78 -151.47 4.78C-147.91 4.78 -144.95 4.06 -142.6 2.63C-140.25 1.2 -138.38 -1.13 -136.97 -4.37L-136.97 2.35C-136.97 3.1 -136.59 3.48 -135.84 3.48L-132.92 3.48C-132.17 3.48 -131.79 3.1 -131.79 2.35Z M-97.12 3.56C-96.36 3.24 -96.04 2.7 -96.15 1.94L-96.31 -0.16C-96.31 -0.49 -96.43 -0.7 -96.67 -0.81C-96.92 -0.92 -97.17 -0.92 -97.44 -0.81C-99.33 -0.16 -101.03 0.16 -102.55 0.16C-106.43 0.16 -108.38 -2.24 -108.38 -7.05L-108.38 -35.64L-99.39 -35.64C-98.63 -35.64 -98.25 -36.02 -98.25 -36.77L-98.25 -39.2C-98.25 -39.96 -98.63 -40.34 -99.39 -40.34L-108.38 -40.34L-108.38 -51.27C-108.38 -52.08 -108.73 -52.49 -109.43 -52.49L-112.83 -52.49C-113.54 -52.49 -113.89 -52.08 -113.89 -51.27L-113.89 -40.34L-121.5 -40.34C-122.26 -40.34 -122.63 -39.96 -122.63 -39.2L-122.63 -36.77C-122.63 -36.02 -122.26 -35.64 -121.5 -35.64L-113.89 -35.64L-113.89 -9.8C-113.89 -4.89 -113.43 -1.46 -112.51 0.49C-111.11 3.35 -108.22 4.78 -103.84 4.78C-101.63 4.78 -99.39 4.37 -97.12 3.56Z M-56.05 -18.39C-56.05 -15.79 -56.39 -13.39 -57.06 -11.18C-57.74 -8.96 -58.67 -7.02 -59.86 -5.35C-61.26 -3.67 -62.87 -2.38 -64.68 -1.46C-66.49 -0.54 -68.53 -0.08 -70.79 -0.08C-75.22 -0.08 -78.87 -1.84 -81.73 -5.35C-82.97 -7.02 -83.93 -8.96 -84.6 -11.18C-85.28 -13.39 -85.62 -15.79 -85.62 -18.39C-85.62 -20.93 -85.28 -23.3 -84.6 -25.51C-83.93 -27.73 -82.97 -29.7 -81.73 -31.43C-80.33 -33.1 -78.72 -34.38 -76.91 -35.28C-75.1 -36.17 -73.06 -36.61 -70.79 -36.61C-66.31 -36.61 -62.67 -34.88 -59.86 -31.43C-58.67 -29.7 -57.74 -27.73 -57.06 -25.51C-56.39 -23.3 -56.05 -20.93 -56.05 -18.39ZM-50.06 -18.39C-50.06 -24.81 -51.73 -30.16 -55.08 -34.43C-56.97 -36.8 -59.21 -38.57 -61.8 -39.73C-64.4 -40.89 -67.39 -41.47 -70.79 -41.47C-77.54 -41.47 -82.81 -39.12 -86.59 -34.43C-89.88 -30.27 -91.53 -24.92 -91.53 -18.39C-91.53 -15.2 -91.08 -12.24 -90.19 -9.52C-89.3 -6.79 -88.1 -4.4 -86.59 -2.35C-84.7 -0.08 -82.43 1.67 -79.79 2.92C-77.14 4.16 -74.14 4.78 -70.79 4.78C-67.45 4.78 -64.46 4.16 -61.84 2.92C-59.22 1.67 -56.97 -0.08 -55.08 -2.35C-53.57 -4.4 -52.35 -6.79 -51.44 -9.52C-50.52 -12.24 -50.06 -15.2 -50.06 -18.39Z M-4.37 2.35L-4.37 -24.46C-4.37 -29.86 -5.67 -34.05 -8.26 -37.02C-10.85 -39.99 -14.71 -41.47 -19.84 -41.47C-23.57 -41.47 -26.5 -40.93 -28.63 -39.85C-30.77 -38.77 -32.59 -37.07 -34.1 -34.75L-34.1 -39.2C-34.1 -39.96 -34.48 -40.34 -35.23 -40.34L-38.15 -40.34C-38.47 -40.34 -38.76 -40.24 -39 -40.05C-39.24 -39.87 -39.34 -39.58 -39.28 -39.2C-39.18 -38.02 -39.11 -36.77 -39.08 -35.48C-39.06 -34.18 -39.04 -32.37 -39.04 -30.05L-39.04 2.35C-39.04 3.1 -38.66 3.48 -37.91 3.48L-34.67 3.48C-33.91 3.48 -33.53 3.1 -33.53 2.35L-33.53 -23C-33.53 -27.38 -32.39 -30.78 -30.09 -33.21C-27.8 -35.64 -24.46 -36.86 -20.09 -36.86C-16.85 -36.86 -14.34 -35.82 -12.55 -33.74C-10.77 -31.66 -9.88 -28.13 -9.88 -23.17L-9.88 2.35C-9.88 3.1 -9.5 3.48 -8.75 3.48L-5.51 3.48C-4.75 3.48 -4.37 3.1 -4.37 2.35Z M42.12 -18.39C42.12 -15.79 41.78 -13.39 41.11 -11.18C40.43 -8.96 39.5 -7.02 38.31 -5.35C36.91 -3.67 35.3 -2.38 33.49 -1.46C31.68 -0.54 29.65 -0.08 27.38 -0.08C22.95 -0.08 19.3 -1.84 16.44 -5.35C15.2 -7.02 14.24 -8.96 13.57 -11.18C12.89 -13.39 12.56 -15.79 12.56 -18.39C12.55 -20.93 12.89 -23.3 13.57 -25.51C14.24 -27.73 15.2 -29.7 16.44 -31.43C17.85 -33.1 19.45 -34.38 21.26 -35.28C23.07 -36.17 25.11 -36.61 27.38 -36.61C31.86 -36.61 35.51 -34.88 38.31 -31.43C39.5 -29.7 40.43 -27.73 41.11 -25.51C41.78 -23.3 42.12 -20.93 42.12 -18.39ZM48.11 -18.39C48.11 -24.81 46.44 -30.16 43.09 -34.43C41.2 -36.8 38.96 -38.57 36.37 -39.73C33.78 -40.89 30.78 -41.47 27.38 -41.47C20.63 -41.47 15.36 -39.12 11.58 -34.43C8.29 -30.27 6.64 -24.92 6.64 -18.39C6.64 -15.2 7.09 -12.24 7.98 -9.52C8.87 -6.79 10.07 -4.4 11.58 -2.35C13.47 -0.08 15.74 1.67 18.39 2.92C21.03 4.16 24.03 4.78 27.38 4.78C30.73 4.78 33.71 4.16 36.33 2.92C38.95 1.67 41.2 -0.08 43.09 -2.35C44.6 -4.4 45.82 -6.79 46.74 -9.52C47.65 -12.24 48.11 -15.2 48.11 -18.39Z M59.21 -30.05L59.21 2.35C59.21 3.1 59.59 3.48 60.35 3.48L63.5 3.48C64.26 3.48 64.64 3.1 64.64 2.35L64.64 -23.73C64.64 -27.62 65.69 -30.75 67.8 -33.13C69.9 -35.51 72.79 -36.69 76.46 -36.69C82.73 -36.69 85.86 -32.99 85.86 -25.6L85.86 2.35C85.86 3.1 86.24 3.48 86.99 3.48L90.23 3.48C90.99 3.48 91.37 3.1 91.37 2.35L91.37 -20.74C91.31 -22.9 91.54 -24.95 92.06 -26.89C92.57 -28.84 93.35 -30.54 94.41 -31.99C95.46 -33.45 96.73 -34.6 98.21 -35.44C99.7 -36.27 101.38 -36.69 103.28 -36.69C109.49 -36.69 112.59 -32.99 112.59 -25.6L112.59 2.43C112.59 3.13 112.97 3.48 113.72 3.48L116.8 3.48C117.56 3.48 117.94 3.1 117.94 2.35L117.94 -26.73C117.94 -28.73 117.61 -30.62 116.96 -32.4C116.32 -34.18 115.38 -35.73 114.17 -37.06C112.95 -38.38 111.5 -39.42 109.8 -40.18C108.09 -40.93 106.19 -41.31 104.09 -41.31C100.79 -41.31 97.89 -40.51 95.38 -38.92C92.87 -37.33 91.04 -34.99 89.91 -31.91C89.37 -34.99 87.89 -37.33 85.46 -38.92C83.03 -40.51 80.19 -41.31 76.95 -41.31C73.87 -41.31 71.28 -40.73 69.17 -39.57C67.07 -38.41 65.39 -36.83 64.15 -34.83L64.15 -39.2C64.15 -39.96 63.77 -40.34 63.02 -40.34L60.02 -40.34C59.26 -40.34 58.89 -39.96 58.89 -39.2C59 -38.02 59.08 -36.76 59.13 -35.44C59.18 -34.11 59.21 -32.32 59.21 -30.05Z M137.29 3.48C138.05 3.48 138.43 3.1 138.43 2.35L138.43 -39.2C138.43 -39.96 138.05 -40.34 137.29 -40.34L133.73 -40.34C132.97 -40.34 132.6 -39.96 132.6 -39.2L132.6 2.35C132.6 3.1 132.97 3.48 133.73 3.48ZM131.54 -55.65C131.54 -54.57 131.92 -53.65 132.68 -52.89C133.43 -52.14 134.35 -51.76 135.43 -51.76C136.51 -51.76 137.44 -52.14 138.23 -52.89C139.01 -53.65 139.4 -54.57 139.4 -55.65C139.4 -56.73 139.01 -57.66 138.23 -58.44C137.44 -59.22 136.51 -59.62 135.43 -59.62C134.35 -59.62 133.43 -59.22 132.68 -58.44C131.92 -57.66 131.54 -56.73 131.54 -55.65Z M180.39 3.81C181.2 3.65 181.57 3.16 181.52 2.35L181.28 -0.65C181.22 -1.24 180.79 -1.43 179.98 -1.22C178.42 -0.78 177.01 -0.49 175.77 -0.32C174.53 -0.16 172.96 -0.08 171.07 -0.08C168.53 -0.08 166.28 -0.58 164.31 -1.58C162.34 -2.58 160.66 -3.93 159.29 -5.63C157.91 -7.33 156.86 -9.29 156.13 -11.5C155.4 -13.72 155.03 -16.04 155.03 -18.47C155.03 -21.11 155.38 -23.56 156.09 -25.8C156.79 -28.04 157.84 -29.97 159.25 -31.59C160.65 -33.21 162.39 -34.47 164.47 -35.36C166.55 -36.25 168.97 -36.69 171.72 -36.69C173.29 -36.69 174.72 -36.6 176.01 -36.41C177.31 -36.22 178.66 -35.91 180.06 -35.48C180.76 -35.32 181.17 -35.56 181.28 -36.21L181.52 -38.8C181.58 -39.61 181.22 -40.12 180.47 -40.34C178.79 -40.72 177.23 -40.97 175.77 -41.11C174.31 -41.24 172.69 -41.31 170.91 -41.31C167.56 -41.31 164.55 -40.73 161.88 -39.57C159.21 -38.41 156.91 -36.81 154.99 -34.79C153.08 -32.76 151.6 -30.36 150.58 -27.58C149.55 -24.8 149.04 -21.76 149.04 -18.47C149.04 -15.23 149.53 -12.2 150.5 -9.4C151.47 -6.59 152.86 -4.16 154.67 -2.11C156.48 -0.05 158.69 1.57 161.31 2.75C163.93 3.94 166.91 4.54 170.26 4.54C172.37 4.54 174.18 4.48 175.69 4.37C177.2 4.27 178.77 4.08 180.39 3.81Z M189.3 -1.86C188.54 -2.19 188.11 -1.92 188 -1.05L187.68 1.94C187.62 2.65 187.97 3.13 188.73 3.4C189.7 3.67 190.62 3.89 191.48 4.05C192.35 4.21 193.2 4.35 194.04 4.46C194.87 4.56 195.76 4.64 196.71 4.7C197.65 4.75 198.72 4.78 199.91 4.78C201.91 4.78 203.85 4.52 205.74 4.01C207.63 3.5 209.3 2.73 210.76 1.7C212.22 0.67 213.38 -0.62 214.25 -2.19C215.11 -3.75 215.54 -5.62 215.54 -7.78C215.54 -9.99 214.99 -12.04 213.88 -13.93C212.77 -15.82 211.38 -17.23 209.71 -18.14C207.77 -19.22 205.96 -20.16 204.28 -20.94C202.61 -21.72 200.91 -22.54 199.18 -23.41C197.18 -24.38 195.76 -25.35 194.93 -26.32C194.09 -27.3 193.67 -28.32 193.67 -29.4C193.67 -34.37 196.8 -36.86 203.07 -36.86C204.96 -36.86 206.58 -36.76 207.93 -36.57C209.28 -36.38 210.63 -36.04 211.98 -35.56C212.25 -35.45 212.52 -35.45 212.79 -35.56C213.06 -35.67 213.22 -35.94 213.27 -36.37L213.52 -38.8C213.57 -39.18 213.48 -39.47 213.23 -39.69C212.99 -39.91 212.71 -40.07 212.38 -40.18C210.87 -40.61 209.36 -40.93 207.85 -41.15C206.33 -41.36 204.55 -41.47 202.5 -41.47C200.56 -41.47 198.72 -41.23 196.99 -40.74C195.26 -40.26 193.75 -39.5 192.46 -38.47C191.16 -37.45 190.13 -36.18 189.38 -34.67C188.62 -33.16 188.24 -31.4 188.24 -29.4C188.24 -27.67 188.7 -26.01 189.62 -24.42C190.54 -22.83 191.97 -21.49 193.91 -20.41C195.53 -19.49 197.22 -18.62 198.98 -17.78C200.73 -16.94 202.45 -16.06 204.12 -15.15C205.63 -14.28 206.91 -13.19 207.97 -11.87C209.02 -10.54 209.55 -9.18 209.55 -7.78C209.55 -5.35 208.6 -3.42 206.71 -1.98C204.82 -0.55 202.42 0.16 199.5 0.16C195.99 0.16 192.59 -0.51 189.3 -1.86Z"></path></g></g></g></svg>