<svg width="3615" height="3814" viewBox="0 0 3615 3814" fill="none" xmlns="http://www.w3.org/2000/svg">
<rect width="3615" height="3814" fill="#E5E5E5"/>
<path d="M1081.04 815C1104.13 775 1161.87 775 1184.96 815L1253.38 933.5C1276.47 973.5 1247.6 1023.5 1201.42 1023.5H1064.58C1018.4 1023.5 989.528 973.5 1012.62 933.5L1081.04 815Z" fill="#757AFF"/>
<rect x="1786" y="786" width="240" height="240" rx="90" fill="#757AFF"/>
<path d="M1081.04 815C1104.13 775 1161.87 775 1184.96 815L1253.38 933.5C1276.47 973.5 1247.6 1023.5 1201.42 1023.5H1064.58C1018.4 1023.5 989.528 973.5 1012.62 933.5L1081.04 815Z" fill="#757AFF"/>
<path d="M1081.04 815C1104.13 775 1161.87 775 1184.96 815L1253.38 933.5C1276.47 973.5 1247.6 1023.5 1201.42 1023.5H1064.58C1018.4 1023.5 989.528 973.5 1012.62 933.5L1081.04 815Z" fill="#757AFF"/>
<rect x="1787" y="1048" width="240" height="240" rx="60" fill="#9E7BFF"/>
<rect x="2297" y="782" width="240" height="240" rx="90" fill="#757AFF"/>
<rect x="2300" y="1054" width="240" height="240" rx="60" fill="#9E7BFF"/>
<rect x="2300" y="1054" width="240" height="240" rx="60" fill="#9E7BFF"/>
<rect x="2299" y="1048" width="240" height="240" rx="60" fill="#9E7BFF"/>
<path fill-rule="evenodd" clip-rule="evenodd" d="M1528 816C1528 799.431 1541.43 786 1558 786H1578H1588H1708H1718H1738C1754.57 786 1768 799.431 1768 816V846V926V956C1768 969.062 1759.65 980.175 1748 984.293V996C1748 1012.57 1734.57 1026 1718 1026H1578C1561.43 1026 1548 1012.57 1548 996V984.293C1536.35 980.175 1528 969.062 1528 956V926V846V816Z" fill="#757AFF"/>
<path fill-rule="evenodd" clip-rule="evenodd" d="M1535 292C1535 275.431 1548.43 262 1565 262H1585H1725H1745C1761.57 262 1775 275.432 1775 292L1775 342L1775 361V405C1775 405.004 1775 405.008 1775 405.011V415C1775 432.77 1767.27 448.736 1755 459.722V472C1755 488.568 1741.57 502 1725 502H1585C1568.43 502 1555 488.568 1555 472V459.722C1542.73 448.736 1535 432.77 1535 415V405V361V342V292Z" fill="#757AFF"/>
<path fill-rule="evenodd" clip-rule="evenodd" d="M1555 210C1555 226.568 1568.43 240 1585 240H1725C1741.57 240 1755 226.568 1755 210V198.293C1766.65 194.175 1775 183.062 1775 170V140V90V60C1775 38.2539 1763.43 19.21 1746.11 8.68665C1740.69 3.31665 1733.23 0 1725 0H1715H1595H1585C1576.77 0 1569.31 3.31665 1563.89 8.68665C1546.57 19.21 1535 38.2539 1535 60V90V140V170C1535 183.062 1543.35 194.175 1555 198.293V210Z" fill="#9E7BFF"/>
<path fill-rule="evenodd" clip-rule="evenodd" d="M1578 524C1550.39 524 1528 546.386 1528 574V674C1528 690.358 1535.86 704.882 1548 714.004C1548 741.616 1570.39 764 1598 764H1698C1725.61 764 1748 741.616 1748 714.004C1760.14 704.882 1768 690.358 1768 674V574C1768 546.386 1745.61 524 1718 524H1698H1598H1578Z" fill="#9E7BFF"/>
<path fill-rule="evenodd" clip-rule="evenodd" d="M3263 1466.01V1453.99C3254.03 1448.8 3248 1439.1 3248 1428V1412V1398V1372C3248 1338.86 3274.86 1312 3308 1312H3351H3413H3458C3474.57 1312 3488 1325.43 3488 1342V1372C3488 1383.1 3481.97 1392.8 3473 1397.99V1410.01C3481.97 1415.2 3488 1424.9 3488 1436V1452V1466V1492C3488 1525.14 3461.14 1552 3428 1552L3338.01 1552C3338 1552 3338 1552 3338 1552H3323L3278 1552C3261.43 1552 3248 1538.57 3248 1522V1492C3248 1480.9 3254.03 1471.2 3263 1466.01Z" fill="#757AFF"/>
<path fill-rule="evenodd" clip-rule="evenodd" d="M3248 1767C3248 1753.67 3253.79 1741.7 3263 1733.46V1722V1701.69C3253.66 1691.11 3248 1677.22 3248 1662V1632C3248 1598.86 3274.86 1572 3308 1572L3365.98 1572L3366 1572H3380.98L3381 1572L3413 1572L3413.03 1572L3443 1572C3467.85 1572 3488 1592.15 3488 1617C3488 1630.33 3482.21 1642.3 3473 1650.54V1662V1682.31C3482.34 1692.89 3488 1706.78 3488 1722V1752C3488 1785.14 3461.14 1812 3428 1812H3383H3323H3293C3268.15 1812 3248 1791.85 3248 1767Z" fill="#9E7BFF"/>
<path fill-rule="evenodd" clip-rule="evenodd" d="M3241 1171C3241 1190.95 3250.74 1208.63 3265.72 1219.53C3251.41 1223.93 3241 1237.25 3241 1253C3241 1272.33 3256.67 1288 3276 1288H3326H3421C3454.14 1288 3481 1261.14 3481 1228V1173C3481 1153.25 3471.45 1135.72 3456.73 1124.79C3471 1118.68 3481 1104.51 3481 1088C3481 1065.91 3463.09 1048 3441 1048H3396H3354H3301C3267.86 1048 3241 1074.86 3241 1108V1171Z" fill="#9E7BFF"/>
<path fill-rule="evenodd" clip-rule="evenodd" d="M2074 1288C2057.43 1288 2044 1274.57 2044 1258L2044 1078C2044 1061.43 2057.43 1048 2074 1048H2094H2174C2190.56 1048 2203.99 1061.42 2204 1077.98C2204.01 1061.42 2217.44 1048 2234 1048H2254C2270.57 1048 2284 1061.43 2284 1078V1138V1258C2284 1274.57 2270.57 1288 2254 1288H2234H2154C2137.43 1288 2124 1274.57 2124 1258C2124 1274.57 2110.57 1288 2094 1288H2074Z" fill="#9E7BFF"/>
<path fill-rule="evenodd" clip-rule="evenodd" d="M2043 572L2043 687V719C2043 743.853 2063.15 764 2088 764C2106.38 764 2122.19 752.977 2129.18 737.179C2136.45 753.008 2152.44 764 2171 764H2237C2237.17 764 2237.34 763.999 2237.5 763.997C2237.67 763.999 2237.83 764 2238 764C2262.85 764 2283 743.853 2283 719V718.054C2283 718.036 2283 718.018 2283 718V597C2283 596.982 2283 596.964 2283 596.946V569C2283 544.147 2262.85 524 2238 524C2221.89 524 2207.77 532.461 2199.81 545.18C2191.19 532.402 2176.58 524 2160 524H2091C2090.49 524 2089.98 524.008 2089.48 524.024C2088.99 524.008 2088.49 524 2088 524C2063.15 524 2043 544.147 2043 569V571.997V572Z" fill="#9E7BFF"/>
<path fill-rule="evenodd" clip-rule="evenodd" d="M2043 1602L2043 1772V1782C2043 1798.57 2056.43 1812 2073 1812H2093C2101.89 1812 2109.87 1808.14 2115.36 1802H2150.64C2156.13 1808.14 2164.12 1812 2173 1812H2233H2253C2253.06 1812 2253.13 1812 2253.19 1812C2269.67 1811.9 2283 1798.5 2283 1782L2283 1602C2283 1585.43 2269.57 1572 2253 1572H2233C2224.12 1572 2216.13 1575.86 2210.64 1582H2175.36C2169.87 1575.86 2161.89 1572 2153 1572H2093H2073C2056.43 1572 2043 1585.43 2043 1602Z" fill="#9E7BFF"/>
<rect x="2984" y="1310" width="240" height="160" rx="60" transform="rotate(90 2984 1310)" fill="#757AFF"/>
<path fill-rule="evenodd" clip-rule="evenodd" d="M2043 977V967V945L2043 830V829.997V827C2043 802.147 2063.15 782 2088 782C2088.49 782 2088.99 782.008 2089.48 782.024C2089.98 782.008 2090.49 782 2091 782H2160C2173.22 782 2185.2 787.348 2193.88 796H2205.38C2213.58 787.376 2225.16 782 2238 782C2262.85 782 2283 802.147 2283 827V836V854.952L2283 855L2283 967L2283 976V976.004V977C2283 1001.85 2262.85 1022 2238 1022C2237.83 1022 2237.67 1022 2237.5 1022C2237.34 1022 2237.17 1022 2237 1022H2171C2157.54 1022 2145.43 1016.22 2137.01 1007H2121.54C2113.3 1016.21 2101.33 1022 2088 1022C2063.15 1022 2043 1001.85 2043 977Z" fill="#757AFF"/>
<rect x="2969" y="1048" width="240" height="160" rx="30" transform="rotate(90 2969 1048)" fill="#9E7BFF"/>
<path fill-rule="evenodd" clip-rule="evenodd" d="M2713 1248C2713 1257.96 2716.64 1267.07 2722.67 1274.07C2727.99 1282.45 2737.35 1288 2748 1288H2753H2763C2779.57 1288 2793 1274.57 2793 1258V1248V1198V1138V1088V1078C2793 1061.43 2779.57 1048 2763 1048H2753H2673H2593H2583C2566.43 1048 2553 1061.43 2553 1078V1088V1198V1248C2553 1270.09 2570.91 1288 2593 1288C2615.09 1288 2633 1270.09 2633 1248C2633 1270.09 2650.91 1288 2673 1288C2695.09 1288 2713 1270.09 2713 1248Z" fill="#9E7BFF"/>
<path fill-rule="evenodd" clip-rule="evenodd" d="M2753 781C2775.09 781 2793 798.909 2793 821V823V925V968V984C2793 1006.09 2775.09 1024 2753 1024C2739.91 1024 2728.29 1017.72 2721 1008H2705C2697.71 1017.72 2686.09 1024 2673 1024C2659.91 1024 2648.29 1017.72 2641 1008H2625C2617.71 1017.72 2606.09 1024 2593 1024C2570.91 1024 2553 1006.09 2553 984V968V925V823V821C2553 798.909 2570.91 781 2593 781H2753Z" fill="#757AFF"/>
<path fill-rule="evenodd" clip-rule="evenodd" d="M2561 2037C2561 2053.57 2574.43 2067 2591 2067L2611 2067C2627.57 2067 2641 2053.57 2641 2037C2641 2053.57 2654.43 2067 2671 2067L2691 2067C2707.57 2067 2721 2053.57 2721 2037C2721 2053.57 2734.43 2067 2751 2067H2755.99H2756L2771 2067C2786.53 2067 2799.31 2055.19 2800.85 2040.07C2800.95 2039.06 2801 2038.04 2801 2037V1977V1917V1879V1857C2801 1840.43 2787.57 1827 2771 1827H2751C2737.2 1827 2725.58 1836.32 2722.08 1849H2691.02C2691.01 1849 2691.01 1849 2691 1849H2671C2670.99 1849 2670.98 1849 2670.98 1849H2639.92C2636.42 1836.32 2624.8 1827 2611 1827H2591C2574.43 1827 2561 1840.43 2561 1857V1879V1977V2037Z" fill="#757AFF"/>
<path fill-rule="evenodd" clip-rule="evenodd" d="M2553 1772C2553 1794.09 2570.91 1812 2593 1812C2615.09 1812 2633 1794.09 2633 1772C2633 1794.09 2650.91 1812 2673 1812C2695.09 1812 2713 1794.09 2713 1772C2713 1794.09 2730.91 1812 2753 1812C2775.09 1812 2793 1794.09 2793 1772L2793 1722V1624V1612C2793 1589.91 2775.09 1572 2753 1572C2737.38 1572 2723.86 1580.95 2717.27 1594L2673.03 1594C2673.02 1594 2673.01 1594 2673 1594C2672.99 1594 2672.98 1594 2672.97 1594L2628.73 1594C2622.14 1580.95 2608.62 1572 2593 1572C2570.91 1572 2553 1589.91 2553 1612L2553 1623.98C2553 1623.99 2553 1623.99 2553 1624L2553 1722C2553 1722.01 2553 1722.01 2553 1722.02L2553 1772Z" fill="#9E7BFF"/>
<path fill-rule="evenodd" clip-rule="evenodd" d="M1270 826C1270 803.909 1287.91 786 1310 786H1470C1492.09 786 1510 803.909 1510 826V918C1510 919.042 1509.96 920.075 1509.88 921.097C1509.96 922.721 1510 924.356 1510 926C1510 981.228 1465.23 1026 1410 1026H1370C1314.77 1026 1270 981.228 1270 926C1270 924.356 1270.04 922.721 1270.12 921.097C1270.04 920.075 1270 919.042 1270 918V826Z" fill="#757AFF"/>
<path fill-rule="evenodd" clip-rule="evenodd" d="M1270 1089C1270 1066.91 1287.91 1049 1310 1049H1470C1492.09 1049 1510 1066.91 1510 1089V1181C1510 1182.04 1509.96 1183.07 1509.88 1184.1C1509.96 1185.72 1510 1187.36 1510 1189C1510 1189.67 1509.99 1190.33 1509.98 1191C1509.99 1191.67 1510 1192.33 1510 1193C1510 1248.23 1465.23 1293 1410 1293H1370C1314.77 1293 1270 1248.23 1270 1193C1270 1192.33 1270.01 1191.67 1270.02 1191C1270.01 1190.33 1270 1189.67 1270 1189C1270 1187.36 1270.04 1185.72 1270.12 1184.1C1270.04 1183.07 1270 1182.04 1270 1181V1089Z" fill="#9E7BFF"/>
<path fill-rule="evenodd" clip-rule="evenodd" d="M20 706C20 767.304 69.6964 817 131 817H270C331.304 817 381 767.304 381 706V568C381 506.696 331.304 457 270 457H131C69.6964 457 20 506.696 20 568V706ZM252.467 548C229.373 508 171.638 508 148.544 548L122.569 592.99L122.563 593L106.109 621.5L80.1279 666.5C57.0339 706.5 85.9016 756.5 132.09 756.5H184.051H216.96H268.922C315.109 756.5 343.977 706.5 320.883 666.5L294.915 621.521L294.902 621.5L278.448 593L278.432 592.973L252.467 548Z" fill="#9E7BFF"/>
<path fill-rule="evenodd" clip-rule="evenodd" d="M0 2503C0 2613.46 89.5431 2703 200 2703C310.457 2703 400 2613.46 400 2503C400 2392.54 310.457 2303 200 2303C89.5431 2303 0 2392.54 0 2503ZM251.467 2391C228.373 2351 170.638 2351 147.544 2391L121.569 2435.99L121.563 2436L105.109 2464.5L79.1279 2509.5C56.0339 2549.5 84.9016 2599.5 131.09 2599.5H183.051H215.96H267.922C314.109 2599.5 342.977 2549.5 319.883 2509.5L293.915 2464.52L293.902 2464.5L277.448 2436L277.432 2435.97L251.467 2391Z" fill="#686767"/>
<path fill-rule="evenodd" clip-rule="evenodd" d="M1875 524C1825.29 524 1785 564.294 1785 614V674C1785 723.706 1825.29 764 1875 764H1935C1984.71 764 2025 723.706 2025 674V614C2025 564.294 1984.71 524 1935 524H1875ZM1905 676C1921.57 676 1935 662.569 1935 646C1935 629.431 1921.57 616 1905 616C1888.43 616 1875 629.431 1875 646C1875 662.569 1888.43 676 1905 676Z" fill="#9E7BFF"/>
<path fill-rule="evenodd" clip-rule="evenodd" d="M2860.37 527H2839C2822.43 527 2809 540.431 2809 557V737C2809 753.569 2822.43 767 2839 767H2939C2955.57 767 2969 753.569 2969 737V557C2969 540.432 2955.57 527 2939 527H2917.63C2913.8 539.171 2902.43 548 2889 548C2875.57 548 2864.2 539.171 2860.37 527Z" fill="#9E7BFF"/>
<path fill-rule="evenodd" clip-rule="evenodd" d="M3074 2111C3024.29 2111 2984 2151.29 2984 2201V2261C2984 2310.71 3024.29 2351 3074 2351H3134C3183.71 2351 3224 2310.71 3224 2261V2201C3224 2185.06 3219.86 2170.09 3212.59 2157.11C3214.16 2162.46 3215 2168.13 3215 2174C3215 2207.14 3188.14 2234 3155 2234C3121.86 2234 3095 2207.14 3095 2174C3095 2140.86 3121.86 2114 3155 2114C3155.77 2114 3156.53 2114.01 3157.29 2114.04C3149.86 2112.06 3142.05 2111 3134 2111H3074Z" fill="#9E7BFF"/>
<path fill-rule="evenodd" clip-rule="evenodd" d="M3525 0C3508.43 0 3495 13.4315 3495 30V55C3495 71.5685 3508.43 85 3525 85H3545C3561.57 85 3575 71.5685 3575 55V30C3575 46.5685 3561.57 60 3545 60C3528.43 60 3515 46.5685 3515 30C3515 13.4315 3528.43 0 3545 0H3525Z" fill="#9E7BFF"/>
<path d="M3065.67 1855C3021.67 1855 2986 1890.67 2986 1934.67V2014.33C2986 2058.33 3021.67 2094 3065.67 2094H3145.33C3189.33 2094 3225 2058.33 3225 2014.33V1934.67C3225 1934.62 3225 1934.58 3225 1934.54C3224.93 1978.33 3189.29 2013.82 3145.33 2013.82C3101.33 2013.82 3065.67 1978.27 3065.67 1934.41C3065.67 1890.55 3101.33 1855 3145.33 1855H3065.67Z" fill="#757AFF"/>
<path d="M3535 280C3512.91 280 3495 297.909 3495 320V360C3495 382.091 3512.91 400 3535 400H3575C3597.09 400 3615 382.091 3615 360V320C3615 319.978 3615 319.957 3615 319.935C3614.96 341.925 3597.07 359.741 3575 359.741C3552.91 359.741 3535 341.89 3535 319.871C3535 297.851 3552.91 280 3575 280H3535Z" fill="#757AFF"/>
<path fill-rule="evenodd" clip-rule="evenodd" d="M2987 360C2987 315.817 3022.82 280 3067 280H3125H3128H3197C3213.57 280 3227 293.432 3227 310V340C3227 352.685 3219.13 363.532 3208 367.919V432.081C3219.13 436.468 3227 447.315 3227 460V490C3227 506.569 3213.57 520 3197 520H3128H3115H3067C3022.82 520 2987 484.183 2987 440V360Z" fill="#757AFF"/>
<path fill-rule="evenodd" clip-rule="evenodd" d="M2987 612C2987 567.817 3022.82 532 3067 532H3125H3128H3197C3213.57 532 3227 545.432 3227 562V602C3227 614.685 3219.13 625.532 3208 629.919V674.081C3219.13 678.468 3227 689.315 3227 702V742C3227 758.569 3213.57 772 3197 772H3128H3115H3067C3022.82 772 2987 736.183 2987 692V612Z" fill="#9E7BFF"/>
<path fill-rule="evenodd" clip-rule="evenodd" d="M3260 933.767V918.172C3248.13 903.883 3241 885.525 3241 865.5C3241 819.937 3277.94 783 3323.5 783H3334H3335H3359.5H3431C3458.61 783 3481 805.386 3481 833C3481 849.358 3473.14 863.882 3461 873.004V890.083C3473.45 904.186 3481 922.711 3481 943C3481 987.183 3445.18 1023 3401 1023H3387H3346H3333H3316H3291H3290H3286C3261.15 1023 3241 1002.85 3241 978C3241 977.183 3241.02 976.372 3241.06 975.566C3241.02 974.716 3241 973.861 3241 973C3241 957.095 3248.43 942.925 3260 933.767Z" fill="#757AFF"/>
<path fill-rule="evenodd" clip-rule="evenodd" d="M2986 864C2986 819.817 3021.82 784 3066 784H3127C3130.22 784 3133.39 784.19 3136.5 784.558C3138.95 784.191 3141.45 784 3144 784H3176C3203.61 784 3226 806.386 3226 834C3226 849.905 3218.57 864.075 3207 873.233V934.767C3218.57 943.925 3226 958.095 3226 974C3226 1001.61 3203.61 1024 3176 1024H3134C3132.96 1024 3131.93 1023.97 3130.91 1023.91C3129.61 1023.97 3128.31 1024 3127 1024H3066C3021.82 1024 2986 988.183 2986 944V864Z" fill="#757AFF"/>
<rect x="1781" y="2394" width="240" height="240" rx="90" fill="#686767"/>
<path d="M1088.04 2423C1111.13 2383 1168.87 2383 1191.96 2423L1260.38 2541.5C1283.47 2581.5 1254.6 2631.5 1208.42 2631.5H1071.58C1025.4 2631.5 996.528 2581.5 1019.62 2541.5L1088.04 2423Z" fill="#686767"/>
<rect x="2289" y="2390" width="240" height="240" rx="90" fill="#686767"/>
<path fill-rule="evenodd" clip-rule="evenodd" d="M1527 2424C1527 2407.43 1540.43 2394 1557 2394H1577H1587H1707H1717H1737C1753.57 2394 1767 2407.43 1767 2424V2454V2534V2564C1767 2577.06 1758.65 2588.17 1747 2592.29V2604C1747 2620.57 1733.57 2634 1717 2634H1577C1560.43 2634 1547 2620.57 1547 2604V2592.29C1535.35 2588.17 1527 2577.06 1527 2564V2534V2454V2424Z" fill="#686767"/>
<rect x="2961" y="2391" width="240" height="160" rx="80" transform="rotate(90 2961 2391)" fill="#686767"/>
<rect x="2971" y="786" width="240" height="160" rx="80" transform="rotate(90 2971 786)" fill="#757AFF"/>
<path fill-rule="evenodd" clip-rule="evenodd" d="M2035 2585V2575V2553L2035 2438V2438V2435C2035 2410.15 2055.15 2390 2080 2390C2080.49 2390 2080.99 2390.01 2081.48 2390.02C2081.98 2390.01 2082.49 2390 2083 2390H2152C2165.22 2390 2177.2 2395.35 2185.88 2404H2197.38C2205.58 2395.38 2217.16 2390 2230 2390C2254.85 2390 2275 2410.15 2275 2435V2444V2462.95L2275 2463L2275 2509V2575L2275 2584C2275 2609.41 2254.41 2630 2229 2630H2163C2149.54 2630 2137.43 2624.22 2129.01 2615H2113.54C2105.3 2624.21 2093.33 2630 2080 2630C2055.15 2630 2035 2609.85 2035 2585Z" fill="#686767"/>
<path fill-rule="evenodd" clip-rule="evenodd" d="M2701 2389C2747.39 2389 2785 2426.61 2785 2473V2474V2512V2525V2532V2592C2785 2614.09 2767.09 2632 2745 2632C2731.57 2632 2719.69 2625.38 2712.43 2615.23C2708.69 2615.74 2704.88 2616 2701 2616H2697C2689.71 2625.72 2678.09 2632 2665 2632C2651.91 2632 2640.29 2625.72 2633 2616H2629C2625.12 2616 2621.31 2615.74 2617.57 2615.23C2610.31 2625.38 2598.43 2632 2585 2632C2562.91 2632 2545 2614.09 2545 2592V2532V2512V2498V2474V2473C2545 2426.61 2582.61 2389 2629 2389H2701Z" fill="#686767"/>
<path fill-rule="evenodd" clip-rule="evenodd" d="M2716 1304C2762.39 1304 2800 1341.61 2800 1388V1389V1427V1440V1447V1507C2800 1529.09 2782.09 1547 2760 1547C2746.57 1547 2734.69 1540.38 2727.43 1530.23C2723.69 1530.74 2719.88 1531 2716 1531H2712C2704.71 1540.72 2693.09 1547 2680 1547C2666.91 1547 2655.29 1540.72 2648 1531H2644C2640.12 1531 2636.31 1530.74 2632.57 1530.23C2625.31 1540.38 2613.43 1547 2600 1547C2577.91 1547 2560 1529.09 2560 1507L2560 1427L2560 1413L2560 1412.99L2560 1389L2560 1388.96L2560 1388C2560 1341.61 2597.61 1304 2644 1304L2716 1304Z" fill="#757AFF"/>
<path fill-rule="evenodd" clip-rule="evenodd" d="M1273 2434C1273 2411.91 1290.91 2394 1313 2394H1473C1495.09 2394 1513 2411.91 1513 2434V2526C1513 2527.04 1512.96 2528.07 1512.88 2529.1C1512.96 2530.72 1513 2532.36 1513 2534C1513 2589.23 1468.23 2634 1413 2634H1373C1317.77 2634 1273 2589.23 1273 2534C1273 2532.36 1273.04 2530.72 1273.12 2529.1C1273.04 2528.07 1273 2527.04 1273 2526V2434Z" fill="#686767"/>
<path fill-rule="evenodd" clip-rule="evenodd" d="M3255 2541.77V2526.17C3243.13 2511.88 3236 2493.52 3236 2473.5C3236 2427.94 3272.94 2391 3318.5 2391H3329H3330H3354.5H3426C3453.61 2391 3476 2413.39 3476 2441C3476 2457.36 3468.14 2471.88 3456 2481V2498.08C3468.45 2512.19 3476 2530.71 3476 2551C3476 2595.18 3440.18 2631 3396 2631H3382H3341H3328H3311H3286H3285H3281C3256.15 2631 3236 2610.85 3236 2586C3236 2585.18 3236.02 2584.37 3236.06 2583.57C3236.02 2582.72 3236 2581.86 3236 2581C3236 2565.1 3243.43 2550.92 3255 2541.77Z" fill="#686767"/>
<path fill-rule="evenodd" clip-rule="evenodd" d="M2978 2472C2978 2427.82 3013.82 2392 3058 2392H3092.5H3119H3167.5C3195.39 2392 3218 2414.61 3218 2442.5C3218 2458.48 3210.58 2472.72 3199 2481.97V2542.03C3210.58 2551.28 3218 2565.52 3218 2581.5C3218 2609.39 3195.39 2632 3167.5 2632H3119H3066.5H3058C3013.82 2632 2978 2596.18 2978 2552V2472Z" fill="#686767"/>
<path fill-rule="evenodd" clip-rule="evenodd" d="M1707 2693H1727C1749.09 2693 1767 2710.91 1767 2733V2753V2833V2853C1767 2867.81 1758.96 2880.73 1747 2887.65V2893C1747 2915.09 1729.09 2933 1707 2933H1687H1607H1587C1564.91 2933 1547 2915.09 1547 2893V2887.65C1535.04 2880.73 1527 2867.81 1527 2853V2833V2753V2733C1527 2710.91 1544.91 2693 1567 2693H1587H1607H1687H1707Z" fill="#686767"/>
<path fill-rule="evenodd" clip-rule="evenodd" d="M2701 2688C2747.39 2688 2785 2725.61 2785 2772V2773V2811V2824V2831V2891C2785 2913.09 2767.09 2931 2745 2931C2731.57 2931 2719.69 2924.38 2712.43 2914.23C2708.69 2914.74 2704.88 2915 2701 2915H2697C2689.71 2924.72 2678.09 2931 2665 2931C2651.91 2931 2640.29 2924.72 2633 2915H2629C2625.12 2915 2621.31 2914.74 2617.57 2914.23C2610.31 2924.38 2598.43 2931 2585 2931C2562.91 2931 2545 2913.09 2545 2891V2831V2811V2797V2773V2772C2545 2725.61 2582.61 2688 2629 2688H2701Z" fill="#686767"/>
<path fill-rule="evenodd" clip-rule="evenodd" d="M3255 2843.77V2828.17C3243.13 2813.88 3236 2795.52 3236 2775.5C3236 2729.94 3272.94 2693 3318.5 2693H3329H3330H3354.5H3426C3453.61 2693 3476 2715.39 3476 2743C3476 2759.36 3468.14 2773.88 3456 2783V2800.08C3468.45 2814.19 3476 2832.71 3476 2853C3476 2897.18 3440.18 2933 3396 2933H3382H3341H3328H3311H3286H3285H3281C3256.15 2933 3236 2912.85 3236 2888C3236 2887.18 3236.02 2886.37 3236.06 2885.57C3236.02 2884.72 3236 2883.86 3236 2883C3236 2867.1 3243.43 2852.93 3255 2843.77Z" fill="#686767"/>
<path fill-rule="evenodd" clip-rule="evenodd" d="M1173 1048C1217.18 1048 1253 1083.82 1253 1128V1189C1253 1192.22 1252.81 1195.39 1252.44 1198.5C1252.81 1200.95 1253 1203.45 1253 1206V1238C1253 1265.61 1230.61 1288 1203 1288C1187.1 1288 1172.92 1280.57 1163.77 1269H1102.23C1093.08 1280.57 1078.9 1288 1063 1288C1035.39 1288 1013 1265.61 1013 1238V1196C1013 1194.96 1013.03 1193.93 1013.09 1192.91C1013.03 1191.61 1013 1190.31 1013 1189V1128C1013 1083.82 1048.82 1048 1093 1048H1173Z" fill="#9E7BFF"/>
<path fill-rule="evenodd" clip-rule="evenodd" d="M2994 1660C2994 1615.82 3029.82 1580 3074 1580H3132H3139H3204C3220.57 1580 3234 1593.43 3234 1610V1660C3234 1671.1 3227.97 1680.8 3219 1685.99V1714.01C3227.97 1719.2 3234 1728.9 3234 1740V1790C3234 1806.57 3220.57 1820 3204 1820H3139H3122H3074C3029.82 1820 2994 1784.18 2994 1740V1660Z" fill="#9E7BFF"/>
<path fill-rule="evenodd" clip-rule="evenodd" d="M2986 1128C2986 1083.82 3021.82 1048 3066 1048H3124H3138H3196C3212.57 1048 3226 1061.43 3226 1078V1128C3226 1135.88 3222.96 1143.04 3218 1148.4V1187.6C3222.96 1192.96 3226 1200.12 3226 1208V1258C3226 1274.57 3212.57 1288 3196 1288H3138H3114H3066C3021.82 1288 2986 1252.18 2986 1208V1128Z" fill="#9E7BFF"/>
<path fill-rule="evenodd" clip-rule="evenodd" d="M2175.05 277.062C2175.04 277.063 2175.03 277.064 2175.02 277.064C2169.85 268.062 2160.13 262 2149 262L2073 262C2056.43 262 2043 275.431 2043 292L2043 457V472C2043 488.569 2056.43 502 2073 502C2084.1 502 2093.8 495.967 2098.99 487H2099.01C2104.2 478.033 2113.9 472 2125 472C2136.08 472 2145.75 478.005 2150.95 486.938L2150.98 486.936C2156.15 495.938 2165.87 502 2177 502H2253C2269.57 502 2283 488.569 2283 472L2283 307V292C2283 275.431 2269.57 262 2253 262C2241.9 262 2232.2 268.033 2227.01 277H2226.99C2221.8 285.967 2212.1 292 2201 292C2189.92 292 2180.25 285.995 2175.05 277.062Z" fill="#757AFF"/>
<path fill-rule="evenodd" clip-rule="evenodd" d="M2167.05 2705.06C2167.04 2705.06 2167.03 2705.06 2167.02 2705.06C2161.85 2696.06 2152.13 2690 2141 2690L2065 2690C2048.43 2690 2035 2703.43 2035 2720L2035 2885V2900C2035 2916.57 2048.43 2930 2065 2930C2076.1 2930 2085.8 2923.97 2090.99 2915H2091.01C2096.2 2906.03 2105.9 2900 2117 2900C2128.08 2900 2137.75 2906.01 2142.95 2914.94L2142.98 2914.94C2148.15 2923.94 2157.87 2930 2169 2930H2245C2261.57 2930 2275 2916.57 2275 2900L2275 2735V2720C2275 2703.43 2261.57 2690 2245 2690C2233.9 2690 2224.2 2696.03 2219.01 2705H2218.99C2213.8 2713.97 2204.1 2720 2193 2720C2181.92 2720 2172.25 2713.99 2167.05 2705.06Z" fill="#686767"/>
<path fill-rule="evenodd" clip-rule="evenodd" d="M1195.96 564C1172.87 524 1115.13 524 1092.04 564L1066.06 608.99L1066.06 609L1049.6 637.5L1023.62 682.5C1000.53 722.5 1029.4 772.5 1075.58 772.5H1127.55H1160.45H1212.42C1258.6 772.5 1287.47 722.5 1264.38 682.5L1238.41 637.521L1238.4 637.5L1221.94 609L1221.93 608.973L1195.96 564ZM1144 704C1160.57 704 1174 690.569 1174 674C1174 657.431 1160.57 644 1144 644C1127.43 644 1114 657.431 1114 674C1114 690.569 1127.43 704 1144 704Z" fill="#9E7BFF"/>
<path fill-rule="evenodd" clip-rule="evenodd" d="M1528 1078C1528 1061.43 1541.43 1048 1558 1048H1738C1754.57 1048 1768 1061.43 1768 1078V1254C1751.43 1254 1738 1267.43 1738 1284C1738 1285.36 1738.09 1286.69 1738.26 1288C1738.18 1288 1738.09 1288 1738 1288H1558C1558 1271.43 1544.57 1258 1528 1258V1078Z" fill="#9E7BFF"/>
<path fill-rule="evenodd" clip-rule="evenodd" d="M1558 1310C1541.43 1310 1528 1323.43 1528 1340V1480V1491.71C1539.65 1495.83 1548 1506.94 1548 1520C1548 1520.43 1547.99 1520.86 1547.97 1521.28L1548.03 1521.3C1548.71 1537.27 1561.87 1550 1578 1550L1718 1550C1734.13 1550 1747.29 1537.27 1747.97 1521.3C1747.99 1521.3 1748.01 1521.29 1748.03 1521.28C1748.01 1520.86 1748 1520.43 1748 1520C1748 1506.94 1756.35 1495.83 1768 1491.71V1480V1340C1768 1323.43 1754.57 1310 1738 1310H1718H1578H1558Z" fill="#757AFF"/>
<path fill-rule="evenodd" clip-rule="evenodd" d="M3467.19 1955.53C3460.94 1950.03 3457 1941.98 3457 1933C3457 1921.73 3463.21 1911.92 3472.4 1906.79C3478.41 1899.14 3482 1889.49 3482 1879C3482 1854.15 3461.85 1834 3437 1834L3360 1834L3359.98 1834L3302 1834C3268.86 1834 3242 1860.86 3242 1894V1913C3242 1928.22 3247.66 1942.11 3257 1952.69V1953.74C3261.37 1958.95 3264 1965.67 3264 1973C3264 1982.49 3259.59 1990.96 3252.71 1996.45C3246.02 2004.64 3242 2015.1 3242 2026.5C3242 2052.73 3263.27 2074 3289.5 2074H3314.5C3314.89 2074 3315.29 2074 3315.68 2073.99C3316.12 2074 3316.56 2074 3317 2074H3380C3380.17 2074 3380.33 2074 3380.5 2074C3380.58 2074 3380.67 2074 3380.75 2074C3380.83 2074 3380.92 2074 3381 2074H3422C3455.14 2074 3482 2047.14 3482 2014V1995C3482 1979.89 3476.41 1966.08 3467.19 1955.53Z" fill="#757AFF"/>
<path fill-rule="evenodd" clip-rule="evenodd" d="M1255 1390C1255 1345.82 1219.18 1310 1175 1310H1095C1050.82 1310 1015 1345.82 1015 1390V1451C1015 1452.31 1015.03 1453.61 1015.09 1454.91C1015.03 1455.93 1015 1456.96 1015 1458V1500C1015 1527.61 1037.39 1550 1065 1550C1080.9 1550 1095.08 1542.57 1104.23 1531L1165.77 1531C1174.92 1542.57 1189.1 1550 1205 1550C1232.61 1550 1255 1527.61 1255 1500V1468C1255 1465.45 1254.81 1462.95 1254.44 1460.5C1254.81 1457.39 1255 1454.22 1255 1451V1390ZM1135 1450C1151.57 1450 1165 1436.57 1165 1420C1165 1403.43 1151.57 1390 1135 1390C1118.43 1390 1105 1403.43 1105 1420C1105 1436.57 1118.43 1450 1135 1450Z" fill="#757AFF"/>
<path fill-rule="evenodd" clip-rule="evenodd" d="M1172 3264C1216.18 3264 1252 3299.82 1252 3344V3405C1252 3408.22 1251.81 3411.39 1251.44 3414.5C1251.81 3416.95 1252 3419.45 1252 3422V3454C1252 3481.61 1229.61 3504 1202 3504C1186.1 3504 1171.92 3496.57 1162.77 3485H1101.23C1092.08 3496.57 1077.9 3504 1062 3504C1034.39 3504 1012 3481.61 1012 3454V3412C1012 3410.96 1012.03 3409.93 1012.09 3408.91C1012.03 3407.61 1012 3406.31 1012 3405V3344C1012 3299.82 1047.82 3264 1092 3264H1172Z" fill="#686767"/>
<circle cx="1132" cy="3384" r="30" fill="#E5E5E5"/>
<path fill-rule="evenodd" clip-rule="evenodd" d="M1191.47 2717C1168.37 2677 1110.64 2677 1087.54 2717L1019.13 2835.5C996.034 2875.5 1024.9 2925.5 1071.09 2925.5H1207.92C1254.11 2925.5 1282.98 2875.5 1259.88 2835.5L1191.47 2717ZM1141.51 2852C1158.07 2852 1171.51 2838.57 1171.51 2822C1171.51 2805.43 1158.07 2792 1141.51 2792C1124.94 2792 1111.51 2805.43 1111.51 2822C1111.51 2838.57 1124.94 2852 1141.51 2852Z" fill="#686767"/>
<path fill-rule="evenodd" clip-rule="evenodd" d="M1871 2693C1821.29 2693 1781 2733.29 1781 2783V2843C1781 2892.71 1821.29 2933 1871 2933H1931C1980.71 2933 2021 2892.71 2021 2843V2783C2021 2733.29 1980.71 2693 1931 2693H1871ZM1901 2844C1917.57 2844 1931 2830.57 1931 2814C1931 2797.43 1917.57 2784 1901 2784C1884.43 2784 1871 2797.43 1871 2814C1871 2830.57 1884.43 2844 1901 2844Z" fill="#686767"/>
<path fill-rule="evenodd" clip-rule="evenodd" d="M2379 2689C2329.29 2689 2289 2729.29 2289 2779V2839C2289 2888.71 2329.29 2929 2379 2929H2439C2488.71 2929 2529 2888.71 2529 2839V2779C2529 2729.29 2488.71 2689 2439 2689H2379ZM2409 2840C2425.57 2840 2439 2826.57 2439 2810C2439 2793.43 2425.57 2780 2409 2780C2392.43 2780 2379 2793.43 2379 2810C2379 2826.57 2392.43 2840 2409 2840Z" fill="#686767"/>
<path fill-rule="evenodd" clip-rule="evenodd" d="M2123 2981C2134.95 2981 2145.88 2985.37 2154.28 2992.59C2159.78 2998.96 2167.92 3003 2177 3003C2185.75 3003 2193.63 2999.25 2199.11 2993.27C2207.17 2985.66 2218.04 2981 2230 2981C2254.85 2981 2275 3001.15 2275 3026V3035V3054V3100V3166V3175C2275 3200.41 2254.41 3221 2229 3221H2188C2176.4 3221 2165.81 3216.71 2157.72 3209.63C2152.23 3202.55 2143.65 3198 2134 3198C2126.12 3198 2118.96 3201.04 2113.6 3206H2113.54C2113.42 3206.14 2113.29 3206.28 2113.17 3206.41C2112.64 3206.92 2112.13 3207.45 2111.64 3208C2103.51 3216.04 2092.34 3221 2080 3221C2055.15 3221 2035 3200.85 2035 3176V3166V3144L2035 3029V3029V3026C2035 3001.15 2055.15 2981 2080 2981C2080.49 2981 2080.99 2981.01 2081.48 2981.02C2081.98 2981.01 2082.49 2981 2083 2981H2123Z" fill="#686767"/>
<path fill-rule="evenodd" clip-rule="evenodd" d="M2131 1312C2142.95 1312 2153.88 1316.37 2162.28 1323.59C2167.78 1329.96 2175.92 1334 2185 1334C2193.75 1334 2201.63 1330.25 2207.11 1324.27C2215.17 1316.66 2226.04 1312 2238 1312C2262.85 1312 2283 1332.15 2283 1357V1366V1384.96L2283 1385L2283 1431V1497L2283 1506C2283 1531.41 2262.41 1552 2237 1552H2196C2184.4 1552 2173.81 1547.71 2165.72 1540.63C2160.23 1533.55 2151.65 1529 2142 1529C2134.12 1529 2126.96 1532.04 2121.6 1537H2121.54C2121.42 1537.14 2121.29 1537.28 2121.17 1537.41C2120.64 1537.92 2120.13 1538.45 2119.64 1539C2111.51 1547.04 2100.34 1552 2088 1552C2063.15 1552 2043 1531.85 2043 1507L2043 1475L2043 1360V1360V1357C2043 1332.15 2063.15 1312 2088 1312C2088.49 1312 2088.99 1312.01 2089.48 1312.02C2089.98 1312.01 2090.49 1312 2091 1312H2131Z" fill="#757AFF"/>
<path fill-rule="evenodd" clip-rule="evenodd" d="M1362.88 3002.83C1353.75 2990.78 1339.28 2983 1323 2983C1295.39 2983 1273 3005.39 1273 3033V3111C1273 3111.2 1273 3111.4 1273 3111.6C1273 3111.9 1273 3112.2 1273 3112.5C1273 3173.53 1322.47 3223 1383.5 3223H1402.5C1463.53 3223 1513 3173.53 1513 3112.5C1513 3110.8 1512.96 3109.1 1512.89 3107.42C1512.96 3106.29 1513 3105.15 1513 3104V3033C1513 3005.39 1490.61 2983 1463 2983C1446.72 2983 1432.25 2990.78 1423.12 3002.83C1417.03 3013.11 1405.82 3020 1393 3020C1380.18 3020 1368.97 3013.11 1362.88 3002.83Z" fill="#686767"/>
<path fill-rule="evenodd" clip-rule="evenodd" d="M1362.23 3283L1423.77 3283C1432.93 3271.43 1447.1 3264 1463 3264C1490.61 3264 1513 3286.39 1513 3314V3363V3385V3424C1513 3468.18 1477.18 3504 1433 3504H1353C1308.82 3504 1273 3468.18 1273 3424L1273 3363C1273 3362.99 1273 3362.98 1273 3362.97L1273 3314C1273 3286.39 1295.39 3264 1323 3264C1338.9 3264 1353.07 3271.43 1362.23 3283Z" fill="#686767"/>
<path fill-rule="evenodd" clip-rule="evenodd" d="M1355.4 3555H1355.23C1346.08 3543.43 1331.9 3536 1316 3536C1288.39 3536 1266 3558.39 1266 3586V3635V3664V3696C1266 3740.18 1301.82 3776 1346 3776H1426C1470.18 3776 1506 3740.18 1506 3696V3657V3635V3586C1506 3558.39 1483.61 3536 1456 3536C1440.1 3536 1425.92 3543.43 1416.77 3555H1416.6C1410.62 3565.74 1399.16 3573 1386 3573C1372.84 3573 1361.38 3565.74 1355.4 3555Z" fill="#686767"/>
<path fill-rule="evenodd" clip-rule="evenodd" d="M1162.6 3757L1162.77 3757C1171.93 3768.57 1186.1 3776 1202 3776C1229.61 3776 1252 3753.61 1252 3726L1252 3677.03L1252 3677L1252 3616C1252 3571.82 1216.18 3536 1172 3536L1092 3536C1047.82 3536 1012 3571.82 1012 3616L1012 3655L1012 3677L1012 3726C1012 3753.61 1034.39 3776 1062 3776C1077.9 3776 1092.07 3768.57 1101.23 3757L1101.4 3757C1107.38 3746.26 1118.84 3739 1132 3739C1145.16 3739 1156.62 3746.26 1162.6 3757Z" fill="#686767"/>
<path fill-rule="evenodd" clip-rule="evenodd" d="M3184.17 3076.88C3196.22 3067.75 3204 3053.28 3204 3037C3204 3009.39 3181.61 2987 3154 2987L3076 2987C3075.8 2987 3075.6 2987 3075.4 2987C3075.1 2987 3074.8 2987 3074.5 2987C3013.47 2987 2964 3036.47 2964 3097.5L2964 3116.5C2964 3177.53 3013.47 3227 3074.5 3227C3076.2 3227 3077.9 3226.96 3079.58 3226.89C3080.71 3226.96 3081.85 3227 3083 3227L3154 3227C3181.61 3227 3204 3204.61 3204 3177C3204 3160.72 3196.22 3146.25 3184.17 3137.12C3173.89 3131.03 3167 3119.82 3167 3107C3167 3094.18 3173.89 3082.97 3184.17 3076.88Z" fill="#686767"/>
<path fill-rule="evenodd" clip-rule="evenodd" d="M3214.17 1396.88C3226.22 1387.75 3234 1373.28 3234 1357C3234 1329.39 3211.61 1307 3184 1307L3106 1307C3105.8 1307 3105.6 1307 3105.4 1307C3105.1 1307 3104.8 1307 3104.5 1307C3043.47 1307 2994 1356.47 2994 1417.5L2994 1436.5C2994 1497.53 3043.47 1547 3104.5 1547C3106.2 1547 3107.9 1546.96 3109.58 1546.89C3110.71 1546.96 3111.85 1547 3113 1547L3184 1547C3211.61 1547 3234 1524.61 3234 1497C3234 1480.72 3226.22 1466.25 3214.17 1457.12C3203.89 1451.03 3197 1439.82 3197 1427C3197 1414.18 3203.89 1402.97 3214.17 1396.88Z" fill="#757AFF"/>
<path fill-rule="evenodd" clip-rule="evenodd" d="M3205 3370.4L3205 3370.23C3216.57 3361.08 3224 3346.9 3224 3331C3224 3303.39 3201.61 3281 3174 3281L3125.03 3281L3125 3281L3096 3281L3064 3281C3019.82 3281 2984 3316.82 2984 3361L2984 3441C2984 3485.18 3019.82 3521 3064 3521L3103 3521L3125 3521L3174 3521C3201.61 3521 3224 3498.61 3224 3471C3224 3455.1 3216.57 3440.93 3205 3431.77L3205 3431.6C3194.26 3425.62 3187 3414.16 3187 3401C3187 3387.84 3194.26 3376.38 3205 3370.4Z" fill="#686767"/>
<path fill-rule="evenodd" clip-rule="evenodd" d="M2961 2770C2961 2725.82 2925.18 2690 2881 2690C2836.82 2690 2801 2725.82 2801 2770V2850C2801 2894.18 2836.82 2930 2881 2930C2925.18 2930 2961 2894.18 2961 2850V2770ZM2881 2753C2897.57 2753 2911 2739.57 2911 2723C2911 2706.43 2897.57 2693 2881 2693C2864.43 2693 2851 2706.43 2851 2723C2851 2739.57 2864.43 2753 2881 2753Z" fill="#686767"/>
<rect x="1781" y="2981" width="240" height="240" rx="120" fill="#686767"/>
<rect x="2305" y="1314" width="240" height="240" rx="120" fill="#757AFF"/>
<path fill-rule="evenodd" clip-rule="evenodd" d="M1567 2981C1544.91 2981 1527 2998.91 1527 3021V3101C1527 3123.09 1544.91 3141 1567 3141V3181C1567 3203.09 1584.91 3221 1607 3221H1687C1709.09 3221 1727 3203.09 1727 3181V3141C1749.09 3141 1767 3123.09 1767 3101V3021C1767 2998.91 1749.09 2981 1727 2981H1687H1607H1567Z" fill="#686767"/>
<path d="M1088.04 3015C1111.13 2975 1168.87 2975 1191.96 3015L1260.38 3133.5C1283.47 3173.5 1254.6 3223.5 1208.42 3223.5H1071.58C1025.4 3223.5 996.528 3173.5 1019.62 3133.5L1088.04 3015Z" fill="#686767"/>
<rect x="2289" y="2981" width="236" height="240" rx="118" fill="#686767"/>
<rect x="2950" y="2980" width="240" height="159" rx="79.5" transform="rotate(90 2950 2980)" fill="#686767"/>
<path fill-rule="evenodd" clip-rule="evenodd" d="M3240 3133V3119.35C3227.54 3104.9 3220 3086.08 3220 3065.5C3220 3019.94 3256.94 2983 3302.5 2983H3313H3314H3336.5H3407H3408C3435.61 2983 3458 3005.39 3458 3033C3458 3049.8 3449.71 3064.67 3437 3073.74V3088.97C3450.04 3103.21 3458 3122.17 3458 3143C3458 3187.18 3422.18 3223 3378 3223H3364H3325H3312H3294H3270H3265C3240.15 3223 3220 3202.85 3220 3178C3220 3177.18 3220.02 3176.37 3220.06 3175.57C3220.04 3175.09 3220.02 3174.61 3220.01 3174.13C3220 3173.76 3220 3173.38 3220 3173C3220 3156.64 3227.86 3142.12 3240 3133Z" fill="#686767"/>
<path fill-rule="evenodd" clip-rule="evenodd" d="M3097 2693C3098.27 2693 3099.54 2693.02 3100.81 2693.06C3101.31 2693.03 3101.82 2693.01 3102.33 2693.01C3102.55 2693 3102.78 2693 3103 2693H3177C3199.09 2693 3217 2710.91 3217 2733V2783C3200.43 2783 3187 2796.43 3187 2813C3187 2829.57 3200.43 2843 3217 2843V2893C3217 2915.09 3199.09 2933 3177 2933H3103C3102.26 2933 3101.53 2932.98 3100.81 2932.94C3099.54 2932.98 3098.27 2933 3097 2933C3030.73 2933 2977 2879.27 2977 2813C2977 2746.73 3030.73 2693 3097 2693Z" fill="#686767"/>
<path fill-rule="evenodd" clip-rule="evenodd" d="M3224 3774V3734V3724C3207.43 3724 3194 3710.57 3194 3694C3194 3677.43 3207.43 3664 3224 3664V3654V3614C3224 3591.91 3206.09 3574 3184 3574H3144H3110H3064C3019.82 3574 2984 3609.82 2984 3654V3734C2984 3778.18 3019.82 3814 3064 3814H3110H3144H3184C3206.09 3814 3224 3796.09 3224 3774Z" fill="#686767"/>
<path fill-rule="evenodd" clip-rule="evenodd" d="M2390 1572C2340.29 1572 2300 1612.29 2300 1662V1722C2300 1771.71 2340.29 1812 2390 1812H2450C2499.71 1812 2540 1771.71 2540 1722V1662C2540 1612.29 2499.71 1572 2450 1572H2390ZM2416 1721C2432.57 1721 2446 1707.57 2446 1691C2446 1674.43 2432.57 1661 2416 1661C2399.43 1661 2386 1674.43 2386 1691C2386 1707.57 2399.43 1721 2416 1721Z" fill="#9E7BFF"/>
<path fill-rule="evenodd" clip-rule="evenodd" d="M2693 2978C2739.39 2978 2777 3015.61 2777 3062V3063V3101V3114V3121V3181C2777 3203.09 2759.09 3221 2737 3221C2723.66 3221 2711.85 3214.47 2704.58 3204.43C2703.51 3201.27 2700.52 3199 2697 3199C2693.1 3199 2689.86 3201.79 2689.14 3205.48C2682.03 3214.91 2670.72 3221 2658 3221C2645.28 3221 2633.97 3214.91 2626.86 3205.48C2626.14 3201.79 2622.9 3199 2619 3199C2615.48 3199 2612.49 3201.27 2611.42 3204.43C2604.15 3214.47 2592.34 3221 2579 3221C2556.91 3221 2539 3203.09 2539 3181V3121V3101V3087V3063V3062C2539 3015.61 2576.61 2978 2623 2978H2693Z" fill="#686767"/>
<path fill-rule="evenodd" clip-rule="evenodd" d="M1393 2724C1409.57 2724 1423 2710.57 1423 2694C1423 2693.67 1422.99 2693.33 1422.98 2693H1473C1495.09 2693 1513 2710.91 1513 2733V2825C1513 2826.04 1512.96 2827.07 1512.88 2828.1C1512.96 2829.72 1513 2831.36 1513 2833C1513 2888.23 1468.23 2933 1413 2933H1373C1317.77 2933 1273 2888.23 1273 2833C1273 2831.36 1273.04 2829.72 1273.12 2828.1C1273.04 2827.07 1273 2826.04 1273 2825V2733C1273 2710.91 1290.91 2693 1313 2693H1363.02C1363.01 2693.33 1363 2693.67 1363 2694C1363 2710.57 1376.43 2724 1393 2724Z" fill="#686767"/>
<circle cx="1132" cy="3645" r="30" fill="#E5E5E5"/>
<circle cx="1132" cy="3645" r="30" fill="#E5E5E5"/>
</svg>
