<?xml version="1.0" encoding="UTF-8" standalone="no"?>
<svg
   xmlns:dc="http://purl.org/dc/elements/1.1/"
   xmlns:cc="http://creativecommons.org/ns#"
   xmlns:rdf="http://www.w3.org/1999/02/22-rdf-syntax-ns#"
   xmlns:svg="http://www.w3.org/2000/svg"
   xmlns="http://www.w3.org/2000/svg"
   width="300"
   height="300"
   viewBox="0 0 300 300"
   version="1.1"
   id="svg1032">
  <defs
     id="defs1026" />
  <metadata
     id="metadata1029">
    <rdf:RDF>
      <cc:Work
         rdf:about="">
        <dc:format>image/svg+xml</dc:format>
        <dc:type
           rdf:resource="http://purl.org/dc/dcmitype/StillImage" />
        <dc:title></dc:title>
      </cc:Work>
    </rdf:RDF>
  </metadata>
  <g
     id="layer1">
    <path
       id="path134"
       d="M 110,30 C 65.82,30 30,65.82 30,110 v 61 c 0,1.31 0.03,2.6102 0.09,3.9102 C 30.03,175.9302 30,176.96 30,178 v 42 c 0,27.61 22.39,50 50,50 15.9,0 30.0805,-7.43 39.2305,-19 h 61.539 c 9.15,11.57 23.3305,19 39.2305,19 27.61,0 50,-22.39 50,-50 v -32 c 0,-2.55 -0.1905,-5.05 -0.5605,-7.5 0.37,-3.11 0.5605,-6.28 0.5605,-9.5 V 110 C 270,65.82 234.18,30 190,30 Z m 39.8555,90 a 30,30 0 0 1 0.1445,0 30,30 0 0 1 30,30 30,30 0 0 1 -30,30 30,30 0 0 1 -30,-30 30,30 0 0 1 29.8555,-30 z"
       style="" />
  </g>
</svg>
