<?xml version="1.0" encoding="UTF-8" standalone="no"?>
<svg
   xmlns:dc="http://purl.org/dc/elements/1.1/"
   xmlns:cc="http://creativecommons.org/ns#"
   xmlns:rdf="http://www.w3.org/1999/02/22-rdf-syntax-ns#"
   xmlns:svg="http://www.w3.org/2000/svg"
   xmlns="http://www.w3.org/2000/svg"
   width="300"
   height="300"
   viewBox="0 0 300 300"
   version="1.1"
   id="svg1032">
  <defs
     id="defs1026" />
  <metadata
     id="metadata1029">
    <rdf:RDF>
      <cc:Work
         rdf:about="">
        <dc:format>image/svg+xml</dc:format>
        <dc:type
           rdf:resource="http://purl.org/dc/dcmitype/StillImage" />
        <dc:title></dc:title>
      </cc:Work>
    </rdf:RDF>
  </metadata>
  <g
     id="layer1">
    <path
       id="path154"
       d="M 110,30 C 65.82,30 30,65.82 30,110 v 39 22 49 c 0,27.61 22.39,50 50,50 15.9,0 30.0705,-7.43 39.2305,-19 h 0.1699 c 5.98,-10.74 17.4396,-18 30.5996,-18 13.16,0 24.6196,7.26 30.5996,18 h 0.1699 c 9.16,11.57 23.3305,19 39.2305,19 27.61,0 50,-22.39 50,-50 v -48.9707 -0.029 -61 c 0,-44.18 -35.82,-80 -80,-80 z m 39.8555,79 a 30,30 0 0 1 0.1445,0 30,30 0 0 1 30,30 30,30 0 0 1 -30,30 30,30 0 0 1 -30,-30 30,30 0 0 1 29.8555,-30 z"
       style="" />
  </g>
</svg>
