<?xml version="1.0" encoding="UTF-8" standalone="no"?>
<!-- Created with Inkscape (http://www.inkscape.org/) -->

<svg
   width="247"
   height="122"
   viewBox="0 0 65.352081 32.279167"
   version="1.1"
   id="svg33529"
   xmlns="http://www.w3.org/2000/svg"
   xmlns:svg="http://www.w3.org/2000/svg">
  <defs
     id="defs33526" />
  <path
     id="rect33328"
     style="fill:#00a5fc;fill-rule:evenodd;stroke-width:0.79375"
     d="m 5.55625,0.264583 h 21.16666 c 2.93159,0 5.29167,2.36009 5.29167,5.29167 v 21.16667 c 0,2.93158 -2.36008,5.29166 -5.29167,5.29166 H 5.55625 c -2.93159,0 -5.29167,-2.36008 -5.29167,-5.29166 V 5.556253 c 0,-2.93158 2.36008,-5.29167 5.29167,-5.29167 z" />
  <g
     aria-label="sig"
     id="text33332"
     style="font-size:17.6389px;line-height:1.25;font-family:'Source Code Pro';-inkscape-font-specification:'Source Code Pro, Normal';letter-spacing:-1.12713px;fill:#ffffff;stroke-width:0.264583"
     transform="translate(238.38958,-121.44376)">
    <path
       d="m -231.84925,142.13418 q -1.27,0 -2.34597,-0.38805 -1.07597,-0.4057 -1.86972,-0.9525 l 0.67027,-0.9525 q 0.74084,0.52916 1.62278,0.84666 0.89959,0.3175 2.09903,0.3175 1.09361,0 1.62278,-0.38805 0.54681,-0.4057 0.54681,-0.9525 0,-0.24695 -0.0882,-0.45861 -0.0882,-0.21167 -0.38805,-0.4057 -0.28223,-0.19403 -0.81139,-0.37042 -0.52917,-0.17639 -1.39348,-0.35277 -1.67569,-0.35278 -2.52236,-0.93487 -0.82903,-0.59972 -0.82903,-1.56986 0,-0.51153 0.22931,-0.9525 0.2293,-0.45861 0.67028,-0.77611 0.45861,-0.33514 1.11125,-0.51153 0.67028,-0.19403 1.55222,-0.19403 0.98778,0 1.905,0.33514 0.91722,0.3175 1.55222,0.75848 l -0.70555,0.93486 q -0.59972,-0.4057 -1.32292,-0.65264 -0.72319,-0.24695 -1.55222,-0.24695 -1.09361,0 -1.53459,0.37042 -0.44097,0.37042 -0.44097,0.86431 0,0.56444 0.58208,0.8643 0.58209,0.28222 1.90501,0.56445 1.07597,0.2293 1.76389,0.49389 0.68791,0.24694 1.07597,0.56444 0.40569,0.3175 0.54681,0.70556 0.15875,0.38805 0.15875,0.88194 0,0.52917 -0.24695,0.98778 -0.24694,0.45861 -0.74083,0.81139 -0.47625,0.35278 -1.19945,0.54681 -0.70555,0.21166 -1.62278,0.21166 z"
       id="path33365" />
    <path
       d="m -222.29409,141.92252 v -7.3907 h -3.9864 v -1.18181 h 5.43279 v 8.57251 z m 0.56444,-10.37168 q -0.49389,0 -0.82903,-0.29986 -0.33514,-0.3175 -0.33514,-0.82903 0,-0.51153 0.33514,-0.81139 0.33514,-0.3175 0.82903,-0.3175 0.49389,0 0.82903,0.3175 0.33514,0.29986 0.33514,0.81139 0,0.51153 -0.33514,0.82903 -0.33514,0.29986 -0.82903,0.29986 z"
       id="path33367" />
    <path
       d="m -213.19755,145.87363 q -1.88736,0 -2.92806,-0.61736 -1.02306,-0.61736 -1.02306,-1.76389 0,-0.51153 0.35278,-1.00542 0.37042,-0.49389 1.05834,-0.89958 v -0.0706 q -0.35278,-0.19403 -0.61737,-0.52917 -0.26458,-0.33513 -0.26458,-0.88194 0,-0.4057 0.26458,-0.82903 0.26459,-0.44097 0.75848,-0.77611 v -0.0706 q -0.44098,-0.33514 -0.75848,-0.88194 -0.29986,-0.56445 -0.29986,-1.34056 0,-0.70555 0.26459,-1.27 0.28222,-0.56444 0.74083,-0.9525 0.45861,-0.40569 1.05833,-0.61736 0.61737,-0.22931 1.30528,-0.22931 0.70556,0 1.27,0.21167 h 3.54542 v 1.18181 h -2.2225 q 0.29986,0.29986 0.51153,0.75847 0.21167,0.45861 0.21167,0.97014 0,0.68792 -0.26459,1.23472 -0.24694,0.54681 -0.70555,0.93486 -0.44098,0.37042 -1.05834,0.58209 -0.59972,0.19403 -1.28764,0.19403 -0.33514,0 -0.72319,-0.0706 -0.37042,-0.0882 -0.7232,-0.24695 -0.67027,0.42334 -0.67027,0.98778 0,0.51153 0.45861,0.75848 0.47625,0.2293 1.32291,0.2293 h 1.92264 q 1.65806,0 2.45181,0.45861 0.81139,0.45861 0.81139,1.55223 0,0.59972 -0.33514,1.14653 -0.33514,0.5468 -0.9525,0.9525 -0.61736,0.40569 -1.49931,0.65264 -0.88194,0.24694 -1.97555,0.24694 z m -0.0882,-7.63764 q 0.82903,0 1.39348,-0.54681 0.58208,-0.54681 0.58208,-1.48167 0,-0.44097 -0.15875,-0.81139 -0.15875,-0.37041 -0.42333,-0.635 -0.26459,-0.26458 -0.635,-0.40569 -0.35278,-0.15875 -0.75848,-0.15875 -0.40569,0 -0.77611,0.15875 -0.35278,0.14111 -0.61736,0.40569 -0.26458,0.26459 -0.42333,0.635 -0.15875,0.37042 -0.15875,0.81139 0,0.93486 0.58208,1.48167 0.58208,0.54681 1.39347,0.54681 z m 0.19403,6.57931 q 0.74084,0 1.34056,-0.14112 0.59972,-0.14111 1.02305,-0.38805 0.42334,-0.22931 0.635,-0.54681 0.22931,-0.29986 0.22931,-0.635 0,-0.61736 -0.49389,-0.82903 -0.47625,-0.21166 -1.46403,-0.21166 h -1.67569 q -0.37042,0 -0.70556,-0.0353 -0.3175,-0.0176 -0.59972,-0.10583 -0.61736,0.33513 -0.86431,0.68791 -0.2293,0.37042 -0.2293,0.74084 0,0.67028 0.70555,1.05833 0.7232,0.4057 2.09903,0.4057 z"
       id="path33369" />
  </g>
  <g
     aria-label="chain"
     id="text33336"
     style="font-size:11.2889px;line-height:1.25;font-family:'Source Code Pro';-inkscape-font-specification:'Source Code Pro, Normal';letter-spacing:-1.12713px;stroke-width:0.264583;fill:#ffffff"
     transform="translate(238.38958,-121.44376)">
    <path
       d="m -201.14612,132.42714 q -0.64347,0 -1.19662,-0.19191 -0.54187,-0.19191 -0.94827,-0.55316 -0.4064,-0.37253 -0.63218,-0.90311 -0.22578,-0.54187 -0.22578,-1.2192 0,-0.68863 0.23707,-1.2192 0.24836,-0.54187 0.66605,-0.9144 0.41769,-0.37254 0.97084,-0.56445 0.56445,-0.19191 1.18534,-0.19191 0.67733,0 1.16275,0.23707 0.49671,0.23706 0.83538,0.56444 l -0.46284,0.59831 q -0.33867,-0.29351 -0.7112,-0.46284 -0.36125,-0.16934 -0.79023,-0.16934 -0.47413,0 -0.86924,0.15805 -0.39511,0.14675 -0.67734,0.42898 -0.27093,0.28222 -0.42898,0.67733 -0.15804,0.38382 -0.15804,0.85796 0,0.47413 0.14676,0.85795 0.15804,0.38383 0.42897,0.66605 0.28223,0.27093 0.66605,0.42898 0.39511,0.14675 0.86924,0.14675 0.50801,0 0.92569,-0.19191 0.42898,-0.2032 0.76765,-0.49671 l 0.41769,0.59831 q -0.46285,0.4064 -1.016,0.63218 -0.55316,0.22578 -1.16276,0.22578 z"
       id="path33372"
       style="fill:#ffffff" />
    <path
       d="m -198.36041,132.29167 v -8.0377 h 0.92569 v 2.19005 l -0.0564,1.29822 h 0.0339 q 0.42898,-0.46284 0.9144,-0.76764 0.49671,-0.3048 1.14018,-0.3048 0.98214,0 1.43369,0.56444 0.46285,0.55316 0.46285,1.64818 v 3.40925 h -0.92569 v -3.28507 q 0,-0.77893 -0.29351,-1.15147 -0.29352,-0.38382 -0.97085,-0.38382 -0.24836,0 -0.46284,0.0677 -0.2032,0.0564 -0.4064,0.18063 -0.20321,0.12418 -0.41769,0.31609 -0.21449,0.18062 -0.45156,0.42897 v 3.82694 z"
       id="path33374"
       style="fill:#ffffff" />
    <path
       d="m -190.99141,132.42714 q -0.38382,0 -0.72249,-0.11289 -0.33866,-0.1016 -0.59831,-0.29351 -0.24836,-0.2032 -0.39511,-0.48542 -0.14676,-0.29352 -0.14676,-0.66605 0,-0.46284 0.21449,-0.80151 0.22578,-0.34996 0.69991,-0.59831 0.48543,-0.24836 1.24178,-0.4064 0.75636,-0.15805 1.81752,-0.24836 -0.0113,-0.28222 -0.0903,-0.53058 -0.079,-0.24835 -0.24836,-0.42898 -0.16933,-0.19191 -0.45156,-0.3048 -0.27093,-0.11289 -0.66604,-0.11289 -0.54187,0 -1.03858,0.21449 -0.49671,0.2032 -0.88053,0.44027 l -0.36125,-0.63218 q 0.2032,-0.13546 0.47413,-0.27093 0.28223,-0.14676 0.58703,-0.25965 0.31609,-0.11288 0.66604,-0.18062 0.34996,-0.079 0.7112,-0.079 1.12889,0 1.67076,0.62089 0.55316,0.6096 0.55316,1.63689 v 3.36409 h -0.75636 l -0.079,-0.74507 h -0.0339 q -0.46284,0.36125 -1.02729,0.62089 -0.55316,0.25965 -1.14018,0.25965 z m 0.24836,-0.74507 q 0.47413,0 0.92569,-0.2032 0.46284,-0.21449 0.93698,-0.6096 v -1.44498 q -0.88054,0.0677 -1.47885,0.19191 -0.58702,0.12418 -0.94827,0.3048 -0.34995,0.16934 -0.49671,0.39511 -0.14675,0.21449 -0.14675,0.48543 0,0.23706 0.1016,0.4064 0.1016,0.15804 0.25964,0.27093 0.16933,0.1016 0.38382,0.15805 0.22578,0.0452 0.46285,0.0452 z"
       id="path33376"
       style="fill:#ffffff" />
    <path
       d="m -184.55938,132.29167 v -4.73005 h -2.5513 v -0.75635 h 3.47699 v 5.4864 z m 0.36124,-6.63787 q -0.31609,0 -0.53058,-0.19191 -0.21449,-0.2032 -0.21449,-0.53058 0,-0.32738 0.21449,-0.51929 0.21449,-0.2032 0.53058,-0.2032 0.31609,0 0.53058,0.2032 0.21449,0.19191 0.21449,0.51929 0,0.32738 -0.21449,0.53058 -0.21449,0.19191 -0.53058,0.19191 z"
       id="path33378"
       style="fill:#ffffff" />
    <path
       d="m -181.43501,132.29167 v -5.4864 h 0.76765 l 0.079,0.93697 h 0.0451 q 0.42898,-0.46284 0.92569,-0.76764 0.49672,-0.3048 1.14018,-0.3048 0.98214,0 1.43369,0.56444 0.46285,0.55316 0.46285,1.64818 v 3.40925 h -0.92569 v -3.28507 q 0,-0.77893 -0.29351,-1.15147 -0.29351,-0.38382 -0.97085,-0.38382 -0.24835,0 -0.46284,0.0677 -0.2032,0.0564 -0.4064,0.18063 -0.2032,0.12418 -0.41769,0.31609 -0.21449,0.18062 -0.45156,0.42897 v 3.82694 z"
       id="path33380"
       style="fill:#ffffff" />
  </g>
  <path
     id="rect33338"
     style="fill:#00a5fc;fill-rule:evenodd;stroke-width:0.79375"
     d="m 63.76458,9.525013 h 1.32292 v 1.32291 h -1.32292 z" />
</svg>
