<?xml version="1.0" encoding="UTF-8" standalone="no"?>
<svg
   xmlns:dc="http://purl.org/dc/elements/1.1/"
   xmlns:cc="http://creativecommons.org/ns#"
   xmlns:rdf="http://www.w3.org/1999/02/22-rdf-syntax-ns#"
   xmlns:svg="http://www.w3.org/2000/svg"
   xmlns="http://www.w3.org/2000/svg"
   xmlns:sodipodi="http://sodipodi.sourceforge.net/DTD/sodipodi-0.dtd"
   xmlns:inkscape="http://www.inkscape.org/namespaces/inkscape"
   width="300"
   height="300"
   viewBox="0 0 300 300"
   version="1.1"
   id="svg1032"
   inkscape:version="1.0.2 (e86c870879, 2021-01-15)"
   sodipodi:docname="1.svg">
  <defs
     id="defs1026" />
  <sodipodi:namedview
     id="base"
     pagecolor="#ffffff"
     bordercolor="#666666"
     borderopacity="1.0"
     inkscape:pageopacity="0.0"
     inkscape:pageshadow="2"
     inkscape:zoom="1.4"
     inkscape:cx="157.39817"
     inkscape:cy="116.12188"
     inkscape:document-units="px"
     inkscape:current-layer="layer1"
     inkscape:document-rotation="0"
     showgrid="true"
     units="px"
     inkscape:window-width="960"
     inkscape:window-height="1051"
     inkscape:window-x="960"
     inkscape:window-y="0"
     inkscape:window-maximized="0">
    <inkscape:grid
       type="xygrid"
       id="grid1595" />
  </sodipodi:namedview>
  <metadata
     id="metadata1029">
    <rdf:RDF>
      <cc:Work
         rdf:about="">
        <dc:format>image/svg+xml</dc:format>
        <dc:type
           rdf:resource="http://purl.org/dc/dcmitype/StillImage" />
        <dc:title></dc:title>
      </cc:Work>
    </rdf:RDF>
  </metadata>
  <g
     inkscape:label="Layer 1"
     inkscape:groupmode="layer"
     id="layer1">
    <path
       fill-rule="evenodd"
       clip-rule="evenodd"
       d="m 118,30 c 11.95,0 22.88,4.37 31.28,11.59 5.5,6.37 13.64,10.41 22.72,10.41 8.75,0 16.63,-3.75 22.11,-9.73 C 202.17,34.66 213.04,30 225,30 c 24.85,0 45,20.15 45,45 v 9 19 46 66 9 c 0,25.41 -20.59,46 -46,46 h -41 c -11.6,0 -22.19,-4.29 -30.28,-11.37 C 147.23,251.55 138.65,247 129,247 c -7.88,0 -15.04,3.04 -20.4,8 h -0.06 c -0.12,0.14 -0.25,0.28 -0.37,0.41 -0.53,0.51 -1.04,1.04 -1.53,1.59 -8.13,8.04 -19.3,13 -31.64,13 -24.85,0 -45,-20.15 -45,-45 V 215 193 78 78 75 c 0,-24.85 20.15,-45 45,-45 0.49,0 0.99,0.01 1.48,0.02 C 76.98,30.01 77.49,30 78,30 Z"
       
       id="path144"
       style="" />
  </g>
</svg>
