<?xml version="1.0" encoding="UTF-8" standalone="no"?>
<svg
   xmlns:dc="http://purl.org/dc/elements/1.1/"
   xmlns:cc="http://creativecommons.org/ns#"
   xmlns:rdf="http://www.w3.org/1999/02/22-rdf-syntax-ns#"
   xmlns:svg="http://www.w3.org/2000/svg"
   xmlns="http://www.w3.org/2000/svg"
   xmlns:sodipodi="http://sodipodi.sourceforge.net/DTD/sodipodi-0.dtd"
   xmlns:inkscape="http://www.inkscape.org/namespaces/inkscape"
   width="300"
   height="300"
   viewBox="0 0 300 300"
   version="1.1"
   id="svg1032"
   inkscape:version="1.0.2 (e86c870879, 2021-01-15)"
   sodipodi:docname="2.svg">
  <defs
     id="defs1026" />
  <sodipodi:namedview
     id="base"
     pagecolor="#ffffff"
     bordercolor="#666666"
     borderopacity="1.0"
     inkscape:pageopacity="0.0"
     inkscape:pageshadow="2"
     inkscape:zoom="1.4"
     inkscape:cx="157.39817"
     inkscape:cy="116.12188"
     inkscape:document-units="px"
     inkscape:current-layer="layer1"
     inkscape:document-rotation="0"
     showgrid="true"
     units="px"
     inkscape:window-width="960"
     inkscape:window-height="1051"
     inkscape:window-x="960"
     inkscape:window-y="0"
     inkscape:window-maximized="0">
    <inkscape:grid
       type="xygrid"
       id="grid1595" />
  </sodipodi:namedview>
  <metadata
     id="metadata1029">
    <rdf:RDF>
      <cc:Work
         rdf:about="">
        <dc:format>image/svg+xml</dc:format>
        <dc:type
           rdf:resource="http://purl.org/dc/dcmitype/StillImage" />
        <dc:title></dc:title>
      </cc:Work>
    </rdf:RDF>
  </metadata>
  <g
     inkscape:label="Layer 1"
     inkscape:groupmode="layer"
     id="layer1">
    <path
       fill-rule="evenodd"
       clip-rule="evenodd"
       d="m 162.05,45.06 c -0.01,0 -0.02,0 -0.03,0 C 156.85,36.06 147.13,30 136,30 H 60 C 43.43,30 30,43.43 30,60 v 165 15 c 0,16.57 13.43,30 30,30 11.1,0 20.8,-6.03 25.99,-15 h 0.02 c 5.19,-8.97 14.89,-15 25.99,-15 11.08,0 20.75,6.01 25.95,14.94 h 0.03 c 5.17,9 14.89,15.06 26.02,15.06 h 76 c 16.57,0 30,-13.43 30,-30 V 75 60 c 0,-16.57 -13.43,-30 -30,-30 -11.1,0 -20.8,6.03 -25.99,15 h -0.02 C 208.8,53.97 199.1,60 188,60 176.92,60 167.25,53.99 162.05,45.06 Z"
       
       id="path122"
       style="" />
  </g>
</svg>
