<?xml version="1.0" encoding="UTF-8" standalone="no"?>
<svg
   xmlns:dc="http://purl.org/dc/elements/1.1/"
   xmlns:cc="http://creativecommons.org/ns#"
   xmlns:rdf="http://www.w3.org/1999/02/22-rdf-syntax-ns#"
   xmlns:svg="http://www.w3.org/2000/svg"
   xmlns="http://www.w3.org/2000/svg"
   xmlns:sodipodi="http://sodipodi.sourceforge.net/DTD/sodipodi-0.dtd"
   xmlns:inkscape="http://www.inkscape.org/namespaces/inkscape"
   width="300"
   height="300"
   viewBox="0 0 300 300"
   version="1.1"
   id="svg1032"
   inkscape:version="1.0.2 (e86c870879, 2021-01-15)"
   sodipodi:docname="3.svg">
  <defs
     id="defs1026" />
  <sodipodi:namedview
     id="base"
     pagecolor="#ffffff"
     bordercolor="#666666"
     borderopacity="1.0"
     inkscape:pageopacity="0.0"
     inkscape:pageshadow="2"
     inkscape:zoom="1.4"
     inkscape:cx="157.39817"
     inkscape:cy="116.12188"
     inkscape:document-units="px"
     inkscape:current-layer="layer1"
     inkscape:document-rotation="0"
     showgrid="true"
     units="px"
     inkscape:window-width="960"
     inkscape:window-height="1051"
     inkscape:window-x="960"
     inkscape:window-y="0"
     inkscape:window-maximized="0">
    <inkscape:grid
       type="xygrid"
       id="grid1595" />
  </sodipodi:namedview>
  <metadata
     id="metadata1029">
    <rdf:RDF>
      <cc:Work
         rdf:about="">
        <dc:format>image/svg+xml</dc:format>
        <dc:type
           rdf:resource="http://purl.org/dc/dcmitype/StillImage" />
        <dc:title></dc:title>
      </cc:Work>
    </rdf:RDF>
  </metadata>
  <g
     inkscape:label="Layer 1"
     inkscape:groupmode="layer"
     id="layer1">
    <path
       fill-rule="evenodd"
       clip-rule="evenodd"
       d="M 30,225 V 215 193 78 78 75 c 0,-24.85 20.15,-45 45,-45 0.49,0 0.99,0.01 1.48,0.02 C 76.98,30.01 77.49,30 78,30 h 69 c 13.22,0 25.2,5.35 33.88,14 h 11.5 c 8.2,-8.62 19.78,-14 32.62,-14 24.85,0 45,20.15 45,45 v 9 18.95 0.05 46 66 9 c 0,25.41 -20.59,46 -46,46 h -66 c -13.46,0 -25.57,-5.78 -33.99,-15 H 108.54 C 100.3,264.21 88.33,270 75,270 50.15,270 30,249.85 30,225 Z"
       
       id="path96"
       style="" />
  </g>
</svg>
