<?xml version="1.0" encoding="UTF-8" standalone="no"?>
<svg
   width="485"
   height="230"
   viewBox="0 0 485 230"
   version="1.1"
   xml:space="preserve"
   style="clip-rule:evenodd;fill-rule:evenodd;stroke-linejoin:round;stroke-miterlimit:2"
   id="svg1133"
   xmlns="http://www.w3.org/2000/svg"
   xmlns:svg="http://www.w3.org/2000/svg"><defs
   id="defs1137">
        
        <clipPath
   id="_clip1">
            <rect
   x="5"
   y="35.019001"
   width="452.147"
   height="229.963"
   id="rect1109" />
        </clipPath>
        
    </defs>
    <rect
   x="0"
   y="0"
   width="416.52878"
   height="230"
   style="fill:none;stroke-width:0.959881"
   id="rect1107" /><g
   clip-path="url(#_clip1)"
   id="g1130"
   transform="matrix(0.92122661,0,0,1.0002408,-4.6061331,-35.027435)">
            <g
   transform="matrix(0.984585,0,0,0.906878,-21.2093,8.94014)"
   id="g1114">
                <path
   d="m 280.196,92.171 c 0,-34.988 -28.406,-63.394 -63.394,-63.394 H 90.014 c -34.988,0 -63.394,28.406 -63.394,63.394 v 126.788 c 0,34.988 28.406,63.394 63.394,63.394 h 126.788 c 34.988,0 63.394,-28.406 63.394,-63.394 z"
   style="fill:#00a8ff"
   id="path1112" />
            </g>
            <g
   transform="matrix(1.08569,0,0,1,-94.1186,51.8286)"
   id="g1128">
                <g
   transform="matrix(141.667,0,0,141.667,93.1564,133.04)"
   id="g1118">
                    <path
   d="M 0.31,0.012 C 0.262,0.012 0.218,0.005 0.177,-0.011 0.136,-0.025 0.101,-0.043 0.071,-0.064 l 0.038,-0.054 c 0.028,0.02 0.059,0.036 0.093,0.048 0.033,0.012 0.073,0.018 0.118,0.018 0.041,0 0.072,-0.007 0.093,-0.023 0.02,-0.015 0.03,-0.032 0.03,-0.053 0,-0.009 -0.002,-0.018 -0.005,-0.026 C 0.435,-0.162 0.428,-0.17 0.417,-0.177 0.405,-0.184 0.39,-0.191 0.37,-0.198 0.35,-0.205 0.324,-0.211 0.291,-0.218 0.228,-0.231 0.18,-0.249 0.149,-0.272 0.117,-0.294 0.101,-0.323 0.101,-0.36 c 0,-0.019 0.004,-0.038 0.013,-0.055 0.009,-0.017 0.021,-0.031 0.039,-0.044 0.016,-0.012 0.038,-0.022 0.063,-0.029 0.025,-0.007 0.054,-0.01 0.087,-0.01 0.037,0 0.073,0.006 0.108,0.018 0.035,0.013 0.064,0.027 0.088,0.044 l -0.04,0.053 C 0.436,-0.398 0.411,-0.411 0.384,-0.42 0.357,-0.429 0.327,-0.434 0.296,-0.434 c -0.041,0 -0.07,0.007 -0.087,0.021 -0.017,0.014 -0.025,0.03 -0.025,0.049 0,0.021 0.011,0.037 0.033,0.048 0.022,0.011 0.058,0.022 0.108,0.033 0.041,0.009 0.074,0.018 0.1,0.027 0.026,0.01 0.047,0.021 0.062,0.033 0.014,0.012 0.025,0.025 0.031,0.04 0.005,0.015 0.008,0.031 0.008,0.05 0,0.02 -0.005,0.039 -0.014,0.056 C 0.503,-0.06 0.489,-0.044 0.471,-0.031 0.452,-0.018 0.43,-0.007 0.403,0.001 0.376,0.008 0.345,0.012 0.31,0.012 Z"
   style="fill:#f6f6f6;fill-rule:nonzero"
   id="path1116" />
                </g>
                <g
   transform="matrix(141.667,0,0,141.667,161.156,133.04)"
   id="g1122">
                    <path
   d="M 0.316,0 V -0.419 H 0.09 V -0.486 H 0.398 V 0 Z m 0.032,-0.588 c -0.019,0 -0.034,-0.006 -0.047,-0.018 -0.013,-0.011 -0.019,-0.027 -0.019,-0.046 0,-0.019 0.006,-0.035 0.019,-0.047 0.013,-0.011 0.028,-0.017 0.047,-0.017 0.019,0 0.034,0.006 0.047,0.017 0.013,0.012 0.019,0.028 0.019,0.047 0,0.019 -0.006,0.035 -0.019,0.046 -0.013,0.012 -0.028,0.018 -0.047,0.018 z"
   style="fill:#f6f6f6;fill-rule:nonzero"
   id="path1120" />
                </g>
                <g
   transform="matrix(141.667,0,0,141.667,229.156,133.04)"
   id="g1126">
                    <path
   d="M 0.296,0.224 C 0.225,0.224 0.169,0.212 0.131,0.189 0.092,0.166 0.072,0.132 0.072,0.089 0.072,0.07 0.079,0.051 0.093,0.032 0.106,0.013 0.126,-0.004 0.152,-0.019 V -0.023 C 0.139,-0.03 0.127,-0.04 0.117,-0.053 0.107,-0.066 0.102,-0.082 0.102,-0.103 c 0,-0.015 0.005,-0.031 0.015,-0.048 0.01,-0.016 0.024,-0.03 0.043,-0.043 V -0.198 C 0.143,-0.211 0.129,-0.228 0.118,-0.249 0.106,-0.27 0.1,-0.295 0.1,-0.324 c 0,-0.027 0.005,-0.051 0.016,-0.072 0.01,-0.021 0.024,-0.04 0.041,-0.055 0.017,-0.015 0.038,-0.026 0.061,-0.035 0.023,-0.008 0.047,-0.012 0.073,-0.012 0.027,0 0.051,0.004 0.072,0.012 h 0.201 v 0.067 H 0.438 c 0.011,0.011 0.021,0.026 0.029,0.043 0.008,0.017 0.012,0.036 0.012,0.055 0,0.026 -0.005,0.049 -0.014,0.07 -0.01,0.021 -0.023,0.038 -0.04,0.052 -0.017,0.015 -0.037,0.026 -0.06,0.033 -0.024,0.008 -0.048,0.012 -0.074,0.012 -0.013,0 -0.026,-0.002 -0.04,-0.005 -0.015,-0.003 -0.029,-0.007 -0.042,-0.013 -0.025,0.016 -0.038,0.035 -0.038,0.056 0,0.019 0.009,0.033 0.027,0.042 0.017,0.009 0.042,0.014 0.074,0.014 h 0.109 c 0.063,0 0.109,0.009 0.14,0.026 0.03,0.017 0.045,0.047 0.045,0.088 0,0.023 -0.006,0.044 -0.019,0.065 C 0.534,0.14 0.516,0.158 0.493,0.173 0.47,0.188 0.441,0.201 0.408,0.21 0.375,0.219 0.337,0.224 0.296,0.224 Z M 0.291,-0.209 c 0.031,0 0.058,-0.01 0.08,-0.031 C 0.392,-0.261 0.403,-0.289 0.403,-0.324 0.403,-0.341 0.4,-0.356 0.394,-0.37 0.388,-0.384 0.38,-0.396 0.37,-0.406 0.36,-0.416 0.348,-0.424 0.335,-0.43 0.321,-0.435 0.306,-0.438 0.291,-0.438 c -0.015,0 -0.03,0.003 -0.043,0.008 -0.014,0.006 -0.026,0.014 -0.036,0.024 -0.01,0.01 -0.018,0.022 -0.024,0.036 -0.006,0.014 -0.009,0.029 -0.009,0.046 0,0.035 0.011,0.063 0.033,0.084 0.022,0.021 0.048,0.031 0.079,0.031 z M 0.302,0.164 C 0.33,0.164 0.355,0.161 0.378,0.156 0.401,0.151 0.42,0.143 0.436,0.135 0.452,0.126 0.464,0.115 0.473,0.104 0.481,0.092 0.485,0.08 0.485,0.067 0.485,0.044 0.476,0.028 0.458,0.02 0.439,0.012 0.411,0.008 0.374,0.008 H 0.279 c -0.014,0 -0.027,0 -0.039,-0.001 C 0.227,0.006 0.216,0.003 0.205,0 0.182,0.013 0.166,0.026 0.157,0.04 0.148,0.053 0.143,0.067 0.143,0.081 c 0,0.025 0.014,0.046 0.041,0.061 0.027,0.015 0.066,0.022 0.118,0.022 z"
   style="fill:#f6f6f6;fill-rule:nonzero"
   id="path1124" />
                </g>
            </g>
        </g>
<g
   aria-label="chain"
   id="text3421"
   style="font-size:85.3333px;line-height:1.25;font-family:'Source Code Pro';-inkscape-font-specification:'Source Code Pro';letter-spacing:0px;fill:#000000"><path
     d="m 259.52532,80.977315 q -4.864,0 -9.04533,-1.450666 -4.096,-1.450666 -7.168,-4.181331 -3.07199,-2.815999 -4.77866,-6.826664 -1.70667,-4.095998 -1.70667,-9.215996 0,-5.205331 1.792,-9.215996 1.87734,-4.095999 5.03467,-6.911998 3.15733,-2.815998 7.33866,-4.266664 4.26667,-1.450667 8.96,-1.450667 5.12,0 8.78933,1.792 3.75466,1.791999 6.31466,4.266665 l -3.49866,4.522664 q -2.56,-2.218665 -5.376,-3.498665 -2.73067,-1.279999 -5.97333,-1.279999 -3.584,0 -6.57067,1.194666 -2.98666,1.109333 -5.11999,3.242665 -2.048,2.133333 -3.24267,5.119998 -1.19467,2.901332 -1.19467,6.485331 0,3.583998 1.10934,6.48533 1.19466,2.901332 3.24266,5.034665 2.13333,2.047999 5.03467,3.242665 2.98666,1.109333 6.57066,1.109333 3.84,0 6.99733,-1.450666 3.24267,-1.535999 5.80267,-3.754665 l 3.15733,4.522665 q -3.49867,3.071998 -7.68,4.778664 -4.18133,1.706666 -8.78933,1.706666 z"
     id="path24484"
     style="fill:currentColor" /><path
     d="M 289.10264,79.953316 V 19.196008 h 6.99733 v 16.55466 l -0.42666,9.813329 h 0.256 q 3.24266,-3.498665 6.91199,-5.802664 3.75467,-2.304 8.61867,-2.304 7.42399,0 10.83732,4.266665 3.49867,4.181332 3.49867,12.458662 v 25.770656 h -6.99733 v -24.83199 q 0,-5.887997 -2.21867,-8.703996 -2.21866,-2.901332 -7.33866,-2.901332 -1.87733,0 -3.49867,0.511999 -1.53599,0.426667 -3.07199,1.365333 -1.536,0.938666 -3.15734,2.389332 -1.62133,1.365333 -3.41333,3.242666 v 28.927988 z"
     id="path24486"
     /><path
     d="m 353.32528,80.977315 q -2.90133,0 -5.46133,-0.853333 -2.56,-0.767999 -4.52266,-2.218665 -1.87734,-1.536 -2.98667,-3.669332 -1.10933,-2.218666 -1.10933,-5.034665 0,-3.498665 1.62133,-6.058664 1.70667,-2.645332 5.29066,-4.522665 3.66934,-1.877332 9.38667,-3.071998 5.71733,-1.194667 13.73866,-1.877333 -0.0853,-2.133332 -0.68267,-4.010665 -0.59733,-1.877333 -1.87733,-3.242665 -1.28,-1.450666 -3.41333,-2.303999 -2.048,-0.853333 -5.03467,-0.853333 -4.096,0 -7.85066,1.621332 -3.75467,1.536 -6.656,3.327999 l -2.73066,-4.778665 q 1.536,-1.023999 3.58399,-2.047999 2.13334,-1.109333 4.43734,-1.962666 2.38933,-0.853333 5.03466,-1.365332 2.64533,-0.597334 5.376,-0.597334 8.53333,0 12.62933,4.693332 4.18133,4.607998 4.18133,12.373328 v 25.429323 h -5.71733 l -0.59734,-5.631998 h -0.256 q -3.49866,2.730666 -7.76533,4.693331 -4.18133,1.962666 -8.61866,1.962666 z m 1.87733,-5.631997 q 3.584,0 6.99733,-1.536 3.49867,-1.621332 7.08267,-4.607998 V 58.278658 q -6.656,0.512 -11.17866,1.450666 -4.43734,0.938666 -7.168,2.303999 -2.64533,1.28 -3.75467,2.986666 -1.10933,1.621332 -1.10933,3.669331 0,1.792 0.768,3.071999 0.768,1.194666 1.96267,2.047999 1.28,0.768 2.90133,1.194666 1.70666,0.341334 3.49866,0.341334 z"
     id="path24488"
     /><path
     d="M 405.65526,79.953316 V 44.198664 h -19.28532 v -5.717331 h 26.28265 v 41.471983 z m 2.73067,-50.175979 q -2.38933,0 -4.01067,-1.450666 -1.62133,-1.536 -1.62133,-4.010665 0,-2.474666 1.62133,-3.925332 1.62134,-1.535999 4.01067,-1.535999 2.38933,0 4.01066,1.535999 1.62134,1.450666 1.62134,3.925332 0,2.474665 -1.62134,4.010665 -1.62133,1.450666 -4.01066,1.450666 z"
     id="path24490"
     /><path
     d="M 433.75259,79.953316 V 38.481333 h 5.80266 l 0.59733,7.082664 h 0.34134 q 3.24266,-3.498665 6.99733,-5.802664 3.75466,-2.304 8.61866,-2.304 7.424,0 10.83733,4.266665 3.49866,4.181332 3.49866,12.458662 v 25.770656 h -6.99733 v -24.83199 q 0,-5.887997 -2.21866,-8.703996 -2.21867,-2.901332 -7.33867,-2.901332 -1.87733,0 -3.49866,0.511999 -1.536,0.426667 -3.072,1.365333 -1.536,0.938666 -3.15733,2.389332 -1.62133,1.365333 -3.41333,3.242666 v 28.927988 z"
     id="path24492"
     /></g><rect
   style="fill:#00a8ff;fill-opacity:1;fill-rule:evenodd;stroke-width:3"
   id="rect11037"
   width="10"
   height="10"
   x="475"
   y="69.999596" /></svg>
