<?xml version="1.0" encoding="UTF-8" standalone="no"?>
<svg
   xmlns:dc="http://purl.org/dc/elements/1.1/"
   xmlns:cc="http://creativecommons.org/ns#"
   xmlns:rdf="http://www.w3.org/1999/02/22-rdf-syntax-ns#"
   xmlns:svg="http://www.w3.org/2000/svg"
   xmlns="http://www.w3.org/2000/svg"
   xmlns:sodipodi="http://sodipodi.sourceforge.net/DTD/sodipodi-0.dtd"
   xmlns:inkscape="http://www.inkscape.org/namespaces/inkscape"
   width="144.99982"
   height="144.99982"
   viewBox="0 0 38.364535 38.364535"
   version="1.1"
   id="svg8"
   sodipodi:docname="qr.svg"
   inkscape:version="1.0.2 (e86c870879, 2021-01-15)">
  <defs
     id="defs2" />
  <sodipodi:namedview
     id="base"
     pagecolor="#ffffff"
     bordercolor="#666666"
     borderopacity="1.0"
     inkscape:pageopacity="0.0"
     inkscape:pageshadow="2"
     inkscape:zoom="1.979899"
     inkscape:cx="134.82261"
     inkscape:cy="45.906261"
     inkscape:document-units="mm"
     inkscape:current-layer="layer1"
     inkscape:document-rotation="0"
     showgrid="false"
     inkscape:window-width="1920"
     inkscape:window-height="1051"
     inkscape:window-x="0"
     inkscape:window-y="0"
     inkscape:window-maximized="1"
     fit-margin-top="0"
     fit-margin-left="0"
     fit-margin-right="0"
     fit-margin-bottom="0"
     units="px" />
  <metadata
     id="metadata5">
    <rdf:RDF>
      <cc:Work
         rdf:about="">
        <dc:format>image/svg+xml</dc:format>
        <dc:type
           rdf:resource="http://purl.org/dc/dcmitype/StillImage" />
        <dc:title></dc:title>
      </cc:Work>
    </rdf:RDF>
  </metadata>
  <g
     inkscape:label="Layer 1"
     inkscape:groupmode="layer"
     id="layer1"
     transform="translate(-111.12466,-153.45866)">
    <g
       style="stroke:none"
       id="g840"
       transform="matrix(0.264583,0,0,0.264583,105.833,148.167)"
       inkscape:export-xdpi="266.67001"
       inkscape:export-ydpi="266.67001">
      <path
         d="m 159.975,165 h -4.95 C 155.0112,165 155,164.9888 155,164.975 v -9.95 c 0,-0.0138 0.0112,-0.025 0.025,-0.025 h 4.95 c 0.0138,0 0.025,0.0112 0.025,0.025 v 9.95 c 0,0.0138 -0.0112,0.025 -0.025,0.025 z m -10,0 h -4.95 C 145.0112,165 145,164.9888 145,164.975 v -9.95 c 0,-0.0138 0.0112,-0.025 0.025,-0.025 h 4.95 c 0.0138,0 0.025,0.0112 0.025,0.025 v 9.95 c 0,0.0138 -0.0112,0.025 -0.025,0.025 z m -15,0 h -29.95 C 105.0112,165 105,164.9888 105,164.975 v -14.95 c 0,-0.0138 0.0112,-0.025 0.025,-0.025 h 4.95 c 0.0138,0 0.025,-0.0112 0.025,-0.025 v -14.95 c 0,-0.0138 0.0112,-0.025 0.025,-0.025 h 4.95 c 0.0138,0 0.025,0.0112 0.025,0.025 v 24.95 c 0,0.0138 0.0112,0.025 0.025,0.025 h 4.95 c 0.0138,0 0.025,-0.0112 0.025,-0.025 v -24.95 C 120,135.0112 119.9888,135 119.975,135 h -4.95 C 115.0112,135 115,134.9888 115,134.975 v -4.95 c 0,-0.0138 0.0112,-0.025 0.025,-0.025 h 4.95 c 0.0138,0 0.025,-0.0112 0.025,-0.025 v -4.95 C 120,125.0112 119.9888,125 119.975,125 h -4.95 c -0.0138,0 -0.025,0.0112 -0.025,0.025 v 4.95 c 0,0.0138 -0.0112,0.025 -0.025,0.025 h -4.95 C 110.0112,130 110,129.9888 110,129.975 v -9.95 c 0,-0.0138 0.0112,-0.025 0.025,-0.025 h 14.95 c 0.0138,0 0.025,-0.0112 0.025,-0.025 v -4.95 c 0,-0.0138 0.0112,-0.025 0.025,-0.025 h 4.95 c 0.0138,0 0.025,-0.0112 0.025,-0.025 v -4.95 c 0,-0.0138 0.0112,-0.025 0.025,-0.025 h 4.95 c 0.0138,0 0.025,-0.0112 0.025,-0.025 v -4.95 c 0,-0.0138 0.0112,-0.025 0.025,-0.025 h 4.95 c 0.0138,0 0.025,0.0112 0.025,0.025 v 9.95 c 0,0.0138 -0.0112,0.025 -0.025,0.025 h -4.95 c -0.0138,0 -0.025,0.0112 -0.025,0.025 v 4.95 c 0,0.0138 0.0112,0.025 0.025,0.025 h 14.95 c 0.0138,0 0.025,-0.0112 0.025,-0.025 v -9.95 C 150,110.0112 149.9888,110 149.975,110 h -4.95 C 145.0112,110 145,109.9888 145,109.975 v -4.95 C 145,105.0112 144.9888,105 144.975,105 h -4.95 C 140.0112,105 140,104.9888 140,104.975 v -4.95 C 140,100.0112 139.9888,100 139.975,100 h -9.95 C 130.01119,100 130,99.988807 130,99.975 v -4.95 C 130,95.01119 130.0112,95 130.025,95 h 4.95 C 134.9888,95 135,94.98881 135,94.975 v -4.95 C 135,90.011193 134.98881,90 134.975,90 h -4.95 C 130.01119,90 130,89.988807 130,89.975 v -4.95 C 130,85.01119 130.0112,85 130.025,85 h 9.95 c 0.0138,0 0.025,0.01119 0.025,0.025 v 4.95 c 0,0.01381 0.0112,0.025 0.025,0.025 h 4.95 c 0.0138,0 0.025,0.01119 0.025,0.025 v 9.95 c 0,0.01381 0.0112,0.025 0.025,0.025 h 4.95 c 0.0138,0 0.025,0.0112 0.025,0.025 v 4.95 c 0,0.0138 0.0112,0.025 0.025,0.025 h 4.95 c 0.0138,0 0.025,-0.0112 0.025,-0.025 v -9.95 C 155,95.011193 154.98881,95 154.975,95 h -4.95 C 150.01119,95 150,94.988807 150,94.975 v -9.95 C 150,85.011193 149.98881,85 149.975,85 h -4.95 C 145.01119,85 145,84.988807 145,84.975 v -4.95 C 145,80.01119 145.0112,80 145.025,80 h 9.95 c 0.0138,0 0.025,0.01119 0.025,0.025 v 4.95 c 0,0.01381 0.0112,0.025 0.025,0.025 h 9.95 c 0.0138,0 0.025,0.01119 0.025,0.025 v 9.95 C 165,94.98881 164.9888,95 164.975,95 h -4.95 C 160.0112,95 160,95.01119 160,95.025 v 14.95 c 0,0.0138 -0.0112,0.025 -0.025,0.025 h -4.95 c -0.0138,0 -0.025,0.0112 -0.025,0.025 v 14.95 c 0,0.0138 0.0112,0.025 0.025,0.025 h 9.95 c 0.0138,0 0.025,0.0112 0.025,0.025 v 4.95 c 0,0.0138 -0.0112,0.025 -0.025,0.025 h -4.95 c -0.0138,0 -0.025,0.0112 -0.025,0.025 v 4.95 c 0,0.0138 -0.0112,0.025 -0.025,0.025 h -4.95 C 155.0112,135 155,134.9888 155,134.975 v -4.95 C 155,130.0112 154.9888,130 154.975,130 h -4.95 c -0.0138,0 -0.025,0.0112 -0.025,0.025 v 9.95 c 0,0.0138 -0.0112,0.025 -0.025,0.025 h -4.95 c -0.0138,0 -0.025,0.0112 -0.025,0.025 v 4.95 c 0,0.0138 0.0112,0.025 0.025,0.025 h 4.95 c 0.0138,0 0.025,0.0112 0.025,0.025 v 4.95 c 0,0.0138 -0.0112,0.025 -0.025,0.025 h -9.95 C 140.0112,150 140,149.9888 140,149.975 v -4.95 C 140,145.0112 139.9888,145 139.975,145 h -9.95 c -0.0138,0 -0.025,0.0112 -0.025,0.025 v 4.95 c 0,0.0138 -0.0112,0.025 -0.025,0.025 h -4.95 c -0.0138,0 -0.025,0.0112 -0.025,0.025 v 9.95 c 0,0.0138 0.0112,0.025 0.025,0.025 h 9.95 c 0.0138,0 0.025,0.0112 0.025,0.025 v 4.95 c 0,0.0138 -0.0112,0.025 -0.025,0.025 z m -55,0 h -4.95 C 75.011193,165 75,164.98881 75,164.975 v -4.95 C 75,160.0112 75.01119,160 75.025,160 h 4.95 c 0.01381,0 0.025,0.0112 0.025,0.025 v 4.95 C 80,164.9888 79.98881,165 79.975,165 Z m -15,0 h -4.95 C 60.011193,165 60,164.98881 60,164.975 v -19.95 C 60,145.0112 60.01119,145 60.025,145 h 9.95 c 0.01381,0 0.025,0.0112 0.025,0.025 v 4.95 C 70,149.9888 69.98881,150 69.975,150 h -4.95 C 65.01119,150 65,150.0112 65,150.025 v 14.95 C 65,164.9888 64.98881,165 64.975,165 Z m -10,0 H 20.025 C 20.011193,165 20,164.98881 20,164.975 v -34.95 C 20,130.0112 20.01119,130 20.025,130 h 34.95 c 0.01381,0 0.025,0.0112 0.025,0.025 v 34.95 C 55,164.9888 54.98881,165 54.975,165 Z m 85,-5 h -4.95 C 135.0112,160 135,159.9888 135,159.975 v -9.95 c 0,-0.0138 0.0112,-0.025 0.025,-0.025 h 4.95 c 0.0138,0 0.025,0.0112 0.025,0.025 v 9.95 c 0,0.0138 -0.0112,0.025 -0.025,0.025 z m -40,0 h -4.95 C 95.011193,160 95,159.98881 95,159.975 v -4.95 C 95,155.0112 95.01119,155 95.025,155 h 4.95 c 0.01381,0 0.025,0.0112 0.025,0.025 v 4.95 c 0,0.0138 -0.01119,0.025 -0.025,0.025 z m -10,0 h -9.95 C 80.011193,160 80,159.98881 80,159.975 v -9.95 C 80,150.0112 80.01119,150 80.025,150 h 4.95 c 0.01381,0 0.025,0.0112 0.025,0.025 v 4.95 c 0,0.0138 0.01119,0.025 0.025,0.025 h 4.95 c 0.01381,0 0.025,0.0112 0.025,0.025 v 4.95 C 90,159.9888 89.98881,160 89.975,160 Z M 50,159.975 v -24.95 C 50,135.01119 49.988807,135 49.975,135 H 25.025 C 25.01119,135 25,135.0112 25,135.025 v 24.95 c 0,0.0138 0.01119,0.025 0.025,0.025 h 24.95 C 49.98881,160 50,159.9888 50,159.975 Z M 164.975,155 h -4.95 C 160.0112,155 160,154.9888 160,154.975 v -4.95 c 0,-0.0138 0.0112,-0.025 0.025,-0.025 h 4.95 c 0.0138,0 0.025,0.0112 0.025,0.025 v 4.95 c 0,0.0138 -0.0112,0.025 -0.025,0.025 z m -10,0 h -4.95 C 150.0112,155 150,154.9888 150,154.975 v -4.95 c 0,-0.0138 0.0112,-0.025 0.025,-0.025 h 4.95 c 0.0138,0 0.025,0.0112 0.025,0.025 v 4.95 c 0,0.0138 -0.0112,0.025 -0.025,0.025 z m -60,0 h -4.95 C 90.011193,155 90,154.98881 90,154.975 v -4.95 C 90,150.0112 90.01119,150 90.025,150 h 4.95 c 0.01381,0 0.025,0.0112 0.025,0.025 v 4.95 C 95,154.9888 94.98881,155 94.975,155 Z m -50,0 H 30.025 C 30.011193,155 30,154.98881 30,154.975 v -14.95 C 30,140.0112 30.01119,140 30.025,140 h 14.95 c 0.01381,0 0.025,0.0112 0.025,0.025 v 14.95 C 45,154.9888 44.98881,155 44.975,155 Z m 115,-5 h -4.95 C 155.0112,150 155,149.9888 155,149.975 v -4.95 c 0,-0.0138 0.0112,-0.025 0.025,-0.025 h 4.95 c 0.0138,0 0.025,0.0112 0.025,0.025 v 4.95 c 0,0.0138 -0.0112,0.025 -0.025,0.025 z m -70,0 h -4.95 C 85.011193,150 85,149.98881 85,149.975 v -4.95 C 85,145.0112 85.01119,145 85.025,145 h 4.95 c 0.01381,0 0.025,0.0112 0.025,0.025 v 4.95 C 90,149.9888 89.98881,150 89.975,150 Z m -10,0 h -4.95 C 75.011193,150 75,149.98881 75,149.975 v -9.95 C 75,140.01119 74.988807,140 74.975,140 h -9.95 C 65.011193,140 65,139.98881 65,139.975 v -9.95 C 65,130.01119 64.988807,130 64.975,130 h -4.95 C 60.011193,130 60,129.98881 60,129.975 v -4.95 C 60,125.0112 60.01119,125 60.025,125 h 4.95 C 64.98881,125 65,124.9888 65,124.975 v -9.95 C 65,115.0112 65.01119,115 65.025,115 h 4.95 C 69.98881,115 70,114.9888 70,114.975 v -4.95 C 70,110.01119 69.988807,110 69.975,110 h -9.95 C 60.011193,110 60,109.98881 60,109.975 v -4.95 C 60,105.0112 60.01119,105 60.025,105 h 4.95 C 64.98881,105 65,104.9888 65,104.975 v -4.95 C 65,100.01119 64.988807,100 64.975,100 h -9.95 C 55.011193,100 55,99.988807 55,99.975 v -4.95 C 55,95.011193 54.988807,95 54.975,95 h -4.95 C 50.011193,95 50,95.011193 50,95.025 v 4.95 c 0,0.01381 0.01119,0.025 0.025,0.025 h 4.95 c 0.01381,0 0.025,0.0112 0.025,0.025 v 4.95 C 55,104.9888 54.98881,105 54.975,105 h -4.95 C 50.01119,105 50,105.0112 50,105.025 v 4.95 C 50,109.9888 49.98881,110 49.975,110 h -9.95 C 40.011193,110 40,109.98881 40,109.975 v -9.95 C 40,100.0112 40.01119,100 40.025,100 h 4.95 C 44.988807,100 45,99.988807 45,99.975 v -4.95 C 45,95.011193 44.988807,95 44.975,95 h -4.95 C 40.011193,95 40,94.988807 40,94.975 v -9.95 C 40,85.011193 40.011193,85 40.025,85 h 4.95 C 44.988807,85 45,84.988807 45,84.975 v -4.95 C 45,80.011193 44.988807,80 44.975,80 h -4.95 C 40.011193,80 40,80.011193 40,80.025 v 4.95 C 40,84.988807 39.988807,85 39.975,85 h -9.95 C 30.011193,85 30,85.011193 30,85.025 v 4.95 C 30,89.98881 30.01119,90 30.025,90 h 4.95 C 34.98881,90 35,90.01119 35,90.025 v 4.95 C 35,94.988807 34.988807,95 34.975,95 h -4.95 C 30.011193,95 30,95.011193 30,95.025 v 4.95 c 0,0.01381 0.01119,0.025 0.025,0.025 h 4.95 c 0.01381,0 0.025,0.0112 0.025,0.025 v 14.95 c 0,0.0138 0.01119,0.025 0.025,0.025 h 14.95 c 0.01381,0 0.025,0.0112 0.025,0.025 v 4.95 c 0,0.0138 0.01119,0.025 0.025,0.025 h 4.95 c 0.01381,0 0.025,0.0112 0.025,0.025 v 4.95 C 55,124.9888 54.98881,125 54.975,125 H 35.025 C 35.011193,125 35,124.98881 35,124.975 v -4.95 C 35,120.01119 34.988807,120 34.975,120 h -4.95 C 30.011193,120 30,119.98881 30,119.975 v -14.95 C 30,105.01119 29.988807,105 29.975,105 h -4.95 C 25.011193,105 25,104.98881 25,104.975 v -4.95 C 25,100.01119 24.988807,100 24.975,100 h -4.95 C 20.011193,100 20,99.988807 20,99.975 V 60.025 C 20,60.011193 20.011193,60 20.025,60 h 19.95 C 39.98881,60 40,60.01119 40,60.025 v 9.95 C 40,69.98881 40.01119,70 40.025,70 h 4.95 C 44.988807,70 45,69.988807 45,69.975 v -4.95 C 45,65.011193 45.011193,65 45.025,65 h 4.95 C 49.98881,65 50,65.01119 50,65.025 v 4.95 C 50,69.98881 50.01119,70 50.025,70 h 9.95 C 59.988807,70 60,69.988807 60,69.975 v -9.95 C 60,60.011193 60.011193,60 60.025,60 h 4.95 C 64.98881,60 65,60.01119 65,60.025 v 9.95 C 65,69.98881 65.01119,70 65.025,70 h 4.95 C 69.988807,70 70,69.988807 70,69.975 V 45.025 C 70,45.011193 70.011193,45 70.025,45 h 4.95 C 74.988807,45 75,44.988807 75,44.975 v -4.95 C 75,40.011193 75.011193,40 75.025,40 h 4.95 C 79.988807,40 80,39.988807 80,39.975 v -4.95 C 80,35.011193 80.011193,35 80.025,35 h 4.95 C 84.98881,35 85,35.01119 85,35.025 v 9.95 C 85,44.988807 84.988807,45 84.975,45 h -4.95 C 80.011193,45 80,45.011193 80,45.025 v 4.95 C 80,49.988807 79.988807,50 79.975,50 h -4.95 C 75.011193,50 75,50.011193 75,50.025 v 9.95 C 75,59.98881 75.01119,60 75.025,60 h 4.95 C 79.988807,60 80,59.988807 80,59.975 v -9.95 C 80,50.011193 80.011193,50 80.025,50 h 4.95 C 84.98881,50 85,50.01119 85,50.025 v 9.95 C 85,59.98881 85.01119,60 85.025,60 h 4.95 C 89.98881,60 90,60.01119 90,60.025 v 4.95 C 90,64.98881 90.01119,65 90.025,65 h 4.95 C 94.988807,65 95,64.988807 95,64.975 v -9.95 C 95,55.011193 95.011193,55 95.025,55 h 4.95 C 99.98881,55 100,54.98881 100,54.975 v -4.95 C 100,50.011193 99.988807,50 99.975,50 h -4.95 C 95.011193,50 95,49.988807 95,49.975 v -4.95 C 95,45.011193 95.011193,45 95.025,45 h 4.95 C 99.98881,45 100,44.98881 100,44.975 v -4.95 C 100,40.01119 100.0112,40 100.025,40 h 9.95 c 0.0138,0 0.025,0.01119 0.025,0.025 v 4.95 C 110,44.98881 109.9888,45 109.975,45 h -4.95 C 105.0112,45 105,45.01119 105,45.025 v 9.95 c 0,0.01381 0.0112,0.025 0.025,0.025 h 4.95 C 109.9888,55 110,54.98881 110,54.975 v -4.95 C 110,50.01119 110.0112,50 110.025,50 h 4.95 c 0.0138,0 0.025,0.01119 0.025,0.025 v 4.95 c 0,0.01381 0.0112,0.025 0.025,0.025 h 4.95 c 0.0138,0 0.025,0.01119 0.025,0.025 v 4.95 C 120,59.98881 119.9888,60 119.975,60 h -19.95 C 100.0112,60 100,60.01119 100,60.025 v 9.95 C 100,69.988807 99.988807,70 99.975,70 h -9.95 C 90.011193,70 90,70.011193 90,70.025 v 4.95 C 90,74.988807 89.988807,75 89.975,75 H 75.025 C 75.011193,75 75,75.011193 75,75.025 v 9.95 C 75,84.988807 74.988807,85 74.975,85 h -4.95 C 70.011193,85 70,85.011193 70,85.025 v 4.95 C 70,89.988807 69.988807,90 69.975,90 h -4.95 C 65.011193,90 65,89.988807 65,89.975 v -4.95 C 65,85.011193 64.988807,85 64.975,85 h -4.95 C 60.011193,85 60,84.988807 60,84.975 v -4.95 C 60,80.011193 60.011193,80 60.025,80 h 4.95 C 64.988807,80 65,79.988807 65,79.975 v -4.95 C 65,75.011193 64.988807,75 64.975,75 h -4.95 C 60.011193,75 60,75.011193 60,75.025 v 4.95 C 60,79.988807 59.988807,80 59.975,80 h -4.95 C 55.011193,80 55,79.988807 55,79.975 v -4.95 C 55,75.011193 54.988807,75 54.975,75 h -4.95 C 50.011193,75 50,75.011193 50,75.025 v 4.95 C 50,79.98881 50.01119,80 50.025,80 h 4.95 C 54.98881,80 55,80.01119 55,80.025 v 4.95 C 55,84.988807 54.988807,85 54.975,85 h -4.95 C 50.011193,85 50,85.011193 50,85.025 v 4.95 C 50,89.98881 50.01119,90 50.025,90 h 4.95 C 54.988807,90 55,89.988807 55,89.975 v -4.95 C 55,85.011193 55.011193,85 55.025,85 h 4.95 C 59.98881,85 60,85.01119 60,85.025 v 9.95 C 60,94.98881 60.01119,95 60.025,95 h 9.95 C 69.988807,95 70,94.988807 70,94.975 v -4.95 C 70,90.011193 70.011193,90 70.025,90 h 4.95 C 74.988807,90 75,89.988807 75,89.975 v -4.95 C 75,85.011193 75.011193,85 75.025,85 h 4.95 C 79.988807,85 80,84.988807 80,84.975 v -4.95 C 80,80.011193 80.011193,80 80.025,80 h 4.95 C 84.98881,80 85,80.01119 85,80.025 v 9.95 C 85,89.988807 84.988807,90 84.975,90 h -4.95 C 80.011193,90 80,90.011193 80,90.025 v 9.95 C 80,99.98881 79.98881,100 79.975,100 h -4.95 C 75.01119,100 75,100.0112 75,100.025 v 14.95 c 0,0.0138 0.01119,0.025 0.025,0.025 h 4.95 c 0.01381,0 0.025,0.0112 0.025,0.025 v 4.95 C 80,119.9888 79.98881,120 79.975,120 h -9.95 C 70.01119,120 70,120.0112 70,120.025 v 9.95 c 0,0.0138 0.01119,0.025 0.025,0.025 h 4.95 c 0.01381,0 0.025,0.0112 0.025,0.025 v 4.95 c 0,0.0138 0.01119,0.025 0.025,0.025 h 14.95 C 89.98881,135 90,134.9888 90,134.975 v -4.95 C 90,130.0112 90.01119,130 90.025,130 h 4.95 C 94.98881,130 95,129.9888 95,129.975 v -4.95 C 95,125.0112 95.01119,125 95.025,125 h 4.95 c 0.01381,0 0.025,-0.0112 0.025,-0.025 v -4.95 c 0,-0.0138 0.0112,-0.025 0.025,-0.025 h 4.95 c 0.0138,0 0.025,0.0112 0.025,0.025 v 9.95 c 0,0.0138 -0.0112,0.025 -0.025,0.025 h -4.95 c -0.0138,0 -0.025,0.0112 -0.025,0.025 v 9.95 C 100,139.9888 99.98881,140 99.975,140 H 80.025 C 80.01119,140 80,140.0112 80,140.025 v 9.95 C 80,149.9888 79.98881,150 79.975,150 Z m 75,-5 h -4.95 C 150.0112,145 150,144.9888 150,144.975 v -4.95 c 0,-0.0138 0.0112,-0.025 0.025,-0.025 h 4.95 c 0.0138,0 0.025,0.0112 0.025,0.025 v 4.95 c 0,0.0138 -0.0112,0.025 -0.025,0.025 z m -50,0 h -4.95 C 100.0112,145 100,144.9888 100,144.975 v -4.95 c 0,-0.0138 0.0112,-0.025 0.025,-0.025 h 4.95 c 0.0138,0 0.025,0.0112 0.025,0.025 v 4.95 c 0,0.0138 -0.0112,0.025 -0.025,0.025 z M 140,139.975 v -14.95 C 140,125.0112 139.9888,125 139.975,125 h -14.95 c -0.0138,0 -0.025,0.0112 -0.025,0.025 v 14.95 c 0,0.0138 0.0112,0.025 0.025,0.025 h 14.95 c 0.0138,0 0.025,-0.0112 0.025,-0.025 z M 134.975,135 h -4.95 C 130.0112,135 130,134.9888 130,134.975 v -4.95 c 0,-0.0138 0.0112,-0.025 0.025,-0.025 h 4.95 c 0.0138,0 0.025,0.0112 0.025,0.025 v 4.95 c 0,0.0138 -0.0112,0.025 -0.025,0.025 z m -25,0 h -4.95 C 105.0112,135 105,134.9888 105,134.975 v -4.95 c 0,-0.0138 0.0112,-0.025 0.025,-0.025 h 4.95 c 0.0138,0 0.025,0.0112 0.025,0.025 v 4.95 c 0,0.0138 -0.0112,0.025 -0.025,0.025 z m -15,-10 h -9.95 C 85.011193,125 85,124.98881 85,124.975 v -14.95 C 85,110.0112 85.01119,110 85.025,110 h 4.95 C 89.98881,110 90,109.9888 90,109.975 V 95.025 C 90,95.011193 90.011193,95 90.025,95 h 4.95 C 94.98881,95 95,95.01119 95,95.025 v 4.95 c 0,0.01381 0.01119,0.025 0.025,0.025 h 4.95 C 99.98881,100 100,99.98881 100,99.975 v -4.95 C 100,95.011193 99.988807,95 99.975,95 h -4.95 C 95.011193,95 95,94.988807 95,94.975 v -4.95 C 95,90.011193 95.011193,90 95.025,90 h 4.95 C 99.98881,90 100,89.98881 100,89.975 v -4.95 C 100,85.01119 100.0112,85 100.025,85 h 9.95 c 0.0138,0 0.025,0.01119 0.025,0.025 v 4.95 C 110,89.98881 109.9888,90 109.975,90 h -4.95 C 105.0112,90 105,90.01119 105,90.025 v 9.95 c 0,0.01381 0.0112,0.025 0.025,0.025 h 4.95 c 0.0138,0 0.025,0.0112 0.025,0.025 v 4.95 c 0,0.0138 0.0112,0.025 0.025,0.025 h 4.95 c 0.0138,0 0.025,0.0112 0.025,0.025 v 4.95 c 0,0.0138 -0.0112,0.025 -0.025,0.025 h -4.95 c -0.0138,0 -0.025,0.0112 -0.025,0.025 v 4.95 c 0,0.0138 -0.0112,0.025 -0.025,0.025 H 95.025 C 95.01119,115 95,115.0112 95,115.025 v 9.95 C 95,124.9888 94.98881,125 94.975,125 Z m -65,0 h -4.95 C 25.011193,125 25,124.98881 25,124.975 v -4.95 C 25,120.0112 25.01119,120 25.025,120 h 4.95 c 0.01381,0 0.025,0.0112 0.025,0.025 v 4.95 C 30,124.9888 29.98881,125 29.975,125 Z m 30,-5 h -4.95 C 55.011193,120 55,119.98881 55,119.975 v -4.95 C 55,115.01119 54.988807,115 54.975,115 h -4.95 C 50.011193,115 50,114.98881 50,114.975 v -4.95 C 50,110.0112 50.01119,110 50.025,110 h 9.95 c 0.01381,0 0.025,0.0112 0.025,0.025 v 9.95 C 60,119.9888 59.98881,120 59.975,120 Z m 65,-5 h -4.95 C 120.0112,115 120,114.9888 120,114.975 v -4.95 c 0,-0.0138 0.0112,-0.025 0.025,-0.025 h 4.95 c 0.0138,0 0.025,0.0112 0.025,0.025 v 4.95 c 0,0.0138 -0.0112,0.025 -0.025,0.025 z m -100,0 h -4.95 C 20.011193,115 20,114.98881 20,114.975 v -4.95 C 20,110.0112 20.01119,110 20.025,110 h 4.95 c 0.01381,0 0.025,0.0112 0.025,0.025 v 4.95 C 25,114.9888 24.98881,115 24.975,115 Z M 100,109.975 v -4.95 C 100,105.01119 99.988807,105 99.975,105 h -4.95 C 95.01119,105 95,105.0112 95,105.025 v 4.95 c 0,0.0138 0.01119,0.025 0.025,0.025 h 4.95 c 0.01381,0 0.025,-0.0112 0.025,-0.025 z M 129.975,105 h -14.95 C 115.0112,105 115,104.9888 115,104.975 V 85.025 C 115,85.01119 115.0112,85 115.025,85 h 4.95 c 0.0138,0 0.025,0.01119 0.025,0.025 v 9.95 c 0,0.01381 0.0112,0.025 0.025,0.025 h 4.95 c 0.0138,0 0.025,0.01119 0.025,0.025 v 4.95 c 0,0.01381 0.0112,0.025 0.025,0.025 h 4.95 c 0.0138,0 0.025,0.0112 0.025,0.025 v 4.95 c 0,0.0138 -0.0112,0.025 -0.025,0.025 z m -45,0 h -4.95 C 80.011193,105 80,104.98881 80,104.975 v -4.95 C 80,100.0112 80.01119,100 80.025,100 h 4.95 c 0.01381,0 0.025,0.0112 0.025,0.025 v 4.95 C 85,104.9888 84.98881,105 84.975,105 Z m 45,-10 h -4.95 C 125.01119,95 125,94.988807 125,94.975 v -4.95 C 125,90.01119 125.0112,90 125.025,90 h 4.95 c 0.0138,0 0.025,0.01119 0.025,0.025 v 4.95 C 130,94.98881 129.9888,95 129.975,95 Z m -40,0 h -4.95 C 85.011193,95 85,94.988807 85,94.975 v -4.95 C 85,90.011193 85.011193,90 85.025,90 h 4.95 C 89.98881,90 90,90.01119 90,90.025 v 4.95 C 90,94.988807 89.988807,95 89.975,95 Z m 5,-5 h -4.95 C 90.011193,90 90,89.988807 90,89.975 v -9.95 C 90,80.011193 90.011193,80 90.025,80 h 9.95 c 0.01381,0 0.025,0.01119 0.025,0.025 v 4.95 C 100,84.988807 99.988807,85 99.975,85 h -4.95 C 95.011193,85 95,85.011193 95,85.025 v 4.95 C 95,89.988807 94.988807,90 94.975,90 Z m 70,-10 h -4.95 C 160.01119,80 160,79.988807 160,79.975 v -4.95 C 160,75.01119 160.0112,75 160.025,75 h 4.95 c 0.0138,0 0.025,0.01119 0.025,0.025 v 4.95 C 165,79.98881 164.9888,80 164.975,80 Z m -20,0 h -9.95 C 135.01119,80 135,79.988807 135,79.975 v -9.95 C 135,70.011193 134.98881,70 134.975,70 h -4.95 C 130.0112,70 130,70.01119 130,70.025 v 9.95 C 130,79.98881 129.9888,80 129.975,80 h -4.95 C 125.01119,80 125,79.988807 125,79.975 v -9.95 C 125,70.011193 124.98881,70 124.975,70 h -9.95 C 115.01119,70 115,69.988807 115,69.975 v -4.95 C 115,65.01119 115.0112,65 115.025,65 h 9.95 C 124.9888,65 125,64.98881 125,64.975 v -4.95 C 125,60.01119 125.0112,60 125.025,60 h 4.95 c 0.0138,0 0.025,0.01119 0.025,0.025 v 4.95 c 0,0.01381 0.0112,0.025 0.025,0.025 h 9.95 C 139.9888,65 140,64.98881 140,64.975 v -4.95 C 140,60.01119 140.0112,60 140.025,60 h 14.95 c 0.0138,0 0.025,0.01119 0.025,0.025 v 4.95 C 155,64.98881 154.9888,65 154.975,65 h -9.95 C 145.0112,65 145,65.01119 145,65.025 v 14.95 C 145,79.98881 144.9888,80 144.975,80 Z m -35,0 h -9.95 C 100.01119,80 100,79.988807 100,79.975 v -9.95 C 100,70.01119 100.0112,70 100.025,70 h 4.95 c 0.0138,0 0.025,0.01119 0.025,0.025 v 4.95 c 0,0.01381 0.0112,0.025 0.025,0.025 h 4.95 c 0.0138,0 0.025,0.01119 0.025,0.025 v 4.95 C 110,79.98881 109.9888,80 109.975,80 Z m 50,-5 h -9.95 C 150.01119,75 150,74.988807 150,74.975 v -4.95 C 150,70.01119 150.0112,70 150.025,70 h 9.95 c 0.0138,0 0.025,0.01119 0.025,0.025 v 4.95 C 160,74.98881 159.9888,75 159.975,75 Z m -45,0 h -4.95 C 110.01119,75 110,74.988807 110,74.975 v -4.95 C 110,70.01119 110.0112,70 110.025,70 h 4.95 c 0.0138,0 0.025,0.01119 0.025,0.025 v 4.95 C 115,74.98881 114.9888,75 114.975,75 Z M 35,74.975 v -9.95 C 35,65.011193 34.988807,65 34.975,65 h -4.95 C 30.011193,65 30,65.011193 30,65.025 v 4.95 C 30,69.988807 29.988807,70 29.975,70 h -4.95 C 25.011193,70 25,70.011193 25,70.025 v 4.95 C 25,74.98881 25.01119,75 25.025,75 h 9.95 C 34.988807,75 35,74.988807 35,74.975 Z M 164.975,70 h -4.95 C 160.01119,70 160,69.988807 160,69.975 v -9.95 C 160,60.01119 160.0112,60 160.025,60 h 4.95 c 0.0138,0 0.025,0.01119 0.025,0.025 v 9.95 C 165,69.98881 164.9888,70 164.975,70 Z m -55,0 h -4.95 C 105.01119,70 105,69.988807 105,69.975 v -4.95 C 105,65.01119 105.0112,65 105.025,65 h 4.95 c 0.0138,0 0.025,0.01119 0.025,0.025 v 4.95 C 110,69.98881 109.9888,70 109.975,70 Z M 80,69.975 v -4.95 C 80,65.011193 79.988807,65 79.975,65 h -4.95 C 75.011193,65 75,65.011193 75,65.025 v 4.95 C 75,69.98881 75.01119,70 75.025,70 h 4.95 C 79.988807,70 80,69.988807 80,69.975 Z M 54.975,65 h -4.95 C 50.011193,65 50,64.988807 50,64.975 v -4.95 C 50,60.011193 50.011193,60 50.025,60 h 4.95 C 54.98881,60 55,60.01119 55,60.025 v 4.95 C 55,64.988807 54.988807,65 54.975,65 Z m 110,-10 h -34.95 C 130.01119,55 130,54.988807 130,54.975 V 20.025 C 130,20.01119 130.0112,20 130.025,20 h 34.95 c 0.0138,0 0.025,0.01119 0.025,0.025 v 34.95 C 165,54.98881 164.9888,55 164.975,55 Z m -40,0 h -4.95 C 120.01119,55 120,54.988807 120,54.975 v -4.95 C 120,50.011193 119.98881,50 119.975,50 h -4.95 C 115.01119,50 115,49.988807 115,49.975 V 30.025 C 115,30.01119 115.0112,30 115.025,30 h 9.95 c 0.0138,0 0.025,0.01119 0.025,0.025 v 4.95 C 125,34.98881 124.9888,35 124.975,35 h -4.95 C 120.0112,35 120,35.01119 120,35.025 v 9.95 c 0,0.01381 0.0112,0.025 0.025,0.025 h 4.95 c 0.0138,0 0.025,0.01119 0.025,0.025 v 9.95 C 125,54.98881 124.9888,55 124.975,55 Z m -30,0 h -4.95 C 90.011193,55 90,54.988807 90,54.975 v -4.95 C 90,50.011193 90.011193,50 90.025,50 h 4.95 C 94.98881,50 95,50.01119 95,50.025 v 4.95 C 95,54.988807 94.988807,55 94.975,55 Z m -30,0 h -4.95 C 60.011193,55 60,54.988807 60,54.975 v -4.95 C 60,50.011193 60.011193,50 60.025,50 h 4.95 C 64.98881,50 65,50.01119 65,50.025 v 4.95 C 65,54.988807 64.988807,55 64.975,55 Z m -10,0 H 20.025 C 20.011193,55 20,54.988807 20,54.975 V 20.025 C 20,20.011193 20.011193,20 20.025,20 h 34.95 C 54.98881,20 55,20.01119 55,20.025 v 34.95 C 55,54.988807 54.988807,55 54.975,55 Z M 160,49.975 V 25.025 C 160,25.011193 159.98881,25 159.975,25 h -24.95 C 135.0112,25 135,25.01119 135,25.025 v 24.95 c 0,0.01381 0.0112,0.025 0.025,0.025 h 24.95 C 159.9888,50 160,49.98881 160,49.975 Z M 89.975,50 h -4.95 C 85.011193,50 85,49.988807 85,49.975 v -4.95 C 85,45.011193 85.011193,45 85.025,45 h 4.95 C 89.98881,45 90,45.01119 90,45.025 v 4.95 C 90,49.988807 89.988807,50 89.975,50 Z M 50,49.975 V 25.025 C 50,25.011193 49.988807,25 49.975,25 H 25.025 C 25.011193,25 25,25.011193 25,25.025 v 24.95 C 25,49.98881 25.01119,50 25.025,50 h 24.95 C 49.988807,50 50,49.988807 50,49.975 Z M 154.975,45 h -14.95 C 140.01119,45 140,44.988807 140,44.975 V 30.025 C 140,30.01119 140.0112,30 140.025,30 h 14.95 c 0.0138,0 0.025,0.01119 0.025,0.025 v 14.95 C 155,44.98881 154.9888,45 154.975,45 Z m -60,0 h -4.95 C 90.011193,45 90,44.988807 90,44.975 v -9.95 C 90,35.011193 90.011193,35 90.025,35 h 9.95 c 0.01381,0 0.025,0.01119 0.025,0.025 v 4.95 C 100,39.988807 99.988807,40 99.975,40 h -4.95 C 95.011193,40 95,40.011193 95,40.025 v 4.95 C 95,44.988807 94.988807,45 94.975,45 Z m -30,0 h -4.95 C 60.011193,45 60,44.988807 60,44.975 V 30.025 C 60,30.011193 60.011193,30 60.025,30 h 4.95 C 64.988807,30 65,29.988807 65,29.975 v -4.95 C 65,25.011193 65.011193,25 65.025,25 h 4.95 C 69.988807,25 70,24.988807 70,24.975 v -4.95 C 70,20.011193 70.011193,20 70.025,20 h 4.95 C 74.98881,20 75,20.01119 75,20.025 v 4.95 C 75,24.98881 75.01119,25 75.025,25 h 4.95 C 79.988807,25 80,24.988807 80,24.975 v -4.95 C 80,20.011193 80.011193,20 80.025,20 h 19.95 c 0.01381,0 0.025,0.01119 0.025,0.025 v 4.95 C 100,24.988807 99.988807,25 99.975,25 h -9.95 C 90.011193,25 90,25.011193 90,25.025 v 4.95 C 90,29.988807 89.988807,30 89.975,30 H 75.025 C 75.011193,30 75,30.011193 75,30.025 v 9.95 C 75,39.988807 74.988807,40 74.975,40 h -9.95 C 65.011193,40 65,40.011193 65,40.025 v 4.95 C 65,44.988807 64.988807,45 64.975,45 Z m -20,0 H 30.025 C 30.011193,45 30,44.988807 30,44.975 V 30.025 C 30,30.011193 30.011193,30 30.025,30 h 14.95 C 44.98881,30 45,30.01119 45,30.025 v 14.95 C 45,44.988807 44.988807,45 44.975,45 Z m 65,-10 h -9.95 C 100.01119,35 100,34.988807 100,34.975 v -9.95 C 100,25.01119 100.0112,25 100.025,25 h 4.95 c 0.0138,0 0.025,0.01119 0.025,0.025 v 4.95 c 0,0.01381 0.0112,0.025 0.025,0.025 h 4.95 c 0.0138,0 0.025,0.01119 0.025,0.025 v 4.95 C 110,34.98881 109.9888,35 109.975,35 Z m 5,-5 h -4.95 C 110.01119,30 110,29.988807 110,29.975 v -4.95 C 110,25.011193 109.98881,25 109.975,25 h -4.95 C 105.01119,25 105,24.988807 105,24.975 v -4.95 C 105,20.01119 105.0112,20 105.025,20 h 9.95 c 0.0138,0 0.025,0.01119 0.025,0.025 v 9.95 C 115,29.98881 114.9888,30 114.975,30 Z m -50,-5 h -4.95 C 60.011193,25 60,24.988807 60,24.975 v -4.95 C 60,20.011193 60.011193,20 60.025,20 h 4.95 C 64.98881,20 65,20.01119 65,20.025 v 4.95 C 65,24.988807 64.988807,25 64.975,25 Z"
         id="path838" />
    </g>
  </g>
</svg>
