<?xml version="1.0" encoding="UTF-8" standalone="no"?>
<svg
   xmlns:dc="http://purl.org/dc/elements/1.1/"
   xmlns:cc="http://creativecommons.org/ns#"
   xmlns:rdf="http://www.w3.org/1999/02/22-rdf-syntax-ns#"
   xmlns:svg="http://www.w3.org/2000/svg"
   xmlns="http://www.w3.org/2000/svg"
   xmlns:sodipodi="http://sodipodi.sourceforge.net/DTD/sodipodi-0.dtd"
   xmlns:inkscape="http://www.inkscape.org/namespaces/inkscape"
   width="300"
   height="300"
   viewBox="0 0 300 300"
   version="1.1"
   id="svg1032"
   inkscape:version="1.0.2 (e86c870879, 2021-01-15)"
   sodipodi:docname="2.svg">
  <defs
     id="defs1026" />
  <sodipodi:namedview
     id="base"
     pagecolor="#ffffff"
     bordercolor="#666666"
     borderopacity="1.0"
     inkscape:pageopacity="0.0"
     inkscape:pageshadow="2"
     inkscape:zoom="1.4"
     inkscape:cx="157.39817"
     inkscape:cy="116.12188"
     inkscape:document-units="px"
     inkscape:current-layer="layer1"
     inkscape:document-rotation="0"
     showgrid="true"
     units="px"
     inkscape:window-width="960"
     inkscape:window-height="1051"
     inkscape:window-x="960"
     inkscape:window-y="0"
     inkscape:window-maximized="0">
    <inkscape:grid
       type="xygrid"
       id="grid1595" />
  </sodipodi:namedview>
  <metadata
     id="metadata1029">
    <rdf:RDF>
      <cc:Work
         rdf:about="">
        <dc:format>image/svg+xml</dc:format>
        <dc:type
           rdf:resource="http://purl.org/dc/dcmitype/StillImage" />
        <dc:title></dc:title>
      </cc:Work>
    </rdf:RDF>
  </metadata>
  <g
     inkscape:label="Layer 1"
     inkscape:groupmode="layer"
     id="layer1">
    <path
       fill-rule="evenodd"
       clip-rule="evenodd"
       d="m 185,28.5 c 46.39,0 84,37.61 84,84 v 1 38 13 7 60 c 0,22.09 -17.91,40 -40,40 -13.34,0 -25.15,-6.53 -32.42,-16.57 -1.07,-3.16 -4.06,-5.43 -7.58,-5.43 -3.9,0 -7.14,2.79 -7.86,6.48 -7.11,9.43 -18.42,15.52 -31.14,15.52 -12.72,0 -24.03,-6.09 -31.14,-15.52 -0.72,-3.69 -3.96,-6.48 -7.86,-6.48 -3.52,0 -6.51,2.27 -7.58,5.43 -7.27,10.04 -19.08,16.57 -32.42,16.57 -22.09,0 -40,-17.91 -40,-40 v -60 -20 -14 -24 -1 c 0,-46.39 37.61,-84 84,-84 z"
       
       id="path184"
       style="" />
  </g>
</svg>
